<?xml version="1.0" encoding="utf-8"?>
<!-- Generator: Adobe Illustrator 24.1.1, SVG Export Plug-In . SVG Version: 6.00 Build 0)  -->
<svg version="1.1" xmlns="http://www.w3.org/2000/svg" xmlns:xlink="http://www.w3.org/1999/xlink" x="0px" y="0px"
	 viewBox="0 0 42 42" style="enable-background:new 0 0 42 42;" xml:space="preserve">
<style type="text/css">
	.st0{fill:none;}
	.st1{fill-rule:evenodd;clip-rule:evenodd;fill:#202020;}
	.st2{fill:#0C3F92;}
	.st3{fill:#212121;}
	.st4{clip-path:url(#SVGID_2_);}
	.st5{fill:#680C92;}
	.st6{fill:#9C0D0D;}
	.st7{fill:#09625E;}
	.st8{fill:#255B30;}
	.st9{fill:none;stroke:#FFFFFF;stroke-width:0.2;stroke-miterlimit:10;}
	.st10{clip-path:url(#SVGID_4_);}
	.st11{fill:#215887;}
	.st12{fill:none;stroke:#FFFFFF;stroke-width:0.1;stroke-miterlimit:10;}
	.st13{fill:none;stroke:#000000;}
	.st14{fill:#0C5F10;}
	.st15{fill-rule:evenodd;clip-rule:evenodd;fill:#C51212;}
	.st16{fill:#FFCC4D;}
	.st17{fill:#BDDDF4;}
	.st18{fill:#F5F8FA;}
	.st19{fill:#664500;}
	.st20{fill:#FCAB40;}
	.st21{fill:#595959;}
	.st22{fill:#202020;}
	.st23{fill:#FFFFFF;}
	.st24{fill:#E9AD09;}
	.st25{fill:#323232;}
	.st26{fill:#C51212;}
	.st27{fill:#0B5B99;}
</style>
<g id="Layer_1">
</g>
<g id="Layer_2">
	<path class="st21" d="M12.13,24.63c1.38,0,2.5-1.13,2.5-2.5s-1.13-2.5-2.5-2.5s-2.5,1.13-2.5,2.5S10.75,24.63,12.13,24.63z"/>
	<path class="st21" d="M22.13,24.63c1.38,0,2.5-1.13,2.5-2.5s-1.13-2.5-2.5-2.5s-2.5,1.13-2.5,2.5S20.75,24.63,22.13,24.63z"/>
	<path class="st21" d="M32.13,24.63c1.38,0,2.5-1.13,2.5-2.5s-1.13-2.5-2.5-2.5c-1.38,0-2.5,1.13-2.5,2.5S30.75,24.63,32.13,24.63z"
		/>
</g>
</svg>
