<?xml version="1.0" encoding="utf-8"?>
<!-- Generator: Adobe Illustrator 24.1.1, SVG Export Plug-In . SVG Version: 6.00 Build 0)  -->
<svg version="1.1" xmlns="http://www.w3.org/2000/svg" xmlns:xlink="http://www.w3.org/1999/xlink" x="0px" y="0px"
	 viewBox="0 0 16 16" style="enable-background:new 0 0 16 16;" xml:space="preserve">
<style type="text/css">
	.st0{fill:none;}
	.st1{fill-rule:evenodd;clip-rule:evenodd;fill:#202020;}
	.st2{fill:#0C3F92;}
	.st3{fill:#212121;}
	.st4{clip-path:url(#SVGID_2_);}
	.st5{fill:#680C92;}
	.st6{fill:#9C0D0D;}
	.st7{fill:#09625E;}
	.st8{fill:#255B30;}
	.st9{fill:none;stroke:#FFFFFF;stroke-width:0.2;stroke-miterlimit:10;}
	.st10{clip-path:url(#SVGID_4_);}
	.st11{fill:#215887;}
	.st12{fill:none;stroke:#FFFFFF;stroke-width:0.1;stroke-miterlimit:10;}
	.st13{fill:none;stroke:#000000;}
	.st14{fill:#0C5F10;}
	.st15{fill-rule:evenodd;clip-rule:evenodd;fill:#C51212;}
	.st16{fill:#FFCC4D;}
	.st17{fill:#BDDDF4;}
	.st18{fill:#F5F8FA;}
	.st19{fill:#664500;}
	.st20{fill:#FCAB40;}
	.st21{fill:#595959;}
	.st22{fill:#202020;}
	.st23{fill:#FFFFFF;}
	.st24{fill:#E9AD09;}
	.st25{fill:#323232;}
	.st26{fill:#C51212;}
	.st27{fill:#0B5B99;}
</style>
<g id="Layer_1">
</g>
<g id="Layer_2">
	<path class="st22" d="M2,0h12c1.1,0,2,0.9,2,2v12c0,1.1-0.9,2-2,2H2c-1.1,0-2-0.9-2-2V2C0,0.9,0.9,0,2,0z"/>
	<path class="st23" d="M4.03,6.79c-0.22,0-0.39,0.18-0.39,0.39v2.36c0,0.22,0.18,0.39,0.39,0.39h2.76v2.76
		c0,0.22,0.18,0.39,0.39,0.39h2.36c0.22,0,0.39-0.18,0.39-0.39V9.94h2.76c0.22,0,0.39-0.18,0.39-0.39V7.18
		c0-0.22-0.18-0.39-0.39-0.39H9.94V4.03c0-0.22-0.18-0.39-0.39-0.39H7.18c-0.22,0-0.39,0.18-0.39,0.39v2.76H4.03z"/>
</g>
</svg>
