<?xml version="1.0" encoding="utf-8"?>
<!-- Generator: Adobe Illustrator 24.1.1, SVG Export Plug-In . SVG Version: 6.00 Build 0)  -->
<svg version="1.1" xmlns="http://www.w3.org/2000/svg" xmlns:xlink="http://www.w3.org/1999/xlink" x="0px" y="0px"
	 viewBox="0 0 18.33 18.33" style="enable-background:new 0 0 18.33 18.33;" xml:space="preserve">
<style type="text/css">
	.st0{fill:none;}
	.st1{fill-rule:evenodd;clip-rule:evenodd;fill:#202020;}
	.st2{fill:#0C3F92;}
	.st3{fill:#212121;}
	.st4{clip-path:url(#SVGID_2_);}
	.st5{fill:#680C92;}
	.st6{fill:#9C0D0D;}
	.st7{fill:#09625E;}
	.st8{fill:#255B30;}
	.st9{fill:none;stroke:#FFFFFF;stroke-width:0.2;stroke-miterlimit:10;}
	.st10{clip-path:url(#SVGID_4_);}
	.st11{fill:#215887;}
	.st12{fill:none;stroke:#FFFFFF;stroke-width:0.1;stroke-miterlimit:10;}
	.st13{fill:none;stroke:#000000;}
	.st14{fill:#0C5F10;}
	.st15{fill-rule:evenodd;clip-rule:evenodd;fill:#C51212;}
	.st16{fill:#FFCC4D;}
	.st17{fill:#BDDDF4;}
	.st18{fill:#F5F8FA;}
	.st19{fill:#664500;}
	.st20{fill:#FCAB40;}
	.st21{fill:#595959;}
	.st22{fill:#202020;}
	.st23{fill:#FFFFFF;}
	.st24{fill:#E9AD09;}
	.st25{fill:#323232;}
	.st26{fill:#C51212;}
	.st27{fill:#0B5B99;}
</style>
<g id="Layer_1">
</g>
<g id="Layer_2">
	<path class="st25" d="M9.17,0C4.11,0,0,4.11,0,9.17c0,5.06,4.11,9.17,9.17,9.17s9.17-4.11,9.17-9.17C18.33,4.11,14.23,0,9.17,0z
		 M9.17,13.75c-0.5,0-0.92-0.41-0.92-0.92V9.17c0-0.5,0.41-0.92,0.92-0.92c0.5,0,0.92,0.41,0.92,0.92v3.67
		C10.08,13.34,9.67,13.75,9.17,13.75z M10.08,6.42H8.25V4.58h1.83V6.42z"/>
</g>
</svg>
