<?xml version="1.0" encoding="utf-8"?>
<!-- Generator: Adobe Illustrator 24.1.1, SVG Export Plug-In . SVG Version: 6.00 Build 0)  -->
<svg version="1.1" xmlns="http://www.w3.org/2000/svg" xmlns:xlink="http://www.w3.org/1999/xlink" x="0px" y="0px"
	 viewBox="0 0 16.58 16" style="enable-background:new 0 0 16.58 16;" xml:space="preserve">
<style type="text/css">
	.st0{fill:none;}
	.st1{fill-rule:evenodd;clip-rule:evenodd;fill:#202020;}
	.st2{fill:#0C3F92;}
	.st3{fill:#212121;}
	.st4{clip-path:url(#SVGID_2_);}
	.st5{fill:#680C92;}
	.st6{fill:#9C0D0D;}
	.st7{fill:#09625E;}
	.st8{fill:#255B30;}
	.st9{fill:none;stroke:#FFFFFF;stroke-width:0.2;stroke-miterlimit:10;}
	.st10{clip-path:url(#SVGID_4_);}
	.st11{fill:#215887;}
	.st12{fill:none;stroke:#FFFFFF;stroke-width:0.1;stroke-miterlimit:10;}
	.st13{fill:none;stroke:#000000;}
	.st14{fill:#0C5F10;}
	.st15{fill-rule:evenodd;clip-rule:evenodd;fill:#C51212;}
	.st16{fill:#FFCC4D;}
	.st17{fill:#BDDDF4;}
	.st18{fill:#F5F8FA;}
	.st19{fill:#664500;}
	.st20{fill:#FCAB40;}
	.st21{fill:#595959;}
	.st22{fill:#202020;}
	.st23{fill:#FFFFFF;}
	.st24{fill:#E9AD09;}
	.st25{fill:#323232;}
	.st26{fill:#C51212;}
	.st27{fill:#0B5B99;}
</style>
<g id="Layer_1">
</g>
<g id="Layer_2">
	<path class="st22" d="M14.07,3.5c-1.39,0-2.51,1.12-2.51,2.5c0,1.03,0.62,1.91,1.51,2.29v2.46c0,1.79-1.58,3.25-3.52,3.25
		c-1.88,0-3.43-1.38-3.51-3.1c2.26-0.47,4.01-2.48,4.01-4.93V1.14c0-0.36-0.26-0.67-0.61-0.73L7.47,0.02
		C7.06-0.07,6.67,0.2,6.58,0.6l-0.1,0.49C6.4,1.5,6.66,1.89,7.07,1.98l0.96,0.19v3.79c0,1.65-1.32,3.02-2.99,3.04
		C3.37,9.01,2.01,7.66,2.01,6l0-3.83l0.96-0.19C3.38,1.9,3.64,1.5,3.56,1.1l-0.1-0.49C3.39,0.2,2.99-0.06,2.58,0.02L0.61,0.41
		C0.26,0.48,0,0.78,0,1.14V6c0,2.41,1.73,4.44,4.02,4.9C4.1,13.73,6.55,16,9.55,16c3.05,0,5.53-2.36,5.53-5.25V8.29
		C15.96,7.9,16.58,7.03,16.58,6C16.58,4.62,15.46,3.5,14.07,3.5z"/>
</g>
</svg>
