<?xml version="1.0" encoding="utf-8"?>
<!-- Generator: Adobe Illustrator 24.1.1, SVG Export Plug-In . SVG Version: 6.00 Build 0)  -->
<svg version="1.1" xmlns="http://www.w3.org/2000/svg" xmlns:xlink="http://www.w3.org/1999/xlink" x="0px" y="0px"
	 viewBox="0 0 17.52 16" style="enable-background:new 0 0 17.52 16;" xml:space="preserve">
<style type="text/css">
	.st0{fill:none;}
	.st1{fill-rule:evenodd;clip-rule:evenodd;fill:#202020;}
	.st2{fill:#0C3F92;}
	.st3{fill:#212121;}
	.st4{clip-path:url(#SVGID_2_);}
	.st5{fill:#680C92;}
	.st6{fill:#9C0D0D;}
	.st7{fill:#09625E;}
	.st8{fill:#255B30;}
	.st9{fill:none;stroke:#FFFFFF;stroke-width:0.2;stroke-miterlimit:10;}
	.st10{clip-path:url(#SVGID_4_);}
	.st11{fill:#215887;}
	.st12{fill:none;stroke:#FFFFFF;stroke-width:0.1;stroke-miterlimit:10;}
	.st13{fill:none;stroke:#000000;}
	.st14{fill:#0C5F10;}
	.st15{fill-rule:evenodd;clip-rule:evenodd;fill:#C51212;}
	.st16{fill:#FFCC4D;}
	.st17{fill:#BDDDF4;}
	.st18{fill:#F5F8FA;}
	.st19{fill:#664500;}
	.st20{fill:#FCAB40;}
	.st21{fill:#595959;}
	.st22{fill:#202020;}
	.st23{fill:#FFFFFF;}
	.st24{fill:#E9AD09;}
	.st25{fill:#323232;}
	.st26{fill:#C51212;}
	.st27{fill:#0B5B99;}
</style>
<g id="Layer_1">
</g>
<g id="Layer_2">
	<path class="st22" d="M7.76,9.43v4.07c0,0.28-0.22,0.5-0.49,0.5c-0.24,0-0.4-0.17-0.46-0.33c-0.18-0.52-0.73-0.79-1.24-0.61
		c-0.51,0.18-0.77,0.76-0.59,1.27c0.37,1,1.29,1.67,2.29,1.67c1.37,0,2.46-1.12,2.46-2.53V9.4c-0.28-0.25-0.6-0.43-0.97-0.43
		C8.39,9,8.08,9.15,7.76,9.43z M17.51,8.78c-0.87-4.26-4.21-6.82-7.78-7.22V1c0-0.55-0.44-1-0.97-1c-0.54,0-1,0.45-1,1v0.56
		C4.21,1.96,0.9,4.52,0.01,8.78c-0.07,0.29,0.26,0.66,0.57,0.35c1.58-1.72,3.28-1.64,4.83,1.16c0.16,0.3,0.45,0.27,0.6,0
		C6.62,9.18,7.37,8,8.73,8c1.78,0,2.68,2.15,2.76,2.29c0.15,0.27,0.44,0.3,0.6,0c1.55-2.8,3.26-2.86,4.83-1.16
		C17.26,9.44,17.58,9.07,17.51,8.78z"/>
</g>
</svg>
