<?xml version="1.0" encoding="utf-8"?>
<!-- Generator: Adobe Illustrator 24.1.1, SVG Export Plug-In . SVG Version: 6.00 Build 0)  -->
<svg version="1.1" xmlns="http://www.w3.org/2000/svg" xmlns:xlink="http://www.w3.org/1999/xlink" x="0px" y="0px"
	 viewBox="0 0 29 27" style="enable-background:new 0 0 29 27;" xml:space="preserve">
<style type="text/css">
	.st0{fill:none;}
	.st1{fill-rule:evenodd;clip-rule:evenodd;fill:#202020;}
	.st2{fill:#0C3F92;}
	.st3{fill:#212121;}
	.st4{clip-path:url(#SVGID_2_);}
	.st5{fill:#680C92;}
	.st6{fill:#9C0D0D;}
	.st7{fill:#09625E;}
	.st8{fill:#255B30;}
	.st9{fill:none;stroke:#FFFFFF;stroke-width:0.2;stroke-miterlimit:10;}
	.st10{clip-path:url(#SVGID_4_);}
	.st11{fill:#215887;}
	.st12{fill:none;stroke:#FFFFFF;stroke-width:0.1;stroke-miterlimit:10;}
	.st13{fill:none;stroke:#000000;}
	.st14{fill:#0C5F10;}
	.st15{fill-rule:evenodd;clip-rule:evenodd;fill:#C51212;}
	.st16{fill:#FFCC4D;}
	.st17{fill:#BDDDF4;}
	.st18{fill:#F5F8FA;}
	.st19{fill:#664500;}
	.st20{fill:#FCAB40;}
	.st21{fill:#595959;}
	.st22{fill:#202020;}
	.st23{fill:#FFFFFF;}
	.st24{fill:#E9AD09;}
	.st25{fill:#323232;}
	.st26{fill:#C51212;}
	.st27{fill:#0B5B99;}
</style>
<g id="Layer_1">
</g>
<g id="Layer_2">
	<path class="st21" d="M27.46,9.04l-8.2-0.69L16.06,1c-0.58-1.34-2.54-1.34-3.12,0l-3.2,7.36L1.55,9.04
		c-1.49,0.12-2.1,1.93-0.97,2.89l6.22,5.25l-1.86,7.79c-0.34,1.42,1.24,2.54,2.52,1.78l7.03-4.12l7.03,4.14
		c1.29,0.76,2.86-0.36,2.52-1.78l-1.86-7.8l6.22-5.25C29.54,10.97,28.95,9.15,27.46,9.04z M14.5,19.53l-6.37,3.74l1.69-7.06
		L4.2,11.46l7.42-0.63l2.88-6.65l2.9,6.67l7.42,0.63l-5.62,4.75l1.69,7.06L14.5,19.53z"/>
</g>
</svg>
