<?xml version="1.0" encoding="utf-8"?>
<!-- Generator: Adobe Illustrator 24.1.1, SVG Export Plug-In . SVG Version: 6.00 Build 0)  -->
<svg version="1.1" id="Layer_1" xmlns="http://www.w3.org/2000/svg" xmlns:xlink="http://www.w3.org/1999/xlink" x="0px" y="0px"
	 viewBox="0 0 364.8 407" style="enable-background:new 0 0 364.8 407;" xml:space="preserve">
<style type="text/css">
	.st0{fill:#0C3F92;}
	.st1{opacity:0.5;fill:#FFFFFF;enable-background:new    ;}
	.st2{opacity:0.7;fill:#FFFFFF;enable-background:new    ;}
	.st3{opacity:0.2;enable-background:new    ;}
	.st4{opacity:0.3;fill:#0C3F92;enable-background:new    ;}
	.st5{fill:#F0F0F0;}
	.st6{fill:#FFFFFF;}
	.st7{fill:#E0E0E0;}
	.st8{fill:#FFB573;}
	.st9{fill:#263238;}
	.st10{fill:#B03390;}
	.st11{fill:#407BFF;}
	.st12{fill:#ED893E;}
	.st13{opacity:0.3;}
	.st14{opacity:0.3;fill:#263238;enable-background:new    ;}
</style>
<g>
	<path class="st0" d="M333.6,295.5H184.3c-6.3,0-11-5.1-10.6-11.4l18.3-239.3c0.5-6.3,6-11.4,12.3-11.4h149.3
		c6.3,0,11,5.1,10.6,11.4l-18.3,239.3C345.5,290.4,339.9,295.5,333.6,295.5z"/>
	<path class="st1" d="M333.6,295.5H184.3c-6.3,0-11-5.1-10.6-11.4l18.3-239.3c0.5-6.3,6-11.4,12.3-11.4h149.3
		c6.3,0,11,5.1,10.6,11.4l-18.3,239.3C345.5,290.4,339.9,295.5,333.6,295.5z"/>
	<path class="st0" d="M331.4,295.5H182.1c-6.3,0-11-5.1-10.6-11.4l18.3-239.3c0.5-6.3,6-11.4,12.3-11.4h149.3
		c6.3,0,11,5.1,10.6,11.4l-18.3,239.3C343.2,290.4,337.7,295.5,331.4,295.5z"/>
	<path class="st2" d="M331.4,295.5H182.1c-6.3,0-11-5.1-10.6-11.4l18.3-239.3c0.5-6.3,6-11.4,12.3-11.4h149.3
		c6.3,0,11,5.1,10.6,11.4l-18.3,239.3C343.2,290.4,337.7,295.5,331.4,295.5z"/>
	<path class="st0" d="M182.4,291.7c-4.2,0-7.4-3.4-7-7.6l18-236.2c0.3-4.2,4-7.6,8.2-7.6h149.3c4.2,0,7.4,3.4,7,7.6l-18,236.2
		c-0.3,4.2-4,7.6-8.2,7.6H182.4z"/>
	<path class="st3" d="M330.6,80.1H223.8c-2.5,0-4.4-2-4.2-4.5c0.2-2.5,2.4-4.5,4.9-4.5h106.8c2.5,0,4.4,2,4.2,4.5
		C335.3,78,333.1,80.1,330.6,80.1z"/>
	<path class="st4" d="M285.1,38h-17.3c-0.6,0-1.1-0.5-1-1.1c0-0.6,0.6-1.1,1.2-1.1h17.3c0.6,0,1.1,0.5,1,1.1
		C286.2,37.5,285.7,38,285.1,38z"/>
	<path class="st5" d="M223.3,75.5c0.5-6.9-4.7-12.5-11.6-12.5h108.5c6.9,0,12.1,5.6,11.6,12.5H223.3z"/>
	<path class="st6" d="M211.8,63.1c-6.9,0-12.9,5.6-13.5,12.5L187.2,221c-0.5,6.9-6.6,12.5-13.5,12.5h108.5c6.9,0,12.9-5.6,13.5-12.5
		l11.1-145.4c0.5-6.9,6.6-12.5,13.5-12.5H211.8z"/>
	<path class="st5" d="M270.7,221c-0.5,6.9,4.7,12.5,11.6,12.5H173.7c-6.9,0-12.1-5.6-11.6-12.5H270.7z"/>
	<path class="st7" d="M207.2,218.1c0.4-5.3-1.3-9.6-6.6-9.6h83.5c5.3,0,9.3,4.9,6.6,9.6H207.2z"/>
	<path class="st5" d="M270.7,221c0.5-6.9,6.6-12.5,13.5-12.5H175.7c-6.9,0-12.9,5.6-13.5,12.5H270.7z"/>
	<path class="st0" d="M211.4,79.2h4l-1,12.9h-4L211.4,79.2z"/>
	<path class="st0" d="M206.5,83.8l-0.2,4l13-0.2l0.2-4L206.5,83.8z"/>
	<path class="st6" d="M322,257.1H197.4c-1.8,0-3.2-1.5-3-3.3c0.1-1.8,1.7-3.3,3.5-3.3h124.5c1.8,0,3.2,1.5,3,3.3
		C325.4,255.6,323.8,257.1,322,257.1z"/>
	<path class="st6" d="M259.1,272.8h-62.8c-1.8,0-3.2-1.5-3-3.3c0.1-1.8,1.7-3.3,3.5-3.3h62.8c1.8,0,3.2,1.5,3,3.3
		C262.5,271.3,260.9,272.8,259.1,272.8z"/>
	<path class="st6" d="M302.6,272.8h-25.5c-1.8,0-3.2-1.5-3-3.3c0.1-1.8,1.7-3.3,3.5-3.3h25.5c1.8,0,3.2,1.5,3,3.3
		C306,271.3,304.4,272.8,302.6,272.8z"/>
	<path class="st6" d="M325.3,213.4l-5.6,0.9c-0.2-0.7-0.4-1.2-0.6-1.5c-0.2-0.3-0.5-0.6-1-0.8l-0.3,4.3c3,0.8,4.9,1.7,5.8,2.6
		c1.2,1.2,1.8,2.7,1.7,4.6c-0.1,1.1-0.4,2.1-1,3c-0.5,0.9-1.2,1.7-2,2.3c-0.8,0.6-1.6,1.1-2.5,1.3c-0.9,0.3-1.9,0.4-3.1,0.5
		l-0.2,2.8h-2.2l0.2-2.8c-1.4-0.1-2.6-0.4-3.5-0.7c-0.9-0.3-1.6-0.8-2.2-1.4c-0.6-0.6-1.1-1.3-1.4-2c-0.3-0.7-0.5-1.6-0.6-2.6
		l6.1-0.7c0.1,1,0.3,1.7,0.6,2.1c0.3,0.4,0.7,0.8,1.4,1.2l0.4-5.3c-2-0.6-3.3-1-4.1-1.5c-0.8-0.4-1.5-1.1-2-2
		c-0.5-0.9-0.8-2-0.7-3.3c0.1-1.8,0.9-3.3,2.2-4.5c1.3-1.2,3.2-1.9,5.7-2l0.1-1.5h2.2l-0.1,1.5c2.2,0.1,3.9,0.7,5,1.6
		C324.4,210.5,325.1,211.8,325.3,213.4z M315.9,211.9c-0.6,0.2-1.1,0.5-1.4,0.8c-0.3,0.3-0.4,0.7-0.5,1.1c0,0.4,0.1,0.8,0.3,1.1
		c0.2,0.3,0.6,0.6,1.3,0.8L315.9,211.9z M316.9,226.6c0.9-0.2,1.5-0.5,1.9-0.9c0.4-0.4,0.7-0.9,0.7-1.5c0-0.5-0.1-0.9-0.4-1.3
		c-0.3-0.4-0.9-0.8-1.9-1.1L316.9,226.6z"/>
	<path class="st0" d="M205.4,105.8h2.4l-0.6,7.7h-2.4L205.4,105.8z"/>
	<path class="st0" d="M209.5,105.8h2.2l2.6,4.3l0.3-4.3h2.3l-0.6,7.7h-2.3l-2.6-4.2l-0.3,4.2H209L209.5,105.8z"/>
	<path class="st0" d="M217.8,105.8h2.5l1.3,5.6l2.1-5.6h2.4l-3.5,7.7h-2.6L217.8,105.8z"/>
	<path class="st0" d="M226,109.7c0.1-1.3,0.5-2.2,1.3-2.9c0.8-0.7,1.8-1.1,3-1.1c1.3,0,2.3,0.3,2.9,1c0.6,0.7,0.9,1.7,0.8,2.9
		c-0.1,0.9-0.3,1.6-0.6,2.2c-0.3,0.6-0.8,1-1.4,1.4c-0.6,0.3-1.3,0.5-2.2,0.5c-0.9,0-1.6-0.1-2.1-0.4c-0.5-0.3-1-0.7-1.3-1.3
		C226,111.4,225.9,110.6,226,109.7z M228.4,109.7c-0.1,0.8,0,1.3,0.3,1.7c0.3,0.3,0.6,0.5,1.1,0.5c0.5,0,0.9-0.2,1.2-0.5
		c0.3-0.3,0.5-0.9,0.6-1.8c0.1-0.7-0.1-1.3-0.3-1.6c-0.3-0.3-0.7-0.5-1.2-0.5c-0.5,0-0.9,0.2-1.2,0.5
		C228.6,108.4,228.4,108.9,228.4,109.7z"/>
	<path class="st0" d="M235.7,105.8h2.4l-0.6,7.7h-2.4L235.7,105.8z"/>
	<path class="st0" d="M244.6,110.4l2,0.6c-0.2,0.6-0.4,1.1-0.8,1.5c-0.3,0.4-0.7,0.7-1.2,0.9c-0.5,0.2-1,0.3-1.7,0.3
		c-0.8,0-1.5-0.1-2-0.4c-0.5-0.2-0.9-0.7-1.3-1.3c-0.3-0.6-0.5-1.4-0.4-2.4c0.1-1.3,0.5-2.3,1.2-2.9c0.7-0.7,1.7-1,3-1
		c1,0,1.7,0.2,2.3,0.6c0.5,0.4,0.9,1,1.1,1.8l-2.1,0.5c-0.1-0.2-0.1-0.4-0.2-0.5c-0.1-0.2-0.3-0.3-0.5-0.4c-0.2-0.1-0.4-0.1-0.6-0.1
		c-0.5,0-1,0.2-1.3,0.7c-0.2,0.3-0.4,0.8-0.4,1.5c-0.1,0.9,0,1.4,0.3,1.8c0.2,0.3,0.6,0.5,1.1,0.5c0.5,0,0.8-0.1,1.1-0.4
		C244.2,111.3,244.4,110.9,244.6,110.4z"/>
	<path class="st0" d="M248.2,105.8h6.4l-0.1,1.7h-4l-0.1,1.2h3.7l-0.1,1.6h-3.7l-0.1,1.5h4.1l-0.1,1.7h-6.5L248.2,105.8z"/>
	<path class="st0" d="M293.5,126.4h-89.7l0.2-2.5h89.7L293.5,126.4z"/>
	<path class="st5" d="M293.5,126.4h-89.7l-0.6,7.6h89.7L293.5,126.4z"/>
	<path class="st5" d="M292.3,141.6h-89.7l-0.6,7.6h89.7L292.3,141.6z"/>
	<path class="st5" d="M291.2,156.8h-89.7l-0.6,7.6h89.7L291.2,156.8z"/>
	<path class="st5" d="M290,172h-89.7l-0.6,7.6h89.7L290,172z"/>
	<path class="st0" d="M288.7,189.7H199l0.2-2.5h89.7L288.7,189.7z"/>
	<path class="st5" d="M278.4,80.1H297l-0.8,11.1h-18.6L278.4,80.1z"/>
	<path class="st8" d="M64,136.6l4.8,1.9c1.8,0.7,3.3,1.9,4.5,3.3l2.2,2.8c1.5,1.8,1.4,4.5-0.2,6.3l-2.4,2.7c-1.8,2-4.9,2.2-7,0.4
		l-2.3-2c0,0-6.9-4.9-9-11.3l1.3-1.3C58.4,137.2,61.2,136.2,64,136.6z"/>
	<path class="st8" d="M77.2,90l-1.6,1l-1.7,1.2c-1.2,0.8-2.3,1.7-3.5,2.5c-2.3,1.8-4.5,3.6-6.5,5.5c-4.1,3.8-7.7,8.1-10.3,12.5
		c-0.3,0.6-0.6,1.1-0.9,1.7l-0.2,0.4c0-0.1,0.1-0.4,0.1-0.5c0.1-0.4,0.1-0.6,0-0.7c-0.1-0.4-0.1,0.6,0.2,1.6
		c0.6,2.1,1.8,4.8,3.2,7.4c2.7,5.2,6.2,10.6,9.4,15.9l0.1,0.1c1.3,2.2,0.6,5.1-1.6,6.4c-1.7,1-3.8,0.9-5.3-0.3
		c-2.7-2.1-5.2-4.3-7.6-6.7c-2.4-2.4-4.7-4.9-6.9-7.6c-2.2-2.8-4.3-5.6-6.1-9.5c-0.5-1-0.9-2-1.3-3.3c-0.4-1.2-0.7-2.7-0.7-4.5
		c0-0.9,0.1-1.9,0.3-3.1c0.1-0.5,0.3-1.2,0.5-1.7l0.3-0.7c0.3-0.9,0.7-1.8,1.1-2.7c3.1-7.1,7.7-13.1,12.7-18.2
		c2.5-2.6,5.2-4.9,8-7.1c1.4-1.1,2.8-2.2,4.3-3.2c0.7-0.5,1.5-1,2.3-1.5l1.2-0.7l1.3-0.8c4.5-2.6,10.2-1.1,12.7,3.4
		c2.5,4.3,1.2,9.7-2.9,12.4L77.2,90z"/>
	<path class="st9" d="M77.4,68.8c-7.8,0-16.3,3.4-27.2,16.9c0,8.1,17.1,18.8,17.1,18.8S95.2,68.7,77.4,68.8z"/>
	<path class="st9" d="M19.6,388.6c-0.1,0-0.3,0-0.4-0.1c-1.6-0.6-3.1-4.7-3.2-6.9c0-0.1,0.1-0.3,0.2-0.3c0.1-0.1,0.3-0.1,0.4,0
		c0.2,0.1,4.2,3.4,4.4,5.6c0,0.5-0.1,0.9-0.4,1.2C20.3,388.4,20,388.6,19.6,388.6z M16.8,382.5c0.4,2.2,1.6,5,2.6,5.3
		c0.1,0.1,0.3,0.1,0.6-0.2c0.1-0.2,0.2-0.4,0.2-0.6C20.1,385.7,18.1,383.7,16.8,382.5z"/>
	<path class="st9" d="M22.1,383.7c-1.9,0-4.6-0.9-6-1.8c-0.1-0.1-0.2-0.2-0.2-0.4c0-0.1,0.1-0.3,0.3-0.3c0.2-0.1,5.2-1.4,7.1-0.2
		c0.4,0.2,0.7,0.6,0.8,1c0.1,0.6,0,1.1-0.5,1.4C23.3,383.6,22.7,383.7,22.1,383.7z M17.3,381.7c2,1,5,1.6,5.9,1
		c0.1-0.1,0.3-0.2,0.2-0.6c-0.1-0.2-0.2-0.4-0.4-0.5C21.9,381,19.1,381.4,17.3,381.7z"/>
	<path class="st10" d="M2.2,380.7c2.3-2.7,6-6.4,9.9-14.1c0,0,12.4,3,9.9,6.6c-4.4,6.5-6.6,19.7-0.9,26.8c3.2,4.1-1.9,4.7-5.3,3
		c-5.4-2.8-5.2-3.8-8-8.4c-2.4-3.9-3.3-5.4-6.6-7.1C-1.4,386.2-0.1,383.5,2.2,380.7z"/>
	<path class="st9" d="M107,149c0,0-17.9,87.3-31,124.5c-13.8,39.1-51.8,99.5-53.3,102.1c-5.4-1.4-10.2-3.3-13.4-6.5
		c0,0,17.9-65.5,35.3-108C51.1,172.5,65.7,149,65.7,149H107z"/>
	<path class="st3" d="M79.7,195.7c-0.8,16.9-1.4,40.1-0.6,68.3c5.5-17.6,11.4-41.5,16.4-62.9C92.2,196.7,87,194.6,79.7,195.7z"/>
	<path class="st8" d="M80.7,42c1.9,7.6,3.7,20,0.7,26.6c0,0,11.2,0.5,25.6,11.9c6.8-9.9-1.1-11.8-1.1-11.8c-6-1.4-5.7-9.3-5.7-15
		L80.7,42z"/>
	<path class="st11" d="M77.9,72c-5.6-0.6-1.7-11.2,1.2-10.2c7.4,2.6,23.8-0.3,28.9,2.5c5.1,2.8,3.8,8.6,3.8,8.6S83.9,72.7,77.9,72z"
		/>
	<path class="st2" d="M77.9,72c-5.6-0.6-1.7-11.2,1.2-10.2c7.4,2.6,23.8-0.3,28.9,2.5c5.1,2.8,3.8,8.6,3.8,8.6S83.9,72.7,77.9,72z"
		/>
	<path class="st9" d="M110.6,28.6c0.2,1,0.9,1.7,1.5,1.6c0.7-0.1,1.1-1,0.9-2c-0.2-1-0.9-1.7-1.5-1.6
		C110.8,26.7,110.4,27.6,110.6,28.6z"/>
	<path class="st9" d="M111.2,26.7l2.3-1.1C113.5,25.5,112.6,27.7,111.2,26.7z"/>
	<path class="st9" d="M111.9,20.5c0.1-0.1,0.1-0.3,0.1-0.5c-0.1-0.3-0.4-0.5-0.7-0.4c-3.2,0.9-4.1,3.5-4.2,3.6
		c-0.1,0.3,0.1,0.7,0.4,0.8c0.3,0.1,0.7-0.1,0.8-0.4c0-0.1,0.8-2.1,3.3-2.8C111.7,20.8,111.8,20.7,111.9,20.5z"/>
	<path class="st12" d="M111.8,31.1c0,0,2.2,4.2,4.3,6.2c-1.2,1.4-3.6,1.1-3.6,1.1L111.8,31.1z"/>
	<path class="st8" d="M75.8,28.1c3,12.3,4,17.6,11.3,22.9c11,8,25.2,1.7,26-11.3c0.6-11.7-4.3-29.9-17.2-32.7
		C83.2,4.2,72.8,15.8,75.8,28.1z"/>
	<path class="st9" d="M99.7,30.4c7.3-9.6,12-17.4,8.4-25.9c-3-7.1-11.3-5-12.5-1.5c-22.1-1.9-30,6.1-25.4,19.3
		c2.9,8.4-8.4,4.1-5.6,14.7c2.1,8.2-5.3,11.3-1.5,16c5.4,6.8,16.7-2.1,29.5,3C103,60.3,118.8,54,99.7,30.4z"/>
	<path class="st8" d="M98.6,32.3c1.4,2.3,3.6,3.5,5.5,3.8c2.9,0.4,3.9-2.8,2.7-5.8c-1.1-2.7-3.9-6.2-6.6-5.2
		C97.5,26,96.9,29.7,98.6,32.3z"/>
	<path class="st9" d="M102.9,396.7c-1.9,0-4.9-1.5-6.3-2.7c-0.1-0.1-0.1-0.3-0.1-0.4c0-0.1,0.2-0.2,0.3-0.3c0.2,0,5.4-0.6,7.1,0.8
		c0.4,0.3,0.6,0.7,0.6,1.1c0,0.6-0.2,1.1-0.7,1.3C103.5,396.7,103.2,396.7,102.9,396.7z M97.8,394c1.8,1.3,4.7,2.4,5.7,1.9
		c0.1-0.1,0.3-0.2,0.3-0.6c0-0.2-0.1-0.4-0.3-0.6C102.4,393.9,99.5,393.9,97.8,394z"/>
	<path class="st9" d="M96.8,394.1c-0.1,0-0.2-0.1-0.3-0.2c-0.1-0.1-0.1-0.3,0-0.4c0.1-0.2,2.7-4.7,4.8-5.2c0.5-0.1,0.9-0.1,1.2,0.2
		c0.5,0.3,0.7,0.8,0.6,1.3C102.9,391.4,99.1,393.6,96.8,394.1C96.9,394.1,96.8,394.1,96.8,394.1z M101.8,389c-0.1,0-0.2,0-0.3,0
		c-1.3,0.3-2.9,2.6-3.9,4.1c2.1-0.7,4.7-2.4,4.9-3.5c0-0.2,0-0.3-0.3-0.5C102.1,389,101.9,389,101.8,389z"/>
	<path class="st10" d="M112.8,401.4c-10.8-0.8-18.1-8.2-17.3-16.1c0.4-4.3-13.4-4.7-13.4-4.7c2.2,13.4-0.6,15.3-1.5,18.8
		c-0.9,3.5-0.7,7.3,2.2,7.4c3.4,0.1,5-0.6,9.3-0.4c5,0.2,10.4,0.4,19.2,0.4C114.8,406.8,117.6,401.8,112.8,401.4z"/>
	<path class="st9" d="M125.7,149c0,0-0.9,66.1-6.2,109.5c-5.2,43.4-23.2,128.6-23.2,128.6c-5.2,1-10.1,1.2-14.3-0.1
		c0,0-5.7-66.5,3.9-130.9C78.8,188.8,74.4,149,74.4,149L125.7,149L125.7,149z"/>
	<path class="st10" d="M128.1,87.9c-0.2,5.1,7.8,16.9-2.1,23.8c1.9,4.2,3.4,32.3-0.3,37.4c-5.5,4-35.3,3.2-60,0
		c-1-10.2,4.6-31.3-2.3-64.2c-1.6-7.6,3.8-15,11.6-15.7c2.1-0.2,4.3-0.4,6.5-0.5c8.8-0.4,15.9-0.7,23.6,0c2.5,0.2,5.2,0.6,7.7,0.9
		C121.9,70.8,128.5,78.7,128.1,87.9z"/>
	<g class="st13">
		<path class="st14" d="M64,83c-0.2,0.1-0.4,0.2-0.6,0.3c-0.2,0.1-0.2,0.3-0.1,0.5c0.1,0.2,0.3,0.2,0.5,0.1c0.2-0.1,0.4-0.2,0.6-0.3
			c2.6,1,5.5,3.2,7.2,3.4c-2.6-2.3-4.5-4-6.6-3.7c0.6-0.4,1.2-0.7,1.9-1.1c2.4,0.9,5.1,2.9,6.6,3.1c-2.5-2.2-4.2-3.7-6.1-3.4
			c0.5-0.3,0.9-0.6,1.4-0.9c0.3-0.2,0.5-0.4,0.8-0.5c2.2,0.9,4.5,3,5.9,3.2c-2.2-2.2-3.8-3.7-5.6-3.4c0.6-0.4,1.2-0.9,1.7-1.3
			c2,0.9,4.1,2.7,5.4,3c-2-2-3.5-3.4-5.2-3.2c0.5-0.4,1-0.8,1.4-1.2c0.1-0.1,0.2-0.2,0.3-0.3c1.8,0.9,3.5,2.8,4.7,3.1
			c-1.7-2-2.9-3.4-4.6-3.2c0.5-0.4,0.9-0.8,1.3-1.2c1.6,0.9,3.3,2.5,4.3,2.8c-1.5-1.8-2.6-3.1-4.2-2.9c0.5-0.4,0.9-0.9,1.4-1.3
			c1.4,0.9,2.8,2.5,3.7,2.8c-1.3-1.7-2.2-3-3.6-2.9c0.3-0.2,0.5-0.5,0.7-0.7c0.1-0.1,0.3-0.3,0.4-0.4c1.3,0.8,2.6,2.3,3.4,2.6
			c-1.2-1.6-2-2.7-3.4-2.7c0.4-0.4,0.8-0.8,1.1-1.2c1.2,0.6,2.3,1.9,3.1,2.1c-1.1-1.4-1.8-2.3-3.1-2.2c0.1-0.1,0.1-0.1,0.2-0.2
			c0.3-0.3,0.5-0.6,0.8-0.9c1.1,0.6,2.1,1.7,2.9,1.9c-1-1.2-1.6-2.1-2.8-2c0.3-0.4,0.6-0.8,0.9-1.2c0-0.1,0-0.1,0-0.1
			c-0.1,0-0.1,0-0.1,0c-0.3,0.4-0.5,0.7-0.8,1.1c0.1-0.6-0.1-1.1-0.5-1.8c-0.1,0-0.3,0-0.5,0c0.2,0.6,0.6,1.3,0.7,2
			c-0.2,0.3-0.5,0.5-0.7,0.8c-0.1,0.1-0.1,0.1-0.2,0.2c0.3-1-0.3-1.8-1-2.9c-0.1,0-0.2,0-0.2,0c0.2,0.8,0.8,1.9,1.1,3
			c-0.3,0.4-0.7,0.7-1.1,1.1c0.3-1.2-0.5-2.3-1.7-3.8c0.1,0.9,1.1,2.5,1.5,4c-0.1,0.1-0.3,0.3-0.4,0.4c-0.2,0.2-0.5,0.5-0.7,0.7
			c0.3-1.3-0.6-2.5-1.9-4.1c0.1,1,1.2,2.7,1.7,4.3c-0.4,0.4-0.9,0.8-1.3,1.2c0.3-1.3-0.6-2.6-1.8-4.4c0,1.1,1.1,2.9,1.5,4.7
			c-0.3,0.3-0.7,0.6-1.1,0.9c0.3-1.4-0.7-2.8-2-4.8c0,1.1,1.2,3.2,1.7,5c-0.1,0.1-0.2,0.2-0.3,0.2c-0.5,0.4-1,0.8-1.5,1.2
			c0.4-1.5-0.5-3.1-1.8-5.4c-0.1,1.2,1,3.6,1.4,5.7c-0.6,0.4-1.1,0.8-1.7,1.2c0.6-1.7-0.4-3.5-1.8-6.2c-0.1,1.4,1.1,4.1,1.5,6.4
			c-0.2,0.1-0.3,0.2-0.5,0.3c-0.5,0.4-1.1,0.7-1.6,1c0.7-1.7-0.1-3.7-1.5-6.4c-0.1,0.1-0.1,0.2-0.2,0.3c0.1,1.6,1,4.2,1.2,6.4
			c-0.6,0.4-1.2,0.7-1.8,1.1c0.7-1.4,0.3-3-0.6-5c-0.2,0.6-0.3,1.1-0.5,1.7C63.6,80.7,63.9,81.9,64,83z"/>
		<path class="st14" d="M98,73.8c-2-1.3-4-3.6-5.3-4.1c1.8,2.5,3.1,4.3,5,4.3c-0.6,0.3-1.3,0.7-1.9,1c-1.9-1.2-3.7-3.3-4.9-3.8
			c1.7,2.3,2.9,3.9,4.6,3.9c-0.5,0.3-1.1,0.6-1.6,0.9c-0.1,0.1-0.3,0.2-0.4,0.2c-1.6-1.2-3.1-3.3-4.1-3.8c1.3,2.2,2.3,3.8,4.1,3.9
			c-0.5,0.3-1,0.6-1.5,1c-1.5-1.1-2.8-3-3.8-3.5c1.2,2.1,2.1,3.5,3.7,3.6c-0.5,0.3-1.1,0.7-1.6,1.1c-1.3-1.1-2.4-2.9-3.2-3.4
			c1,1.9,1.7,3.3,3.1,3.4c-0.3,0.2-0.6,0.4-0.9,0.6c-0.2,0.1-0.3,0.2-0.5,0.4c-1.2-1-2.2-2.7-3-3.1c0.9,1.8,1.6,3,2.9,3.2
			c-0.5,0.3-0.9,0.7-1.3,1c-1.1-0.8-2-2.2-2.8-2.6c0.8,1.5,1.4,2.6,2.7,2.6c-0.1,0.1-0.2,0.1-0.2,0.2c-0.3,0.3-0.6,0.5-0.9,0.8
			c-1-0.8-1.8-2-2.5-2.4c0.8,1.4,1.3,2.3,2.4,2.4c-0.4,0.3-0.7,0.7-1.1,1c0,0,0,0.1,0,0.2c0,0,0.1,0,0.2,0c0.3-0.3,0.7-0.6,1-0.9
			c-0.3,0.9,0.1,1.8,0.8,3.1c0.1-0.7-0.4-2.1-0.5-3.3c0.3-0.2,0.6-0.5,0.8-0.7c0.1-0.1,0.1-0.1,0.2-0.2c-0.5,1,0.1,2,0.8,3.5
			c0.1-0.8-0.5-2.3-0.6-3.6c0.4-0.3,0.8-0.6,1.2-0.9c-0.5,1.2,0.1,2.4,1.1,4.1c0.1-0.9-0.7-2.7-0.9-4.2c0.1-0.1,0.3-0.2,0.4-0.3
			c0.3-0.2,0.5-0.4,0.8-0.6c-0.5,1.2,0.2,2.5,1.2,4.4c0.1-1-0.8-2.9-1-4.5c0.5-0.3,1-0.6,1.5-0.9c-0.5,1.3,0.2,2.7,1.1,4.6
			c0.2-1-0.6-3.1-0.8-4.8c0.4-0.2,0.8-0.5,1.2-0.7c-0.5,1.4,0.2,2.9,1.2,5c0.2-1.1-0.7-3.3-0.8-5.2c0.1-0.1,0.2-0.1,0.3-0.2
			c0.5-0.3,1.1-0.6,1.6-0.9c-0.6,1.4,0,3.2,0.9,5.6c0.3-1.2-0.4-3.7-0.4-5.9c0.6-0.3,1.2-0.7,1.9-1c-0.9,1.5-0.2,3.6,0.8,6.4
			c0.3-1.3-0.5-4.2-0.5-6.6c0.2-0.1,0.4-0.2,0.5-0.3c0.6-0.3,1.2-0.5,1.7-0.8c-1,1.6-0.4,3.8,0.5,6.9c0.4-1.4-0.3-4.6-0.1-7.1
			c0.6-0.3,1.3-0.5,1.9-0.7c-1.3,1.8-0.5,4.2,0.5,7.7c0.5-1.6-0.3-5-0.1-7.8c0.2-0.1,0.4-0.1,0.6-0.2c0.2-0.1,0.3-0.3,0.2-0.4
			c-0.1-0.2-0.3-0.3-0.4-0.2c-0.2,0.1-0.4,0.2-0.7,0.2c-1.5-0.9-3.1-2.2-4.4-3.2c-0.4,0-0.7,0-1.1,0c1.7,2,3.2,3.4,4.9,3.5
			c-0.7,0.3-1.3,0.5-2,0.8c-2.3-1.3-4.5-3.7-6-4.1c2.1,2.5,3.6,4.3,5.5,4.3c-0.5,0.2-1,0.5-1.5,0.7C98.6,73.5,98.3,73.7,98,73.8z"/>
		<path class="st14" d="M81.4,98.7c-1.5-1.6-2.5-2.7-3.9-2.5c0.2-0.3,0.4-0.5,0.7-0.8c0.1-0.2,0.3-0.3,0.4-0.5
			c1.4,0.7,2.8,2,3.7,2.2c-1.4-1.5-2.3-2.5-3.6-2.3c0.3-0.4,0.7-0.9,1-1.3c1.3,0.5,2.5,1.6,3.4,1.8c-1.2-1.2-2.1-2.1-3.3-1.8
			c0.1-0.1,0.1-0.2,0.2-0.3c0.2-0.3,0.5-0.7,0.7-1c1.2,0.5,2.3,1.5,3.1,1.6c-1.1-1.1-1.9-1.9-3-1.7c0.3-0.4,0.5-0.8,0.7-1.3
			c0-0.1,0-0.1,0-0.1c-0.1,0-0.1,0-0.1,0c-0.2,0.4-0.5,0.8-0.7,1.2c0.1-1-0.6-1.7-1.6-2.8c0.1,0.7,1,1.9,1.4,3
			c-0.2,0.3-0.4,0.6-0.6,0.9c-0.1,0.1-0.1,0.1-0.2,0.2c0.2-1.1-0.6-2-1.7-3.1c0.1,0.8,1.1,2.1,1.5,3.3c-0.3,0.4-0.6,0.8-0.9,1.2
			c0.2-1.2-0.8-2.2-2.1-3.6c0.2,0.9,1.4,2.4,2,3.8c-0.1,0.1-0.2,0.3-0.3,0.4c-0.2,0.3-0.4,0.5-0.7,0.8c0.2-1.3-0.8-2.4-2.3-3.9
			c0.2,1,1.5,2.6,2.1,4.1c-0.4,0.4-0.8,0.9-1.1,1.3c0.1-1.3-0.9-2.5-2.3-4.2c0.1,1.1,1.4,2.8,2,4.5c-0.3,0.3-0.6,0.7-0.9,1
			c0.1-1.5-1-2.8-2.5-4.5c0.1,1.1,1.5,3,2.2,4.8c-0.1,0.1-0.2,0.2-0.3,0.3c-0.4,0.5-0.9,0.9-1.3,1.3c0.2-1.5-0.9-3.1-2.4-5.2
			c0,1.2,1.4,3.5,2,5.5c-0.5,0.5-1,1-1.5,1.4c0.5-1.7-0.8-3.5-2.5-5.9c0,1.4,1.6,3.9,2.2,6.2c-0.1,0.1-0.3,0.3-0.5,0.4
			c-0.5,0.4-1,0.8-1.5,1.2c0.6-1.8-0.7-3.8-2.4-6.5c0,1.5,1.5,4.3,2,6.9c-0.5,0.4-1.1,0.8-1.7,1.2c0.4-1.2,0.1-2.4-0.5-3.8
			c0.2,1.6,0.3,3.1,0.4,4.6c0.1,0,0.1-0.1,0.2-0.1c2.7,0.7,5.8,2.5,7.5,2.6c-2.9-2-5-3.5-7-2.9c0.6-0.4,1.2-0.9,1.7-1.3
			c2.5,0.6,5.4,2.3,6.9,2.4c-2.7-1.9-4.6-3.2-6.5-2.7c0.4-0.3,0.8-0.7,1.3-1.1c0.2-0.2,0.5-0.4,0.7-0.6c2.3,0.7,4.8,2.4,6.2,2.6
			c-2.4-1.9-4.2-3.3-6-2.8c0.5-0.5,1.1-1,1.6-1.5c2.1,0.7,4.4,2.2,5.7,2.4c-2.2-1.8-3.8-3-5.5-2.6c0.4-0.4,0.9-0.9,1.3-1.3
			c0.1-0.1,0.2-0.2,0.3-0.3c1.9,0.7,3.8,2.4,5,2.6c-1.9-1.8-3.2-3.1-4.9-2.6c0.4-0.4,0.8-0.9,1.2-1.3c1.7,0.7,3.5,2.2,4.6,2.4
			c-1.7-1.7-2.9-2.8-4.5-2.4c0.4-0.5,0.8-1,1.2-1.5C78.9,97,80.4,98.5,81.4,98.7z"/>
		<path class="st14" d="M104.6,97.7c-1,0.4-2.3,2.2-3.7,3.2c-0.4-0.2-0.8-0.4-1.2-0.6c1.5-0.3,2.4-1.7,3.6-3.7c-1,0.5-2.5,2.3-4,3.5
			c-0.1-0.1-0.2-0.1-0.3-0.2c-0.6-0.3-1.1-0.6-1.7-0.9c1.5-0.2,2.7-1.7,4.2-3.8c-1.2,0.4-2.9,2.4-4.7,3.5c-0.6-0.3-1.2-0.7-1.8-1.1
			c1.8-0.1,3.1-1.8,4.9-4.1c-1.3,0.4-3.3,2.7-5.3,3.9c-0.2-0.1-0.3-0.2-0.5-0.3c-0.5-0.3-1.1-0.7-1.6-1.1c1.9,0,3.5-1.7,5.6-4.2
			c-1.4,0.4-3.7,2.7-6,3.9c-0.6-0.4-1.1-0.8-1.7-1.2c2.2,0.1,3.9-1.8,6.2-4.5c-1.6,0.4-4.1,2.9-6.5,4.3c-0.2-0.1-0.3-0.3-0.5-0.4
			c-0.1-0.1-0.4-0.1-0.5,0.1c-0.1,0.1-0.1,0.4,0.1,0.5c0.2,0.1,0.4,0.3,0.5,0.4c0.2,2.8-0.7,6.3-0.3,7.9c1.1-3.4,1.9-5.7,0.8-7.5
			c0.6,0.4,1.2,0.8,1.8,1.2c0.1,2.6-0.7,5.8-0.3,7.3c1-3.1,1.7-5.3,0.7-7c0.5,0.3,0.9,0.6,1.4,0.9c0.3,0.2,0.5,0.3,0.8,0.5
			c0,2.4-0.9,5.3-0.6,6.7c1.1-2.9,1.9-4.9,0.9-6.5c0.6,0.4,1.3,0.7,1.9,1.1c0,2.2-0.9,4.9-0.6,6.1c1-2.6,1.8-4.5,0.8-6
			c0.5,0.3,1.1,0.6,1.7,0.9c0.1,0.1,0.3,0.1,0.4,0.2c-0.1,2-1.1,4.3-1,5.5c1.2-2.3,2-4,1.1-5.5c0.5,0.3,1.1,0.5,1.6,0.8
			c-0.1,1.8-1.1,4-0.9,5.1c1.1-2.1,1.8-3.6,1-5c0.6,0.3,1.2,0.5,1.8,0.8c-0.2,1.6-1.2,3.5-1.1,4.5c1.1-1.9,1.9-3.2,1.2-4.5
			c0.3,0.1,0.7,0.3,1,0.4c0.2,0.1,0.4,0.1,0.6,0.2c-0.2,1.5-1.1,3.3-1,4.2c1-1.7,1.7-2.9,1.1-4.1c0.5,0.2,1,0.4,1.6,0.6
			c-0.1,1.4-0.8,2.9-0.7,3.7c0.8-1.5,1.4-2.6,0.8-3.7c0.1,0,0.2,0.1,0.3,0.1c0.4,0.1,0.8,0.3,1.2,0.4c-0.1,1.2-0.7,2.6-0.6,3.4
			c0.8-1.4,1.3-2.3,0.7-3.4c0.5,0.1,0.9,0.3,1.4,0.3c0.1,0,0.1,0,0.1-0.1c0-0.1,0-0.1-0.1-0.1c-0.4-0.1-0.9-0.2-1.3-0.3
			c0.9-0.2,1.5-1.1,2.2-2.3c-0.7,0.3-1.5,1.5-2.5,2.2c-0.3-0.1-0.7-0.2-1-0.3c-0.1,0-0.2-0.1-0.2-0.1c1.1-0.2,1.7-1.2,2.5-2.5
			c-0.7,0.3-1.7,1.6-2.7,2.4c-0.5-0.2-0.9-0.4-1.4-0.5c1.3-0.2,1.9-1.4,2.9-3.1c-0.8,0.4-1.9,2-3.1,3c-0.2-0.1-0.3-0.1-0.5-0.2
			c-0.3-0.1-0.6-0.3-0.9-0.4c1.3-0.2,2.1-1.5,3.1-3.3c-0.9,0.5-2,2.2-3.3,3.2c-0.5-0.2-1.1-0.5-1.6-0.7
			C102.6,100.9,103.5,99.5,104.6,97.7z"/>
		<path class="st14" d="M96.9,115.5c1.2,0.4,2.4,1.3,3.2,1.4C98.9,115.8,98.1,115.1,96.9,115.5c0.3-0.5,0.5-1,0.7-1.4
			c0-0.1,0-0.1-0.1-0.1c-0.1,0-0.1,0-0.1,0.1c-0.2,0.4-0.4,0.8-0.6,1.2c0-1-0.7-1.7-1.8-2.6c0.1,0.7,1.1,1.8,1.6,2.9
			c-0.2,0.3-0.4,0.6-0.6,0.9c0,0.1-0.1,0.1-0.1,0.2c0.1-1.1-0.7-1.9-1.9-3c0.1,0.8,1.2,2,1.8,3.2c-0.3,0.4-0.6,0.8-0.9,1.3
			c0.1-1.3-0.9-2.2-2.3-3.5c0.2,0.9,1.5,2.3,2.2,3.7c-0.1,0.1-0.2,0.3-0.3,0.4c-0.2,0.3-0.4,0.5-0.6,0.8c0.1-1.3-1-2.3-2.5-3.7
			c0.2,1,1.7,2.4,2.4,3.9c-0.3,0.5-0.7,0.9-1.1,1.4c0-1.4-1.1-2.5-2.6-4c0.2,1,1.6,2.7,2.3,4.3c-0.3,0.4-0.6,0.7-0.9,1.1
			c0.1-1.5-1.1-2.7-2.8-4.4c0.2,1.1,1.7,2.9,2.5,4.7c-0.1,0.1-0.2,0.2-0.2,0.3c-0.4,0.5-0.8,0.9-1.3,1.4c0.1-1.5-1.1-3-2.7-5
			c0.1,1.2,1.6,3.4,2.3,5.4c-0.5,0.5-1,1-1.5,1.5c0.3-1.8-1-3.4-2.9-5.7c0.1,1.4,1.8,3.8,2.6,6c-0.1,0.1-0.3,0.3-0.4,0.4
			c-0.5,0.4-0.9,0.9-1.4,1.3c0.5-1.9-0.9-3.8-2.8-6.4c0.1,1.5,1.7,4.2,2.4,6.7c-0.5,0.5-1.1,0.9-1.6,1.3c0.6-2.1-0.9-4.2-3-7.1
			c0.1,1.6,1.9,4.6,2.7,7.3c-0.2,0.1-0.3,0.3-0.5,0.4c-0.1,0.1-0.2,0.3-0.1,0.5c0.1,0.1,0.3,0.2,0.5,0.1c0.2-0.1,0.4-0.3,0.5-0.4
			c2.8,0.5,6,2.2,7.6,2.1c-3-1.8-5.2-3.2-7.2-2.5c0.6-0.5,1.1-1,1.6-1.5c2.5,0.5,5.5,2,7,1.9c-2.8-1.7-4.8-2.9-6.6-2.3
			c0.4-0.4,0.8-0.8,1.2-1.1c0.2-0.2,0.4-0.4,0.7-0.7c2.3,0.6,5,2.1,6.4,2.2c-2.5-1.8-4.4-3-6.1-2.4c0.5-0.5,1-1.1,1.5-1.6
			c2.1,0.5,4.6,2,5.8,2c-2.3-1.6-4-2.8-5.6-2.2c0.4-0.5,0.8-0.9,1.2-1.4c0.1-0.1,0.2-0.2,0.3-0.4c1.9,0.6,4,2.1,5.2,2.2
			c-2-1.7-3.4-2.9-5.1-2.3c0.4-0.5,0.8-0.9,1.1-1.4c1.8,0.6,3.6,1.9,4.7,2.1c-1.8-1.6-3.1-2.6-4.7-2.1c0.4-0.5,0.8-1,1.1-1.5
			c1.6,0.6,3.2,2,4.2,2.1c-1.6-1.5-2.7-2.5-4.1-2.2c0.2-0.3,0.4-0.6,0.6-0.9c0.1-0.2,0.2-0.3,0.3-0.5c1.4,0.6,2.9,1.8,3.8,1.9
			c-1.5-1.4-2.5-2.3-3.8-2c0.3-0.5,0.6-0.9,0.9-1.4c1.3,0.4,2.6,1.5,3.5,1.5c-1.3-1.2-2.2-2-3.4-1.6c0.1-0.1,0.1-0.2,0.2-0.3
			C96.5,116.2,96.7,115.8,96.9,115.5z"/>
		<path class="st14" d="M105,130.3c0.3-0.4,0.6-0.7,0.9-1c-0.2,0.9,0.4,1.8,1.2,3c0-0.7-0.7-2-0.9-3.2c0.3-0.3,0.5-0.5,0.8-0.8
			c0.1-0.1,0.1-0.1,0.2-0.2c-0.3,1.1,0.3,2,1.2,3.4c0-0.8-0.8-2.2-1-3.5c0.4-0.4,0.7-0.7,1.1-1.1c-0.4,1.2,0.4,2.3,1.6,3.9
			c0-0.9-1-2.5-1.4-4c0.1-0.1,0.3-0.2,0.4-0.4c0.3-0.2,0.5-0.4,0.8-0.7c-0.4,1.3,0.5,2.5,1.7,4.2c0-1-1.1-2.7-1.5-4.3
			c0.4-0.4,0.9-0.7,1.3-1.1c-0.3,1.3,0.5,2.6,1.7,4.5c0-1.1-1-3-1.3-4.7c0.4-0.3,0.7-0.6,1.1-0.9c-0.4,1.4,0.5,2.9,1.8,4.8
			c0-1.1-1.1-3.2-1.5-5.1c0.1-0.1,0.2-0.1,0.3-0.2c0.5-0.4,1-0.7,1.5-1.1c-0.4,1.5,0.4,3.2,1.6,5.5c0.1-1.2-0.9-3.7-1.1-5.8
			c0.6-0.4,1.1-0.8,1.7-1.2c-0.7,1.6,0.3,3.6,1.6,6.2c0.2-1.4-1-4.1-1.3-6.5c0.2-0.1,0.3-0.2,0.5-0.3c0.5-0.3,1.1-0.7,1.6-1
			c-0.8,1.7,0.1,3.9,1.4,6.8c0.3-1.5-0.8-4.5-1-7.1c0.6-0.3,1.2-0.7,1.8-1c-1,1.9,0,4.3,1.4,7.5c0.3-1.6-0.9-4.9-1.1-7.7
			c0.2-0.1,0.4-0.2,0.6-0.3c0.2-0.1,0.2-0.3,0.2-0.5s-0.3-0.2-0.5-0.2c-0.2,0.1-0.4,0.2-0.6,0.3c-2.6-1.1-5.4-3.4-7-3.7
			c2.6,2.4,4.4,4.2,6.5,3.9c-0.6,0.3-1.3,0.7-1.9,1.1c-2.4-1-5-3.1-6.4-3.4c2.4,2.2,4.1,3.9,6,3.6c-0.5,0.3-0.9,0.6-1.4,0.9
			c-0.3,0.2-0.5,0.3-0.8,0.5c-2.2-1-4.4-3.1-5.8-3.4c2.1,2.3,3.6,3.9,5.5,3.6c-0.6,0.4-1.2,0.8-1.8,1.3c-2-0.9-4-2.9-5.3-3.2
			c1.9,2.1,3.3,3.5,5.1,3.3c-0.5,0.4-1,0.8-1.5,1.1c-0.1,0.1-0.2,0.2-0.4,0.3c-1.7-1-3.4-2.9-4.6-3.3c1.6,2.1,2.7,3.5,4.5,3.3
			c-0.5,0.4-0.9,0.8-1.4,1.1c-1.6-0.9-3.2-2.7-4.2-3c1.5,1.9,2.5,3.2,4.1,3.1c-0.5,0.4-1,0.8-1.5,1.3c-1.4-0.9-2.7-2.6-3.6-2.9
			c1.2,1.8,2.1,3,3.5,3c-0.3,0.2-0.5,0.5-0.8,0.7c-0.1,0.1-0.3,0.3-0.4,0.4c-1.3-0.9-2.5-2.4-3.3-2.7c1.1,1.6,1.9,2.8,3.3,2.8
			c-0.4,0.4-0.8,0.8-1.2,1.2c-1.2-0.7-2.3-2-3.1-2.2c1,1.4,1.7,2.4,3,2.3c-0.1,0.1-0.1,0.1-0.2,0.2c-0.3,0.3-0.6,0.6-0.8,0.9
			c-1.1-0.6-2.1-1.8-2.8-2c0.9,1.3,1.6,2.2,2.7,2.1c-0.3,0.4-0.6,0.7-0.9,1.1c0,0.1,0,0.1,0,0.1C104.9,130.4,105,130.4,105,130.3z"
			/>
		<path class="st14" d="M89.4,149.2c0.5-0.5,1.1-1,1.6-1.5c2.1,0.7,4.4,2.2,5.7,2.4c-2.2-1.8-3.8-3-5.5-2.6c0.4-0.4,0.9-0.9,1.3-1.3
			c0.1-0.1,0.2-0.2,0.3-0.3c1.9,0.7,3.8,2.4,5,2.6c-1.9-1.8-3.2-3.1-4.9-2.6c0.4-0.4,0.8-0.9,1.2-1.3c1.7,0.7,3.5,2.2,4.6,2.4
			c-1.7-1.7-2.9-2.8-4.5-2.4c0.4-0.5,0.8-1,1.2-1.5c1.5,0.7,3.1,2.1,4,2.4c-1.5-1.6-2.5-2.7-3.9-2.5c0.2-0.3,0.4-0.5,0.7-0.8
			c0.1-0.2,0.3-0.3,0.4-0.5c1.4,0.7,2.8,2,3.7,2.2c-1.4-1.5-2.3-2.5-3.6-2.3c0.3-0.4,0.7-0.9,1-1.3c1.3,0.5,2.5,1.6,3.4,1.8
			c-1.2-1.2-2.1-2.1-3.3-1.8c0.1-0.1,0.1-0.2,0.2-0.3c0.2-0.3,0.5-0.7,0.7-1c1.2,0.5,2.3,1.5,3.1,1.6c-1.1-1.1-1.9-1.9-3-1.7
			c0.3-0.4,0.5-0.8,0.7-1.3c0-0.1,0-0.1,0-0.1c-0.1,0-0.1,0-0.1,0c-0.2,0.4-0.5,0.8-0.7,1.2c0.1-1-0.6-1.7-1.6-2.8
			c0.1,0.7,1,1.9,1.4,3c-0.2,0.3-0.4,0.6-0.6,0.9c-0.1,0.1-0.1,0.1-0.2,0.2c0.2-1.1-0.6-2-1.7-3.1c0.1,0.8,1.1,2.1,1.5,3.3
			c-0.3,0.4-0.6,0.8-0.9,1.2c0.2-1.2-0.8-2.2-2.1-3.6c0.2,0.9,1.4,2.4,2,3.8c-0.1,0.1-0.2,0.3-0.3,0.4c-0.2,0.3-0.4,0.5-0.7,0.8
			c0.2-1.3-0.8-2.4-2.3-3.9c0.2,1,1.5,2.6,2.1,4.1c-0.4,0.4-0.8,0.9-1.1,1.3c0.1-1.3-0.9-2.5-2.3-4.2c0.1,1,1.4,2.8,2,4.5
			c-0.3,0.3-0.6,0.7-0.9,1c0.1-1.5-1-2.8-2.5-4.5c0.1,1.1,1.5,3,2.2,4.8c-0.1,0.1-0.2,0.2-0.3,0.3c-0.4,0.5-0.9,0.9-1.3,1.3
			c0.2-1.5-0.9-3.1-2.4-5.2c0,1.2,1.4,3.5,2,5.5c-0.5,0.5-1,1-1.5,1.4c0.5-1.7-0.8-3.5-2.5-5.9c0,1.4,1.6,3.9,2.2,6.2
			c-0.1,0.1-0.3,0.3-0.5,0.4c-0.5,0.4-1,0.8-1.5,1.2c0.6-1.8-0.7-3.8-2.4-6.5c0,1.5,1.4,4.3,2,6.8c0.3,0,0.7,0.1,1,0.1
			c0.4-0.3,0.8-0.7,1.2-1.1c0.2-0.2,0.5-0.4,0.7-0.6c1.6,0.5,3.3,1.5,4.6,2c0.3,0,0.7,0,1,0C92.6,149.9,91,148.8,89.4,149.2z"/>
		<path class="st14" d="M82,145.2c0,1.3,1,3.5,1.7,5.7c0.3,0,0.7,0.1,1,0.1C84.6,149.3,83.5,147.5,82,145.2z"/>
		<path class="st14" d="M87.3,151.1c0.7,0,1.3,0.1,2,0.1C88.6,151.1,87.9,151,87.3,151.1z"/>
		<path class="st14" d="M126.1,148.4c0-0.1,0.1-0.2,0.1-0.2c-0.2-0.1-0.3-0.1-0.5-0.2c-0.1,0-0.2-0.1-0.2-0.1c0.4-0.1,0.7-0.2,1-0.5
			c0.1-0.3,0.2-0.7,0.3-1.1c-0.5,0.5-1,1.1-1.6,1.5c-0.5-0.2-0.9-0.4-1.4-0.5c1.3-0.2,1.9-1.4,2.9-3.1c-0.8,0.4-1.9,2-3.1,3
			c-0.2-0.1-0.3-0.1-0.5-0.2c-0.3-0.1-0.6-0.3-0.9-0.4c1.3-0.2,2.1-1.5,3.1-3.3c-0.9,0.5-2,2.2-3.3,3.2c-0.5-0.2-1.1-0.5-1.6-0.7
			c1.3-0.3,2.2-1.6,3.3-3.4c-1,0.4-2.3,2.2-3.7,3.2c-0.4-0.2-0.8-0.4-1.2-0.6c1.5-0.3,2.4-1.7,3.6-3.7c-1,0.5-2.5,2.3-4,3.5
			c-0.1-0.1-0.2-0.1-0.3-0.2c-0.6-0.3-1.1-0.6-1.7-0.9c1.5-0.2,2.7-1.7,4.2-3.8c-1.2,0.4-2.9,2.4-4.7,3.5c-0.6-0.3-1.2-0.7-1.8-1.1
			c1.8-0.1,3.1-1.8,4.9-4.1c-1.3,0.4-3.3,2.7-5.3,3.9c-0.2-0.1-0.3-0.2-0.5-0.3c-0.5-0.3-1.1-0.7-1.6-1.1c1.9,0,3.5-1.7,5.6-4.2
			c-1.4,0.4-3.7,2.7-6,3.9c-0.6-0.4-1.1-0.8-1.7-1.2c2.2,0.1,3.9-1.8,6.2-4.5c-1.6,0.4-4.1,2.9-6.5,4.3c-0.2-0.1-0.3-0.3-0.5-0.4
			c-0.1-0.1-0.4-0.1-0.5,0.1c-0.1,0.1-0.1,0.4,0.1,0.5c0.2,0.1,0.4,0.3,0.5,0.4c0.2,2.8-0.7,6.3-0.3,7.9c1.1-3.3,1.9-5.7,0.8-7.5
			c0.6,0.4,1.2,0.8,1.8,1.3c0.1,2.6-0.7,5.8-0.3,7.3c1-3.1,1.7-5.3,0.7-7c0.5,0.3,0.9,0.6,1.4,0.9c0.3,0.2,0.5,0.3,0.8,0.5
			c0,2.4-0.9,5.3-0.6,6.7c1.1-2.9,1.9-4.9,0.9-6.5c0.6,0.4,1.3,0.7,1.9,1.1c0,2.2-0.9,4.9-0.6,6.1c1-2.6,1.8-4.5,0.8-6
			c0.5,0.3,1.1,0.6,1.7,0.9c0.1,0.1,0.3,0.1,0.4,0.2c-0.1,2-1.1,4.3-1,5.5c1.2-2.3,2-4,1.1-5.5c0.5,0.3,1.1,0.5,1.6,0.8
			c-0.1,1.8-1,3.8-0.9,5c0,0,0,0,0.1,0c1.1-2.1,1.8-3.5,0.9-4.9c0.6,0.3,1.2,0.5,1.8,0.8c-0.2,1.3-0.8,2.8-1,3.9
			c0.1,0,0.2,0,0.4-0.1c0.9-1.5,1.4-2.6,0.8-3.8c0.3,0.1,0.7,0.3,1,0.4c0.2,0.1,0.4,0.1,0.6,0.2c-0.1,0.9-0.5,1.9-0.7,2.8
			c0.2-0.1,0.4-0.1,0.6-0.2c0.5-0.9,0.6-1.8,0.3-2.6c0.5,0.2,1,0.4,1.6,0.6c0,0.5-0.1,0.9-0.3,1.4c0.2-0.1,0.4-0.2,0.6-0.3
			c0-0.3-0.1-0.7-0.3-1c0.1,0,0.2,0.1,0.3,0.1C125.7,148.3,125.9,148.3,126.1,148.4z"/>
		<path class="st14" d="M74.8,120.6C74.8,120.6,74.8,120.6,74.8,120.6c0.2-0.1,0.3-0.2,0.3-0.4c-0.1-0.2-0.2-0.3-0.4-0.2
			c-0.2,0.1-0.4,0.1-0.7,0.2c-2.4-1.5-4.7-4.3-6.2-4.9c2.1,2.9,3.5,4.9,5.6,5.1c-0.7,0.2-1.4,0.5-2.1,0.7c-1.6-1.1-3.2-2.7-4.5-3.7
			c0,0.3,0,0.6,0,0.9c1.3,1.7,2.5,2.9,4,3c-0.5,0.2-1,0.4-1.5,0.6c-0.3,0.1-0.6,0.2-0.9,0.4c-0.5-0.4-1.1-0.9-1.6-1.4
			c0,0.4,0,0.7,0,1.1c0.4,0.2,0.9,0.4,1.3,0.4c-0.5,0.2-0.9,0.4-1.4,0.6c0,0.2,0,0.4,0,0.6c0.6-0.3,1.2-0.5,1.8-0.8
			c-1,1.5-0.4,3.5,0.4,6.4c0.4-1.3-0.2-4.2,0-6.6c0.2-0.1,0.4-0.2,0.6-0.2c0.6-0.2,1.2-0.4,1.8-0.7c-1.1,1.6-0.6,3.8,0.1,7
			c0.5-1.4,0-4.6,0.4-7.1c0.7-0.2,1.3-0.4,2-0.6c-1.4,1.7-0.8,4.2,0,7.7c0.6-1.5,0-5,0.4-7.8C74.4,120.7,74.6,120.7,74.8,120.6z"/>
		<path class="st14" d="M66.6,128.9c0,0.2,0.1,0.3,0.1,0.5c0.2-0.7,0.1-2.1,0-3.5C66.7,127,66.6,128,66.6,128.9z"/>
		<path class="st14" d="M71.3,148.4c-0.2-0.3-0.3-0.5-0.5-0.8c1.1-2.1,3.2-4.3,3.6-5.7c-2.3,2.1-3.9,3.5-3.8,5.4
			c-0.4-0.6-0.8-1.2-1.2-1.8c1-2,3-4,3.3-5.2c-2.1,1.9-3.6,3.2-3.5,5c-0.4-0.5-0.7-1-1.1-1.5c-0.1-0.1-0.2-0.2-0.3-0.4
			c1-1.7,3-3.4,3.4-4.5c-2.1,1.5-3.6,2.6-3.5,4.4c-0.4-0.5-0.7-1-1.1-1.4c1-1.6,2.7-3.1,3.1-4.1c-1.9,1.4-3.3,2.4-3.2,4
			c-0.3-0.3-0.5-0.7-0.8-1c0,0.2,0,0.4,0,0.6c0.2,0.2,0.3,0.4,0.5,0.6c-0.2,0-0.3-0.1-0.5-0.1c0,0.2,0,0.4,0,0.6
			c0.3-0.1,0.5-0.1,0.8-0.2c0.3,0.4,0.6,0.7,0.8,1.1c-0.5-0.1-1.1-0.1-1.7,0c0,0.3,0,0.6,0,0.8c0.6-0.2,1.3-0.4,1.9-0.5
			c0.1,0.1,0.1,0.2,0.2,0.3c0.4,0.5,0.7,1,1.1,1.5c-0.9-0.3-2-0.1-3.3,0.4c0,0.2,0,0.5,0,0.7c1.1-0.3,2.4-0.6,3.6-0.7
			c0.4,0.6,0.8,1.2,1.1,1.8c-1.3-0.6-2.7-0.1-4.6,0.7c0,0.2,0,0.4,0,0.5c0.1,0,0.2,0,0.3,0c1.4-0.3,3-0.8,4.5-0.9
			c0.1,0.2,0.2,0.3,0.3,0.5c0.2,0.3,0.4,0.7,0.6,1c0.3,0,0.5,0.1,0.7,0.1C71.9,149.3,71.6,148.9,71.3,148.4z"/>
		<path class="st14" d="M66.1,136.3c0,0.2,0,0.4,0,0.6c0.4-0.4,0.8-0.9,0.9-1.2C66.6,135.9,66.3,136.1,66.1,136.3z"/>
		<path class="st14" d="M73.9,150c0.4,0,0.8,0.1,1.2,0.1c1.1-1.7,2.2-3.3,2.4-4.3C75.9,147.4,74.6,148.7,73.9,150z"/>
		<path class="st14" d="M72.6,149.9c1.1-2.2,3.1-4.5,3.3-6c-2.3,2.3-4,4-3.8,5.9C72.3,149.8,72.4,149.8,72.6,149.9z"/>
		<path class="st14" d="M65.9,138.7c0,0.4-0.1,0.7-0.1,1.1c1-1.1,2.2-2.2,2.6-2.9C67.3,137.5,66.5,138.1,65.9,138.7z"/>
	</g>
	<path class="st8" d="M158.4,106.2l5.9-6.2l8.2,11.5c0,0-6.9,4.9-13.5,4.7l-0.8-1.7C157,111.7,157.1,108.6,158.4,106.2z"/>
	<path class="st8" d="M173.8,100.5l2.3,4.3c1.1,2,0.3,4.4-1.7,5.5l-1.9,1l-8.2-11.5l4.7-1.4C170.9,98,172.9,98.8,173.8,100.5z"/>
	<path class="st8" d="M127.3,83.8l0.5,2.5l0.6,2.7c0.4,1.8,0.8,3.6,1.2,5.4c0.9,3.6,1.9,7.1,3,10.4c1.2,3.4,2.5,6.6,3.9,9.5
		c1.5,2.8,3.2,5.3,4.9,6.8l-2.8-1.4c-0.8-0.1-1,0.1-0.5,0.1c0.4,0,1.2-0.2,2-0.6c1.7-0.7,3.7-1.9,5.7-3.3c2-1.4,4-2.9,6-4.5
		c2-1.6,4-3.3,6-4.9l0.2-0.2c2-1.6,5-1.3,6.6,0.7c1.2,1.5,1.4,3.5,0.5,5.1c-1.4,2.7-2.8,5-4.5,7.4c-1.6,2.4-3.4,4.6-5.4,6.9
		c-2.1,2.2-4.3,4.4-7.2,6.4c-1.5,1-3.1,1.9-5.3,2.7c-1.1,0.4-2.3,0.7-3.8,0.8c-1.4,0.1-3.1,0.1-4.7-0.3c-0.9-0.2-1.8-0.6-2.5-1.2
		l-0.3-0.2c-4.6-3.4-7.7-7.4-10.1-11.3c-1.2-2-2.3-4-3.3-6c-0.9-2-1.8-4-2.6-6c-1.6-4-2.8-8.1-3.9-12.2c-0.5-2-1-4.1-1.4-6.1
		c-0.2-1-0.4-2.1-0.6-3.1c-0.2-1.1-0.3-2-0.5-3.3c-0.7-5.1,2.9-9.8,8-10.5c4.9-0.7,9.5,2.6,10.4,7.4L127.3,83.8z"/>
	<path class="st9" d="M114.5,69.8c7.7,0.8,13.9,5.9,18.3,22.3c-3.3,4.6-24.3,14.7-24.3,14.7S96.8,68,114.5,69.8z"/>
</g>
</svg>
