<svg width="637" height="462" viewBox="0 0 637 462" fill="none" xmlns="http://www.w3.org/2000/svg">
<rect x="9" y="7" width="628" height="455" rx="15" fill="#012C37"/>
<rect x="1" y="1" width="624" height="448" rx="14" fill="white"/>
<path d="M154.979 73.125C156.612 73.125 158.087 73.5083 159.404 74.275C160.737 75.0417 161.779 76.1167 162.529 77.5C163.296 78.8667 163.679 80.4167 163.679 82.15C163.679 83.8833 163.296 85.4417 162.529 86.825C161.779 88.1917 160.737 89.2667 159.404 90.05C158.087 90.8167 156.612 91.2 154.979 91.2C153.329 91.2 151.837 90.8167 150.504 90.05C149.187 89.2667 148.146 88.1917 147.379 86.825C146.612 85.4417 146.229 83.8833 146.229 82.15C146.229 80.4167 146.612 78.8667 147.379 77.5C148.146 76.1167 149.187 75.0417 150.504 74.275C151.837 73.5083 153.329 73.125 154.979 73.125ZM154.979 75.775C153.846 75.775 152.837 76.0333 151.954 76.55C151.071 77.0667 150.379 77.8083 149.879 78.775C149.396 79.7417 149.154 80.8667 149.154 82.15C149.154 83.4333 149.396 84.5583 149.879 85.525C150.379 86.4917 151.071 87.2333 151.954 87.75C152.837 88.2667 153.846 88.525 154.979 88.525C156.096 88.525 157.087 88.2667 157.954 87.75C158.837 87.2333 159.521 86.4917 160.004 85.525C160.504 84.5583 160.754 83.4333 160.754 82.15C160.754 80.8667 160.504 79.7417 160.004 78.775C159.521 77.8083 158.837 77.0667 157.954 76.55C157.087 76.0333 156.096 75.775 154.979 75.775ZM172.305 88.05L176.205 77.225H179.255L174.005 91H170.555L165.305 77.225H168.355L172.305 88.05ZM194.252 83.45C194.252 83.9167 194.219 84.325 194.152 84.675H183.552C183.602 86.0917 183.994 87.1417 184.727 87.825C185.461 88.5083 186.369 88.85 187.452 88.85C188.402 88.85 189.202 88.6083 189.852 88.125C190.519 87.6417 190.927 87 191.077 86.2H194.127C193.944 87.1667 193.561 88.025 192.977 88.775C192.394 89.525 191.636 90.1167 190.702 90.55C189.769 90.9667 188.727 91.175 187.577 91.175C186.244 91.175 185.061 90.8917 184.027 90.325C183.011 89.7583 182.211 88.9417 181.627 87.875C181.044 86.8083 180.752 85.55 180.752 84.1C180.752 82.6667 181.044 81.4167 181.627 80.35C182.211 79.2833 183.011 78.4667 184.027 77.9C185.061 77.3333 186.244 77.05 187.577 77.05C188.927 77.05 190.102 77.3333 191.102 77.9C192.119 78.45 192.894 79.2167 193.427 80.2C193.977 81.1667 194.252 82.25 194.252 83.45ZM191.377 83.375C191.411 82.475 191.252 81.725 190.902 81.125C190.569 80.5083 190.102 80.0583 189.502 79.775C188.919 79.475 188.277 79.325 187.577 79.325C186.461 79.325 185.527 79.6667 184.777 80.35C184.027 81.0333 183.619 82.0417 183.552 83.375H191.377ZM199.954 79.925C200.421 79.025 201.087 78.3167 201.954 77.8C202.821 77.2667 203.821 77 204.954 77V80.1H204.104C202.854 80.1 201.846 80.4083 201.079 81.025C200.329 81.625 199.954 82.625 199.954 84.025V91H197.104V77.225H199.954V79.925ZM212.714 77.05C213.964 77.05 215.031 77.3583 215.914 77.975C216.798 78.5917 217.423 79.4083 217.789 80.425V77.225H220.639V91H217.789V87.8C217.423 88.8167 216.798 89.6333 215.914 90.25C215.031 90.8667 213.964 91.175 212.714 91.175C211.514 91.175 210.439 90.8917 209.489 90.325C208.556 89.7583 207.823 88.9417 207.289 87.875C206.756 86.8083 206.489 85.55 206.489 84.1C206.489 82.6667 206.756 81.4167 207.289 80.35C207.823 79.2833 208.556 78.4667 209.489 77.9C210.439 77.3333 211.514 77.05 212.714 77.05ZM213.589 79.55C212.323 79.55 211.306 79.9583 210.539 80.775C209.789 81.575 209.414 82.6833 209.414 84.1C209.414 85.5167 209.789 86.6333 210.539 87.45C211.306 88.25 212.323 88.65 213.589 88.65C214.389 88.65 215.106 88.4667 215.739 88.1C216.373 87.7167 216.873 87.1833 217.239 86.5C217.606 85.8167 217.789 85.0167 217.789 84.1C217.789 83.2 217.606 82.4083 217.239 81.725C216.873 81.025 216.373 80.4917 215.739 80.125C215.106 79.7417 214.389 79.55 213.589 79.55ZM227.01 72.5V91H224.16V72.5H227.01ZM233.408 72.5V91H230.558V72.5H233.408Z" fill="black"/>
<path fill-rule="evenodd" clip-rule="evenodd" d="M287.525 89.1289L298.925 96L295.9 83.05L305.971 74.3368L292.708 73.2132L287.525 61L282.342 73.2132L269.079 74.3368L279.151 83.05L276.125 96L287.525 89.1289Z" fill="#E9AD09"/>
<path fill-rule="evenodd" clip-rule="evenodd" d="M331.417 89.1289L342.816 96L339.791 83.05L349.863 74.3368L336.6 73.2132L331.417 61L326.233 73.2132L312.971 74.3368L323.042 83.05L320.017 96L331.417 89.1289Z" fill="#E9AD09"/>
<path fill-rule="evenodd" clip-rule="evenodd" d="M393.421 74.3368L380.176 73.1947L375 61L369.824 73.2132L356.579 74.3368L366.637 83.05L363.616 96L375 89.1289L386.384 96L383.382 83.05L393.421 74.3368ZM375 85.6836V68.552L378.15 75.9941L386.219 76.6941L380.103 81.9994L381.945 89.8836L375 85.6836Z" fill="#E9AD09"/>
<path fill-rule="evenodd" clip-rule="evenodd" d="M437.171 74.3368L423.926 73.1947L418.75 61L413.574 73.2132L400.329 74.3368L410.387 83.05L407.366 96L418.75 89.1289L430.134 96L427.132 83.05L437.171 74.3368ZM418.75 85.6836L411.823 89.8652L413.665 81.9809L407.55 76.6757L415.618 75.9757L418.75 68.552L421.9 75.9941L429.968 76.6941L423.852 81.9994L425.694 89.8836L418.75 85.6836Z" fill="#595959"/>
<path fill-rule="evenodd" clip-rule="evenodd" d="M480.921 74.3368L467.676 73.1947L462.5 61L457.324 73.2132L444.079 74.3368L454.137 83.05L451.116 96L462.5 89.1289L473.884 96L470.882 83.05L480.921 74.3368ZM462.5 85.6836L455.573 89.8652L457.415 81.9809L451.3 76.6757L459.368 75.9757L462.5 68.552L465.65 75.9941L473.718 76.6941L467.602 81.9994L469.444 89.8836L462.5 85.6836Z" fill="#595959"/>
<line x1="88" y1="135.625" x2="538" y2="135.625" stroke="#C4C4C4" stroke-width="0.75"/>
<path d="M107.343 179.174V194H104.949V179.174H107.343ZM116.157 191.921V194H114.687C113.455 194 112.517 193.706 111.873 193.118C111.243 192.516 110.928 191.522 110.928 190.136V184.466H109.269V182.429H110.928V179.552H113.343V182.429H116.136V184.466H113.343V190.178C113.343 190.836 113.462 191.291 113.7 191.543C113.952 191.795 114.386 191.921 115.002 191.921H116.157ZM129.252 187.658C129.252 188.05 129.224 188.393 129.168 188.687H120.264C120.306 189.877 120.635 190.759 121.251 191.333C121.867 191.907 122.63 192.194 123.54 192.194C124.338 192.194 125.01 191.991 125.556 191.585C126.116 191.179 126.459 190.64 126.585 189.968H129.147C128.993 190.78 128.671 191.501 128.181 192.131C127.691 192.761 127.054 193.258 126.27 193.622C125.486 193.972 124.611 194.147 123.645 194.147C122.525 194.147 121.531 193.909 120.663 193.433C119.809 192.957 119.137 192.271 118.647 191.375C118.157 190.479 117.912 189.422 117.912 188.204C117.912 187 118.157 185.95 118.647 185.054C119.137 184.158 119.809 183.472 120.663 182.996C121.531 182.52 122.525 182.282 123.645 182.282C124.779 182.282 125.766 182.52 126.606 182.996C127.46 183.458 128.111 184.102 128.559 184.928C129.021 185.74 129.252 186.65 129.252 187.658ZM126.837 187.595C126.865 186.839 126.732 186.209 126.438 185.705C126.158 185.187 125.766 184.809 125.262 184.571C124.772 184.319 124.233 184.193 123.645 184.193C122.707 184.193 121.923 184.48 121.293 185.054C120.663 185.628 120.32 186.475 120.264 187.595H126.837ZM146.132 182.24C147.504 182.24 148.596 182.674 149.408 183.542C150.234 184.41 150.647 185.649 150.647 187.259V194H148.253V187.511C148.253 186.503 148.001 185.726 147.497 185.18C146.993 184.62 146.3 184.34 145.418 184.34C144.48 184.34 143.731 184.641 143.171 185.243C142.625 185.831 142.352 186.699 142.352 187.847V194H139.958V187.511C139.958 186.503 139.706 185.726 139.202 185.18C138.698 184.62 138.005 184.34 137.123 184.34C136.185 184.34 135.436 184.641 134.876 185.243C134.33 185.831 134.057 186.699 134.057 187.847V194H131.663V182.429H134.057V184.844C134.351 184.004 134.841 183.36 135.527 182.912C136.213 182.464 137.018 182.24 137.942 182.24C138.908 182.24 139.741 182.478 140.441 182.954C141.155 183.43 141.673 184.116 141.995 185.012C142.331 184.144 142.87 183.465 143.612 182.975C144.354 182.485 145.194 182.24 146.132 182.24ZM153.206 179.069C153.206 178.663 153.346 178.327 153.626 178.061C153.906 177.795 154.277 177.662 154.739 177.662C155.201 177.662 155.572 177.795 155.852 178.061C156.146 178.327 156.293 178.663 156.293 179.069C156.293 179.475 156.146 179.804 155.852 180.056C155.572 180.308 155.201 180.434 154.739 180.434C154.277 180.434 153.906 180.308 153.626 180.056C153.346 179.804 153.206 179.475 153.206 179.069ZM155.936 182.429V194H153.542V182.429H155.936ZM160.655 191.984H166.598V194H158.009V192.089L163.637 184.445H158.156V182.429H166.388V184.34L160.655 191.984ZM179.424 187.658C179.424 188.05 179.396 188.393 179.34 188.687H170.436C170.478 189.877 170.807 190.759 171.423 191.333C172.039 191.907 172.802 192.194 173.712 192.194C174.51 192.194 175.182 191.991 175.728 191.585C176.288 191.179 176.631 190.64 176.757 189.968H179.319C179.165 190.78 178.843 191.501 178.353 192.131C177.863 192.761 177.226 193.258 176.442 193.622C175.658 193.972 174.783 194.147 173.817 194.147C172.697 194.147 171.703 193.909 170.835 193.433C169.981 192.957 169.309 192.271 168.819 191.375C168.329 190.479 168.084 189.422 168.084 188.204C168.084 187 168.329 185.95 168.819 185.054C169.309 184.158 169.981 183.472 170.835 182.996C171.703 182.52 172.697 182.282 173.817 182.282C174.951 182.282 175.938 182.52 176.778 182.996C177.632 183.458 178.283 184.102 178.731 184.928C179.193 185.74 179.424 186.65 179.424 187.658ZM177.009 187.595C177.037 186.839 176.904 186.209 176.61 185.705C176.33 185.187 175.938 184.809 175.434 184.571C174.944 184.319 174.405 184.193 173.817 184.193C172.879 184.193 172.095 184.48 171.465 185.054C170.835 185.628 170.492 186.475 170.436 187.595H177.009ZM186.477 182.282C187.527 182.282 188.423 182.541 189.165 183.059C189.907 183.577 190.425 184.263 190.719 185.117V178.46H193.134V194H190.719V191.312C190.425 192.166 189.907 192.852 189.165 193.37C188.423 193.888 187.527 194.147 186.477 194.147C185.469 194.147 184.566 193.909 183.768 193.433C182.984 192.957 182.368 192.271 181.92 191.375C181.472 190.479 181.248 189.422 181.248 188.204C181.248 187 181.472 185.95 181.92 185.054C182.368 184.158 182.984 183.472 183.768 182.996C184.566 182.52 185.469 182.282 186.477 182.282ZM187.212 184.382C186.148 184.382 185.294 184.725 184.65 185.411C184.02 186.083 183.705 187.014 183.705 188.204C183.705 189.394 184.02 190.332 184.65 191.018C185.294 191.69 186.148 192.026 187.212 192.026C187.884 192.026 188.486 191.872 189.018 191.564C189.55 191.242 189.97 190.794 190.278 190.22C190.586 189.646 190.74 188.974 190.74 188.204C190.74 187.448 190.586 186.783 190.278 186.209C189.97 185.621 189.55 185.173 189.018 184.865C188.486 184.543 187.884 184.382 187.212 184.382ZM207.764 182.282C208.772 182.282 209.668 182.52 210.452 182.996C211.25 183.472 211.873 184.158 212.321 185.054C212.769 185.95 212.993 187 212.993 188.204C212.993 189.422 212.769 190.479 212.321 191.375C211.873 192.271 211.25 192.957 210.452 193.433C209.668 193.909 208.772 194.147 207.764 194.147C206.714 194.147 205.818 193.888 205.076 193.37C204.334 192.852 203.816 192.166 203.522 191.312V194H201.128V178.46H203.522V185.117C203.816 184.263 204.334 183.577 205.076 183.059C205.818 182.541 206.714 182.282 207.764 182.282ZM207.029 184.382C206.357 184.382 205.755 184.543 205.223 184.865C204.691 185.173 204.271 185.621 203.963 186.209C203.655 186.783 203.501 187.448 203.501 188.204C203.501 188.974 203.655 189.646 203.963 190.22C204.271 190.794 204.691 191.242 205.223 191.564C205.755 191.872 206.357 192.026 207.029 192.026C208.093 192.026 208.947 191.69 209.591 191.018C210.235 190.332 210.557 189.394 210.557 188.204C210.557 187.028 210.235 186.097 209.591 185.411C208.947 184.725 208.093 184.382 207.029 184.382ZM215.063 179.069C215.063 178.663 215.203 178.327 215.483 178.061C215.763 177.795 216.134 177.662 216.596 177.662C217.058 177.662 217.429 177.795 217.709 178.061C218.003 178.327 218.15 178.663 218.15 179.069C218.15 179.475 218.003 179.804 217.709 180.056C217.429 180.308 217.058 180.434 216.596 180.434C216.134 180.434 215.763 180.308 215.483 180.056C215.203 179.804 215.063 179.475 215.063 179.069ZM217.793 182.429V194H215.399V182.429H217.793ZM223.184 178.46V194H220.79V178.46H223.184ZM228.575 178.46V194H226.181V178.46H228.575Z" fill="black"/>
<path d="M358.015 194H356.104L348.418 182.303V194H346.507V179.195H348.418L356.104 190.913V179.195H358.015V194ZM366.417 182.324C367.523 182.324 368.51 182.562 369.378 183.038C370.26 183.514 370.946 184.2 371.436 185.096C371.94 185.992 372.192 187.042 372.192 188.246C372.192 189.45 371.94 190.5 371.436 191.396C370.946 192.278 370.26 192.957 369.378 193.433C368.51 193.909 367.523 194.147 366.417 194.147C365.311 194.147 364.317 193.909 363.435 193.433C362.567 192.957 361.881 192.278 361.377 191.396C360.873 190.5 360.621 189.45 360.621 188.246C360.621 187.042 360.873 185.992 361.377 185.096C361.881 184.2 362.567 183.514 363.435 183.038C364.317 182.562 365.311 182.324 366.417 182.324ZM366.417 184.004C365.731 184.004 365.094 184.158 364.506 184.466C363.932 184.774 363.463 185.25 363.099 185.894C362.749 186.524 362.574 187.308 362.574 188.246C362.574 189.17 362.749 189.954 363.099 190.598C363.463 191.228 363.932 191.697 364.506 192.005C365.094 192.313 365.731 192.467 366.417 192.467C367.103 192.467 367.733 192.313 368.307 192.005C368.895 191.697 369.364 191.228 369.714 190.598C370.078 189.954 370.26 189.17 370.26 188.246C370.26 187.308 370.078 186.524 369.714 185.894C369.364 185.25 368.895 184.774 368.307 184.466C367.733 184.158 367.103 184.004 366.417 184.004ZM380.284 192.32V194H378.856C377.68 194 376.798 193.72 376.21 193.16C375.636 192.6 375.349 191.662 375.349 190.346V184.13H373.627V182.471H375.349V179.594H377.281V182.471H380.263V184.13H377.281V190.388C377.281 191.13 377.414 191.641 377.68 191.921C377.96 192.187 378.436 192.32 379.108 192.32H380.284ZM394.367 182.324C395.389 182.324 396.299 182.562 397.097 183.038C397.895 183.514 398.518 184.2 398.966 185.096C399.428 185.992 399.659 187.042 399.659 188.246C399.659 189.45 399.428 190.5 398.966 191.396C398.518 192.278 397.895 192.957 397.097 193.433C396.299 193.909 395.389 194.147 394.367 194.147C393.247 194.147 392.295 193.867 391.511 193.307C390.741 192.733 390.209 191.984 389.915 191.06V199.46H388.004V182.471H389.915V185.411C390.209 184.487 390.741 183.745 391.511 183.185C392.295 182.611 393.247 182.324 394.367 182.324ZM393.821 184.025C393.079 184.025 392.407 184.2 391.805 184.55C391.203 184.886 390.734 185.376 390.398 186.02C390.062 186.664 389.894 187.406 389.894 188.246C389.894 189.086 390.062 189.828 390.398 190.472C390.734 191.102 391.203 191.592 391.805 191.942C392.407 192.292 393.079 192.467 393.821 192.467C395.011 192.467 395.956 192.096 396.656 191.354C397.37 190.598 397.727 189.562 397.727 188.246C397.727 186.93 397.37 185.901 396.656 185.159C395.956 184.403 395.011 184.025 393.821 184.025ZM404.166 184.802C404.544 184.004 405.097 183.388 405.825 182.954C406.553 182.506 407.421 182.282 408.429 182.282V184.361H407.841C406.763 184.361 405.881 184.641 405.195 185.201C404.509 185.747 404.166 186.657 404.166 187.931V194H402.255V182.471H404.166V184.802ZM415.643 182.324C416.749 182.324 417.736 182.562 418.604 183.038C419.486 183.514 420.172 184.2 420.662 185.096C421.166 185.992 421.418 187.042 421.418 188.246C421.418 189.45 421.166 190.5 420.662 191.396C420.172 192.278 419.486 192.957 418.604 193.433C417.736 193.909 416.749 194.147 415.643 194.147C414.537 194.147 413.543 193.909 412.661 193.433C411.793 192.957 411.107 192.278 410.603 191.396C410.099 190.5 409.847 189.45 409.847 188.246C409.847 187.042 410.099 185.992 410.603 185.096C411.107 184.2 411.793 183.514 412.661 183.038C413.543 182.562 414.537 182.324 415.643 182.324ZM415.643 184.004C414.957 184.004 414.32 184.158 413.732 184.466C413.158 184.774 412.689 185.25 412.325 185.894C411.975 186.524 411.8 187.308 411.8 188.246C411.8 189.17 411.975 189.954 412.325 190.598C412.689 191.228 413.158 191.697 413.732 192.005C414.32 192.313 414.957 192.467 415.643 192.467C416.329 192.467 416.959 192.313 417.533 192.005C418.121 191.697 418.59 191.228 418.94 190.598C419.304 189.954 419.486 189.17 419.486 188.246C419.486 187.308 419.304 186.524 418.94 185.894C418.59 185.25 418.121 184.774 417.533 184.466C416.959 184.158 416.329 184.004 415.643 184.004ZM428.481 191.963L432.051 182.471H434.109L429.594 194H427.326L422.811 182.471H424.869L428.481 191.963ZM435.749 179.09C435.749 178.74 435.868 178.46 436.106 178.25C436.344 178.026 436.659 177.914 437.051 177.914C437.443 177.914 437.758 178.026 437.996 178.25C438.234 178.46 438.353 178.74 438.353 179.09C438.353 179.44 438.234 179.727 437.996 179.951C437.758 180.161 437.443 180.266 437.051 180.266C436.659 180.266 436.344 180.161 436.106 179.951C435.868 179.727 435.749 179.44 435.749 179.09ZM437.996 182.471V194H436.085V182.471H437.996ZM445.893 182.324C447.013 182.324 447.958 182.604 448.728 183.164C449.512 183.724 450.058 184.473 450.366 185.411V178.46H452.277V194H450.366V191.06C450.058 191.998 449.512 192.747 448.728 193.307C447.958 193.867 447.013 194.147 445.893 194.147C444.871 194.147 443.961 193.909 443.163 193.433C442.365 192.957 441.735 192.278 441.273 191.396C440.825 190.5 440.601 189.45 440.601 188.246C440.601 187.042 440.825 185.992 441.273 185.096C441.735 184.2 442.365 183.514 443.163 183.038C443.961 182.562 444.871 182.324 445.893 182.324ZM446.439 184.025C445.263 184.025 444.318 184.403 443.604 185.159C442.904 185.901 442.554 186.93 442.554 188.246C442.554 189.562 442.904 190.598 443.604 191.354C444.318 192.096 445.263 192.467 446.439 192.467C447.195 192.467 447.867 192.292 448.455 191.942C449.057 191.592 449.526 191.102 449.862 190.472C450.198 189.828 450.366 189.086 450.366 188.246C450.366 187.406 450.198 186.664 449.862 186.02C449.526 185.376 449.057 184.886 448.455 184.55C447.867 184.2 447.195 184.025 446.439 184.025ZM466.024 187.595C466.024 188.001 465.996 188.351 465.94 188.645H456.721C456.763 189.961 457.134 190.948 457.834 191.606C458.548 192.264 459.416 192.593 460.438 192.593C461.362 192.593 462.132 192.362 462.748 191.9C463.378 191.424 463.763 190.794 463.903 190.01H465.94C465.8 190.808 465.485 191.522 464.995 192.152C464.519 192.782 463.896 193.272 463.126 193.622C462.356 193.972 461.488 194.147 460.522 194.147C459.416 194.147 458.436 193.909 457.582 193.433C456.728 192.957 456.056 192.278 455.566 191.396C455.09 190.5 454.852 189.45 454.852 188.246C454.852 187.042 455.09 185.992 455.566 185.096C456.056 184.2 456.728 183.514 457.582 183.038C458.436 182.562 459.416 182.324 460.522 182.324C461.642 182.324 462.615 182.562 463.441 183.038C464.281 183.514 464.918 184.151 465.352 184.949C465.8 185.747 466.024 186.629 466.024 187.595ZM464.092 187.721C464.134 186.867 463.994 186.153 463.672 185.579C463.35 185.005 462.909 184.578 462.349 184.298C461.789 184.018 461.18 183.878 460.522 183.878C459.472 183.878 458.59 184.207 457.876 184.865C457.162 185.509 456.777 186.461 456.721 187.721H464.092ZM473.348 182.324C474.468 182.324 475.413 182.604 476.183 183.164C476.967 183.724 477.513 184.473 477.821 185.411V178.46H479.732V194H477.821V191.06C477.513 191.998 476.967 192.747 476.183 193.307C475.413 193.867 474.468 194.147 473.348 194.147C472.326 194.147 471.416 193.909 470.618 193.433C469.82 192.957 469.19 192.278 468.728 191.396C468.28 190.5 468.056 189.45 468.056 188.246C468.056 187.042 468.28 185.992 468.728 185.096C469.19 184.2 469.82 183.514 470.618 183.038C471.416 182.562 472.326 182.324 473.348 182.324ZM473.894 184.025C472.718 184.025 471.773 184.403 471.059 185.159C470.359 185.901 470.009 186.93 470.009 188.246C470.009 189.562 470.359 190.598 471.059 191.354C471.773 192.096 472.718 192.467 473.894 192.467C474.65 192.467 475.322 192.292 475.91 191.942C476.512 191.592 476.981 191.102 477.317 190.472C477.653 189.828 477.821 189.086 477.821 188.246C477.821 187.406 477.653 186.664 477.317 186.02C476.981 185.376 476.512 184.886 475.91 184.55C475.322 184.2 474.65 184.025 473.894 184.025Z" fill="black"/>
<path d="M117.151 256H114.757L107.554 245.059V256H105.16V241.195H107.554L114.757 252.178V241.195H117.151V256ZM130.901 249.658C130.901 250.05 130.873 250.393 130.817 250.687H121.913C121.955 251.877 122.284 252.759 122.9 253.333C123.516 253.907 124.279 254.194 125.189 254.194C125.987 254.194 126.659 253.991 127.205 253.585C127.765 253.179 128.108 252.64 128.234 251.968H130.796C130.642 252.78 130.32 253.501 129.83 254.131C129.34 254.761 128.703 255.258 127.919 255.622C127.135 255.972 126.26 256.147 125.294 256.147C124.174 256.147 123.18 255.909 122.312 255.433C121.458 254.957 120.786 254.271 120.296 253.375C119.806 252.479 119.561 251.422 119.561 250.204C119.561 249 119.806 247.95 120.296 247.054C120.786 246.158 121.458 245.472 122.312 244.996C123.18 244.52 124.174 244.282 125.294 244.282C126.428 244.282 127.415 244.52 128.255 244.996C129.109 245.458 129.76 246.102 130.208 246.928C130.67 247.74 130.901 248.65 130.901 249.658ZM128.486 249.595C128.514 248.839 128.381 248.209 128.087 247.705C127.807 247.187 127.415 246.809 126.911 246.571C126.421 246.319 125.882 246.193 125.294 246.193C124.356 246.193 123.572 246.48 122.942 247.054C122.312 247.628 121.969 248.475 121.913 249.595H128.486ZM137.953 244.282C139.003 244.282 139.899 244.541 140.641 245.059C141.383 245.577 141.908 246.263 142.216 247.117V244.429H144.61V256.126C144.61 257.204 144.386 258.156 143.938 258.982C143.504 259.822 142.874 260.48 142.048 260.956C141.222 261.432 140.242 261.67 139.108 261.67C137.484 261.67 136.168 261.285 135.16 260.515C134.166 259.745 133.543 258.702 133.291 257.386H135.664C135.86 258.072 136.238 258.604 136.798 258.982C137.358 259.374 138.072 259.57 138.94 259.57C139.892 259.57 140.676 259.276 141.292 258.688C141.908 258.1 142.216 257.246 142.216 256.126V253.312C141.908 254.166 141.383 254.852 140.641 255.37C139.899 255.888 139.003 256.147 137.953 256.147C136.945 256.147 136.042 255.909 135.244 255.433C134.46 254.957 133.844 254.271 133.396 253.375C132.948 252.479 132.724 251.422 132.724 250.204C132.724 249 132.948 247.95 133.396 247.054C133.844 246.158 134.46 245.472 135.244 244.996C136.042 244.52 136.945 244.282 137.953 244.282ZM138.688 246.382C137.624 246.382 136.77 246.725 136.126 247.411C135.496 248.083 135.181 249.014 135.181 250.204C135.181 251.394 135.496 252.332 136.126 253.018C136.77 253.69 137.624 254.026 138.688 254.026C139.36 254.026 139.962 253.872 140.494 253.564C141.026 253.242 141.446 252.794 141.754 252.22C142.062 251.646 142.216 250.974 142.216 250.204C142.216 249.448 142.062 248.783 141.754 248.209C141.446 247.621 141.026 247.173 140.494 246.865C139.962 246.543 139.36 246.382 138.688 246.382ZM152.875 244.282C153.995 244.282 155.003 244.52 155.899 244.996C156.795 245.472 157.495 246.158 157.999 247.054C158.503 247.95 158.755 249 158.755 250.204C158.755 251.422 158.503 252.479 157.999 253.375C157.495 254.271 156.795 254.957 155.899 255.433C155.003 255.909 153.995 256.147 152.875 256.147C151.755 256.147 150.747 255.909 149.851 255.433C148.969 254.957 148.269 254.271 147.751 253.375C147.247 252.465 146.995 251.408 146.995 250.204C146.995 249 147.247 247.95 147.751 247.054C148.269 246.158 148.969 245.472 149.851 244.996C150.747 244.52 151.755 244.282 152.875 244.282ZM152.875 246.361C152.259 246.361 151.692 246.501 151.174 246.781C150.656 247.061 150.236 247.495 149.914 248.083C149.606 248.657 149.452 249.364 149.452 250.204C149.452 251.058 149.606 251.772 149.914 252.346C150.236 252.92 150.656 253.347 151.174 253.627C151.692 253.907 152.259 254.047 152.875 254.047C153.491 254.047 154.058 253.907 154.576 253.627C155.094 253.347 155.507 252.92 155.815 252.346C156.137 251.772 156.298 251.058 156.298 250.204C156.298 249.364 156.137 248.657 155.815 248.083C155.507 247.495 155.094 247.061 154.576 246.781C154.058 246.501 153.491 246.361 152.875 246.361ZM166.974 253.921V256H165.504C164.272 256 163.334 255.706 162.69 255.118C162.06 254.516 161.745 253.522 161.745 252.136V246.466H160.086V244.429H161.745V241.552H164.16V244.429H166.953V246.466H164.16V252.178C164.16 252.836 164.279 253.291 164.517 253.543C164.769 253.795 165.203 253.921 165.819 253.921H166.974ZM168.98 241.069C168.98 240.663 169.12 240.327 169.4 240.061C169.68 239.795 170.051 239.662 170.513 239.662C170.975 239.662 171.346 239.795 171.626 240.061C171.92 240.327 172.067 240.663 172.067 241.069C172.067 241.475 171.92 241.804 171.626 242.056C171.346 242.308 170.975 242.434 170.513 242.434C170.051 242.434 169.68 242.308 169.4 242.056C169.12 241.804 168.98 241.475 168.98 241.069ZM171.71 244.429V256H169.316V244.429H171.71ZM179.348 244.282C180.398 244.282 181.294 244.541 182.036 245.059C182.778 245.577 183.303 246.263 183.611 247.117V244.429H186.005V256H183.611V253.312C183.303 254.166 182.778 254.852 182.036 255.37C181.294 255.888 180.398 256.147 179.348 256.147C178.34 256.147 177.437 255.909 176.639 255.433C175.855 254.957 175.239 254.271 174.791 253.375C174.343 252.479 174.119 251.422 174.119 250.204C174.119 249 174.343 247.95 174.791 247.054C175.239 246.158 175.855 245.472 176.639 244.996C177.437 244.52 178.34 244.282 179.348 244.282ZM180.083 246.382C179.019 246.382 178.165 246.725 177.521 247.411C176.891 248.083 176.576 249.014 176.576 250.204C176.576 251.394 176.891 252.332 177.521 253.018C178.165 253.69 179.019 254.026 180.083 254.026C180.755 254.026 181.357 253.872 181.889 253.564C182.421 253.242 182.841 252.794 183.149 252.22C183.457 251.646 183.611 250.974 183.611 250.204C183.611 249.448 183.457 248.783 183.149 248.209C182.841 247.621 182.421 247.173 181.889 246.865C181.357 246.543 180.755 246.382 180.083 246.382ZM194.795 253.921V256H193.325C192.093 256 191.155 255.706 190.511 255.118C189.881 254.516 189.566 253.522 189.566 252.136V246.466H187.907V244.429H189.566V241.552H191.981V244.429H194.774V246.466H191.981V252.178C191.981 252.836 192.1 253.291 192.338 253.543C192.59 253.795 193.024 253.921 193.64 253.921H194.795ZM196.802 241.069C196.802 240.663 196.942 240.327 197.222 240.061C197.502 239.795 197.873 239.662 198.335 239.662C198.797 239.662 199.168 239.795 199.448 240.061C199.742 240.327 199.889 240.663 199.889 241.069C199.889 241.475 199.742 241.804 199.448 242.056C199.168 242.308 198.797 242.434 198.335 242.434C197.873 242.434 197.502 242.308 197.222 242.056C196.942 241.804 196.802 241.475 196.802 241.069ZM199.532 244.429V256H197.138V244.429H199.532ZM207.821 244.282C208.941 244.282 209.949 244.52 210.845 244.996C211.741 245.472 212.441 246.158 212.945 247.054C213.449 247.95 213.701 249 213.701 250.204C213.701 251.422 213.449 252.479 212.945 253.375C212.441 254.271 211.741 254.957 210.845 255.433C209.949 255.909 208.941 256.147 207.821 256.147C206.701 256.147 205.693 255.909 204.797 255.433C203.915 254.957 203.215 254.271 202.697 253.375C202.193 252.465 201.941 251.408 201.941 250.204C201.941 249 202.193 247.95 202.697 247.054C203.215 246.158 203.915 245.472 204.797 244.996C205.693 244.52 206.701 244.282 207.821 244.282ZM207.821 246.361C207.205 246.361 206.638 246.501 206.12 246.781C205.602 247.061 205.182 247.495 204.86 248.083C204.552 248.657 204.398 249.364 204.398 250.204C204.398 251.058 204.552 251.772 204.86 252.346C205.182 252.92 205.602 253.347 206.12 253.627C206.638 253.907 207.205 254.047 207.821 254.047C208.437 254.047 209.004 253.907 209.522 253.627C210.04 253.347 210.453 252.92 210.761 252.346C211.083 251.772 211.244 251.058 211.244 250.204C211.244 249.364 211.083 248.657 210.761 248.083C210.453 247.495 210.04 247.061 209.522 246.781C209.004 246.501 208.437 246.361 207.821 246.361ZM222.57 244.24C223.914 244.24 224.992 244.674 225.804 245.542C226.616 246.41 227.022 247.649 227.022 249.259V256H224.628V249.511C224.628 248.475 224.362 247.677 223.83 247.117C223.298 246.543 222.57 246.256 221.646 246.256C220.694 246.256 219.931 246.564 219.357 247.18C218.783 247.782 218.496 248.671 218.496 249.847V256H216.102V244.429H218.496V246.97C218.804 246.102 219.322 245.43 220.05 244.954C220.778 244.478 221.618 244.24 222.57 244.24Z" fill="black"/>
<path fill-rule="evenodd" clip-rule="evenodd" d="M356.522 257.111L366.293 263L363.7 251.9L372.333 244.432L360.965 243.468L356.522 233L352.079 243.468L340.711 244.432L349.344 251.9L346.751 263L356.522 257.111Z" fill="#E9AD09"/>
<path fill-rule="evenodd" clip-rule="evenodd" d="M394.143 257.111L403.914 263L401.321 251.9L409.954 244.432L398.586 243.468L394.143 233L389.7 243.468L378.332 244.432L386.965 251.9L384.372 263L394.143 257.111Z" fill="#E9AD09"/>
<path fill-rule="evenodd" clip-rule="evenodd" d="M447.29 244.432L435.937 243.453L431.5 233L427.064 243.468L415.711 244.432L424.332 251.9L421.743 263L431.5 257.111L441.258 263L438.685 251.9L447.29 244.432ZM431.5 254.157L425.564 257.741L427.142 250.983L421.9 246.436L428.816 245.836L431.5 239.473L434.2 245.852L441.116 246.452L435.874 250.999L437.453 257.757L431.5 254.157Z" fill="#595959"/>
<path fill-rule="evenodd" clip-rule="evenodd" d="M484.79 244.432L473.437 243.453L469 233L464.564 243.468L453.211 244.432L461.832 251.9L459.243 263L469 257.111L478.758 263L476.185 251.9L484.79 244.432ZM469 254.157L463.064 257.741L464.642 250.983L459.4 246.436L466.316 245.836L469 239.473L471.7 245.852L478.616 246.452L473.374 250.999L474.953 257.757L469 254.157Z" fill="#595959"/>
<path fill-rule="evenodd" clip-rule="evenodd" d="M522.29 244.432L510.937 243.453L506.5 233L502.064 243.468L490.711 244.432L499.332 251.9L496.743 263L506.5 257.111L516.258 263L513.685 251.9L522.29 244.432ZM506.5 254.157L500.564 257.741L502.142 250.983L496.9 246.436L503.816 245.836L506.5 239.473L509.2 245.852L516.116 246.452L510.874 250.999L512.453 257.757L506.5 254.157Z" fill="#595959"/>
<path d="M113.917 303.174V305.106H107.554V309.705H112.804V311.553H107.554V318H105.16V303.174H113.917ZM115.814 303.069C115.814 302.663 115.954 302.327 116.234 302.061C116.514 301.795 116.885 301.662 117.347 301.662C117.809 301.662 118.18 301.795 118.46 302.061C118.754 302.327 118.901 302.663 118.901 303.069C118.901 303.475 118.754 303.804 118.46 304.056C118.18 304.308 117.809 304.434 117.347 304.434C116.885 304.434 116.514 304.308 116.234 304.056C115.954 303.804 115.814 303.475 115.814 303.069ZM118.544 306.429V318H116.15V306.429H118.544ZM128.387 318L125.552 313.905L123.074 318H120.407L124.229 311.994L120.365 306.429H123.074L125.846 310.419L128.303 306.429H130.949L127.127 312.267L131.096 318H128.387ZM132.522 303.069C132.522 302.663 132.662 302.327 132.942 302.061C133.222 301.795 133.593 301.662 134.055 301.662C134.517 301.662 134.888 301.795 135.168 302.061C135.462 302.327 135.609 302.663 135.609 303.069C135.609 303.475 135.462 303.804 135.168 304.056C134.888 304.308 134.517 304.434 134.055 304.434C133.593 304.434 133.222 304.308 132.942 304.056C132.662 303.804 132.522 303.475 132.522 303.069ZM135.252 306.429V318H132.858V306.429H135.252ZM144.717 306.24C146.061 306.24 147.139 306.674 147.951 307.542C148.763 308.41 149.169 309.649 149.169 311.259V318H146.775V311.511C146.775 310.475 146.509 309.677 145.977 309.117C145.445 308.543 144.717 308.256 143.793 308.256C142.841 308.256 142.078 308.564 141.504 309.18C140.93 309.782 140.643 310.671 140.643 311.847V318H138.249V306.429H140.643V308.97C140.951 308.102 141.469 307.43 142.197 306.954C142.925 306.478 143.765 306.24 144.717 306.24ZM156.71 306.282C157.76 306.282 158.656 306.541 159.398 307.059C160.14 307.577 160.665 308.263 160.973 309.117V306.429H163.367V318.126C163.367 319.204 163.143 320.156 162.695 320.982C162.261 321.822 161.631 322.48 160.805 322.956C159.979 323.432 158.999 323.67 157.865 323.67C156.241 323.67 154.925 323.285 153.917 322.515C152.923 321.745 152.3 320.702 152.048 319.386H154.421C154.617 320.072 154.995 320.604 155.555 320.982C156.115 321.374 156.829 321.57 157.697 321.57C158.649 321.57 159.433 321.276 160.049 320.688C160.665 320.1 160.973 319.246 160.973 318.126V315.312C160.665 316.166 160.14 316.852 159.398 317.37C158.656 317.888 157.76 318.147 156.71 318.147C155.702 318.147 154.799 317.909 154.001 317.433C153.217 316.957 152.601 316.271 152.153 315.375C151.705 314.479 151.481 313.422 151.481 312.204C151.481 311 151.705 309.95 152.153 309.054C152.601 308.158 153.217 307.472 154.001 306.996C154.799 306.52 155.702 306.282 156.71 306.282ZM157.445 308.382C156.381 308.382 155.527 308.725 154.883 309.411C154.253 310.083 153.938 311.014 153.938 312.204C153.938 313.394 154.253 314.332 154.883 315.018C155.527 315.69 156.381 316.026 157.445 316.026C158.117 316.026 158.719 315.872 159.251 315.564C159.783 315.242 160.203 314.794 160.511 314.22C160.819 313.646 160.973 312.974 160.973 312.204C160.973 311.448 160.819 310.783 160.511 310.209C160.203 309.621 159.783 309.173 159.251 308.865C158.719 308.543 158.117 308.382 157.445 308.382ZM182.114 311.658C182.114 312.05 182.086 312.393 182.03 312.687H173.126C173.168 313.877 173.497 314.759 174.113 315.333C174.729 315.907 175.492 316.194 176.402 316.194C177.2 316.194 177.872 315.991 178.418 315.585C178.978 315.179 179.321 314.64 179.447 313.968H182.009C181.855 314.78 181.533 315.501 181.043 316.131C180.553 316.761 179.916 317.258 179.132 317.622C178.348 317.972 177.473 318.147 176.507 318.147C175.387 318.147 174.393 317.909 173.525 317.433C172.671 316.957 171.999 316.271 171.509 315.375C171.019 314.479 170.774 313.422 170.774 312.204C170.774 311 171.019 309.95 171.509 309.054C171.999 308.158 172.671 307.472 173.525 306.996C174.393 306.52 175.387 306.282 176.507 306.282C177.641 306.282 178.628 306.52 179.468 306.996C180.322 307.458 180.973 308.102 181.421 308.928C181.883 309.74 182.114 310.65 182.114 311.658ZM179.699 311.595C179.727 310.839 179.594 310.209 179.3 309.705C179.02 309.187 178.628 308.809 178.124 308.571C177.634 308.319 177.095 308.193 176.507 308.193C175.569 308.193 174.785 308.48 174.155 309.054C173.525 309.628 173.182 310.475 173.126 311.595H179.699ZM186.919 308.697C187.311 307.941 187.871 307.346 188.599 306.912C189.327 306.464 190.167 306.24 191.119 306.24V308.844H190.405C189.355 308.844 188.508 309.103 187.864 309.621C187.234 310.125 186.919 310.965 186.919 312.141V318H184.525V306.429H186.919V308.697ZM195.407 308.697C195.799 307.941 196.359 307.346 197.087 306.912C197.815 306.464 198.655 306.24 199.607 306.24V308.844H198.893C197.843 308.844 196.996 309.103 196.352 309.621C195.722 310.125 195.407 310.965 195.407 312.141V318H193.013V306.429H195.407V308.697ZM206.793 306.282C207.913 306.282 208.921 306.52 209.817 306.996C210.713 307.472 211.413 308.158 211.917 309.054C212.421 309.95 212.673 311 212.673 312.204C212.673 313.422 212.421 314.479 211.917 315.375C211.413 316.271 210.713 316.957 209.817 317.433C208.921 317.909 207.913 318.147 206.793 318.147C205.673 318.147 204.665 317.909 203.769 317.433C202.887 316.957 202.187 316.271 201.669 315.375C201.165 314.465 200.913 313.408 200.913 312.204C200.913 311 201.165 309.95 201.669 309.054C202.187 308.158 202.887 307.472 203.769 306.996C204.665 306.52 205.673 306.282 206.793 306.282ZM206.793 308.361C206.177 308.361 205.61 308.501 205.092 308.781C204.574 309.061 204.154 309.495 203.832 310.083C203.524 310.657 203.37 311.364 203.37 312.204C203.37 313.058 203.524 313.772 203.832 314.346C204.154 314.92 204.574 315.347 205.092 315.627C205.61 315.907 206.177 316.047 206.793 316.047C207.409 316.047 207.976 315.907 208.494 315.627C209.012 315.347 209.425 314.92 209.733 314.346C210.055 313.772 210.216 313.058 210.216 312.204C210.216 311.364 210.055 310.657 209.733 310.083C209.425 309.495 209.012 309.061 208.494 308.781C207.976 308.501 207.409 308.361 206.793 308.361ZM217.468 308.697C217.86 307.941 218.42 307.346 219.148 306.912C219.876 306.464 220.716 306.24 221.668 306.24V308.844H220.954C219.904 308.844 219.057 309.103 218.413 309.621C217.783 310.125 217.468 310.965 217.468 312.141V318H215.074V306.429H217.468V308.697ZM227.363 306.282C228.721 306.282 229.806 306.632 230.618 307.332C231.444 308.018 231.948 308.942 232.13 310.104H229.862C229.764 309.474 229.491 308.97 229.043 308.592C228.609 308.2 228.028 308.004 227.3 308.004C226.698 308.004 226.229 308.151 225.893 308.445C225.571 308.725 225.41 309.11 225.41 309.6C225.41 309.964 225.529 310.258 225.767 310.482C226.005 310.706 226.299 310.881 226.649 311.007C227.013 311.133 227.524 311.273 228.182 311.427C229.05 311.623 229.75 311.826 230.282 312.036C230.828 312.246 231.29 312.582 231.668 313.044C232.06 313.492 232.256 314.108 232.256 314.892C232.256 315.858 231.885 316.642 231.143 317.244C230.415 317.846 229.428 318.147 228.182 318.147C226.74 318.147 225.571 317.811 224.675 317.139C223.793 316.467 223.261 315.529 223.079 314.325H225.41C225.48 314.955 225.76 315.466 226.25 315.858C226.74 316.25 227.384 316.446 228.182 316.446C228.756 316.446 229.204 316.299 229.526 316.005C229.862 315.697 230.03 315.312 230.03 314.85C230.03 314.444 229.904 314.122 229.652 313.884C229.4 313.646 229.085 313.464 228.707 313.338C228.329 313.198 227.811 313.058 227.153 312.918C226.313 312.722 225.627 312.526 225.095 312.33C224.577 312.134 224.129 311.819 223.751 311.385C223.387 310.937 223.205 310.335 223.205 309.579C223.205 308.599 223.569 307.808 224.297 307.206C225.039 306.59 226.061 306.282 227.363 306.282Z" fill="black"/>
<path fill-rule="evenodd" clip-rule="evenodd" d="M356.522 319.111L366.293 325L363.7 313.9L372.333 306.432L360.965 305.468L356.522 295L352.079 305.468L340.711 306.432L349.344 313.9L346.751 325L356.522 319.111Z" fill="#E9AD09"/>
<path fill-rule="evenodd" clip-rule="evenodd" d="M394.143 319.111L403.914 325L401.321 313.9L409.954 306.432L398.586 305.468L394.143 295L389.7 305.468L378.332 306.432L386.965 313.9L384.372 325L394.143 319.111Z" fill="#E9AD09"/>
<path fill-rule="evenodd" clip-rule="evenodd" d="M447.29 306.432L435.937 305.453L431.5 295L427.064 305.468L415.711 306.432L424.332 313.9L421.743 325L431.5 319.111L441.258 325L438.685 313.9L447.29 306.432ZM431.5 316.157L425.564 319.741L427.142 312.983L421.9 308.436L428.816 307.836L431.5 301.473L434.2 307.852L441.116 308.452L435.874 312.999L437.453 319.757L431.5 316.157Z" fill="#595959"/>
<path fill-rule="evenodd" clip-rule="evenodd" d="M484.79 306.432L473.437 305.453L469 295L464.564 305.468L453.211 306.432L461.832 313.9L459.243 325L469 319.111L478.758 325L476.185 313.9L484.79 306.432ZM469 316.157L463.064 319.741L464.642 312.983L459.4 308.436L466.316 307.836L469 301.473L471.7 307.852L478.616 308.452L473.374 312.999L474.953 319.757L469 316.157Z" fill="#595959"/>
<path fill-rule="evenodd" clip-rule="evenodd" d="M522.29 306.432L510.937 305.453L506.5 295L502.064 305.468L490.711 306.432L499.332 313.9L496.743 325L506.5 319.111L516.258 325L513.685 313.9L522.29 306.432ZM506.5 316.157L500.564 319.741L502.142 312.983L496.9 308.436L503.816 307.836L506.5 301.473L509.2 307.852L516.116 308.452L510.874 312.999L512.453 319.757L506.5 316.157Z" fill="#595959"/>
<path d="M108.054 374.246V380H105.66V365.174H110.7C112.408 365.174 113.689 365.58 114.543 366.392C115.411 367.204 115.845 368.317 115.845 369.731C115.845 371.131 115.404 372.237 114.522 373.049C113.64 373.847 112.366 374.246 110.7 374.246H108.054ZM110.448 372.293C112.422 372.293 113.409 371.439 113.409 369.731C113.409 368.891 113.171 368.254 112.695 367.82C112.233 367.372 111.484 367.148 110.448 367.148H108.054V372.293H110.448ZM122.685 368.282C123.735 368.282 124.631 368.541 125.373 369.059C126.115 369.577 126.64 370.263 126.948 371.117V368.429H129.342V380H126.948V377.312C126.64 378.166 126.115 378.852 125.373 379.37C124.631 379.888 123.735 380.147 122.685 380.147C121.677 380.147 120.774 379.909 119.976 379.433C119.192 378.957 118.576 378.271 118.128 377.375C117.68 376.479 117.456 375.422 117.456 374.204C117.456 373 117.68 371.95 118.128 371.054C118.576 370.158 119.192 369.472 119.976 368.996C120.774 368.52 121.677 368.282 122.685 368.282ZM123.42 370.382C122.356 370.382 121.502 370.725 120.858 371.411C120.228 372.083 119.913 373.014 119.913 374.204C119.913 375.394 120.228 376.332 120.858 377.018C121.502 377.69 122.356 378.026 123.42 378.026C124.092 378.026 124.694 377.872 125.226 377.564C125.758 377.242 126.178 376.794 126.486 376.22C126.794 375.646 126.948 374.974 126.948 374.204C126.948 373.448 126.794 372.783 126.486 372.209C126.178 371.621 125.758 371.173 125.226 370.865C124.694 370.543 124.092 370.382 123.42 370.382ZM133.68 368.429L137.145 376.934L140.358 368.429H143.025L136.032 385.502H133.365L135.864 379.727L130.992 368.429H133.68ZM159.168 368.24C160.54 368.24 161.632 368.674 162.444 369.542C163.27 370.41 163.683 371.649 163.683 373.259V380H161.289V373.511C161.289 372.503 161.037 371.726 160.533 371.18C160.029 370.62 159.336 370.34 158.454 370.34C157.516 370.34 156.767 370.641 156.207 371.243C155.661 371.831 155.388 372.699 155.388 373.847V380H152.994V373.511C152.994 372.503 152.742 371.726 152.238 371.18C151.734 370.62 151.041 370.34 150.159 370.34C149.221 370.34 148.472 370.641 147.912 371.243C147.366 371.831 147.093 372.699 147.093 373.847V380H144.699V368.429H147.093V370.844C147.387 370.004 147.877 369.36 148.563 368.912C149.249 368.464 150.054 368.24 150.978 368.24C151.944 368.24 152.777 368.478 153.477 368.954C154.191 369.43 154.709 370.116 155.031 371.012C155.367 370.144 155.906 369.465 156.648 368.975C157.39 368.485 158.23 368.24 159.168 368.24ZM177.33 373.658C177.33 374.05 177.302 374.393 177.246 374.687H168.342C168.384 375.877 168.713 376.759 169.329 377.333C169.945 377.907 170.708 378.194 171.618 378.194C172.416 378.194 173.088 377.991 173.634 377.585C174.194 377.179 174.537 376.64 174.663 375.968H177.225C177.071 376.78 176.749 377.501 176.259 378.131C175.769 378.761 175.132 379.258 174.348 379.622C173.564 379.972 172.689 380.147 171.723 380.147C170.603 380.147 169.609 379.909 168.741 379.433C167.887 378.957 167.215 378.271 166.725 377.375C166.235 376.479 165.99 375.422 165.99 374.204C165.99 373 166.235 371.95 166.725 371.054C167.215 370.158 167.887 369.472 168.741 368.996C169.609 368.52 170.603 368.282 171.723 368.282C172.857 368.282 173.844 368.52 174.684 368.996C175.538 369.458 176.189 370.102 176.637 370.928C177.099 371.74 177.33 372.65 177.33 373.658ZM174.915 373.595C174.943 372.839 174.81 372.209 174.516 371.705C174.236 371.187 173.844 370.809 173.34 370.571C172.85 370.319 172.311 370.193 171.723 370.193C170.785 370.193 170.001 370.48 169.371 371.054C168.741 371.628 168.398 372.475 168.342 373.595H174.915ZM186.21 368.24C187.554 368.24 188.632 368.674 189.444 369.542C190.256 370.41 190.662 371.649 190.662 373.259V380H188.268V373.511C188.268 372.475 188.002 371.677 187.47 371.117C186.938 370.543 186.21 370.256 185.286 370.256C184.334 370.256 183.571 370.564 182.997 371.18C182.423 371.782 182.136 372.671 182.136 373.847V380H179.742V368.429H182.136V370.97C182.444 370.102 182.962 369.43 183.69 368.954C184.418 368.478 185.258 368.24 186.21 368.24ZM199.379 377.921V380H197.909C196.677 380 195.739 379.706 195.095 379.118C194.465 378.516 194.15 377.522 194.15 376.136V370.466H192.491V368.429H194.15V365.552H196.565V368.429H199.358V370.466H196.565V376.178C196.565 376.836 196.684 377.291 196.922 377.543C197.174 377.795 197.608 377.921 198.224 377.921H199.379ZM213.379 368.282C214.387 368.282 215.283 368.52 216.067 368.996C216.865 369.472 217.488 370.158 217.936 371.054C218.384 371.95 218.608 373 218.608 374.204C218.608 375.422 218.384 376.479 217.936 377.375C217.488 378.271 216.865 378.957 216.067 379.433C215.283 379.909 214.387 380.147 213.379 380.147C212.329 380.147 211.433 379.888 210.691 379.37C209.949 378.852 209.431 378.166 209.137 377.312V385.502H206.743V368.429H209.137V371.117C209.431 370.263 209.949 369.577 210.691 369.059C211.433 368.541 212.329 368.282 213.379 368.282ZM212.644 370.382C211.972 370.382 211.37 370.543 210.838 370.865C210.306 371.173 209.886 371.621 209.578 372.209C209.27 372.783 209.116 373.448 209.116 374.204C209.116 374.974 209.27 375.646 209.578 376.22C209.886 376.794 210.306 377.242 210.838 377.564C211.37 377.872 211.972 378.026 212.644 378.026C213.708 378.026 214.562 377.69 215.206 377.018C215.85 376.332 216.172 375.394 216.172 374.204C216.172 373.028 215.85 372.097 215.206 371.411C214.562 370.725 213.708 370.382 212.644 370.382ZM223.408 364.46V380H221.014V364.46H223.408ZM231.046 368.282C232.096 368.282 232.992 368.541 233.734 369.059C234.476 369.577 235.001 370.263 235.309 371.117V368.429H237.703V380H235.309V377.312C235.001 378.166 234.476 378.852 233.734 379.37C232.992 379.888 232.096 380.147 231.046 380.147C230.038 380.147 229.135 379.909 228.337 379.433C227.553 378.957 226.937 378.271 226.489 377.375C226.041 376.479 225.817 375.422 225.817 374.204C225.817 373 226.041 371.95 226.489 371.054C226.937 370.158 227.553 369.472 228.337 368.996C229.135 368.52 230.038 368.282 231.046 368.282ZM231.781 370.382C230.717 370.382 229.863 370.725 229.219 371.411C228.589 372.083 228.274 373.014 228.274 374.204C228.274 375.394 228.589 376.332 229.219 377.018C229.863 377.69 230.717 378.026 231.781 378.026C232.453 378.026 233.055 377.872 233.587 377.564C234.119 377.242 234.539 376.794 234.847 376.22C235.155 375.646 235.309 374.974 235.309 374.204C235.309 373.448 235.155 372.783 234.847 372.209C234.539 371.621 234.119 371.173 233.587 370.865C233.055 370.543 232.453 370.382 231.781 370.382ZM247.144 368.24C248.488 368.24 249.566 368.674 250.378 369.542C251.19 370.41 251.596 371.649 251.596 373.259V380H249.202V373.511C249.202 372.475 248.936 371.677 248.404 371.117C247.872 370.543 247.144 370.256 246.22 370.256C245.268 370.256 244.505 370.564 243.931 371.18C243.357 371.782 243.07 372.671 243.07 373.847V380H240.676V368.429H243.07V370.97C243.378 370.102 243.896 369.43 244.624 368.954C245.352 368.478 246.192 368.24 247.144 368.24ZM258.297 368.282C259.655 368.282 260.74 368.632 261.552 369.332C262.378 370.018 262.882 370.942 263.064 372.104H260.796C260.698 371.474 260.425 370.97 259.977 370.592C259.543 370.2 258.962 370.004 258.234 370.004C257.632 370.004 257.163 370.151 256.827 370.445C256.505 370.725 256.344 371.11 256.344 371.6C256.344 371.964 256.463 372.258 256.701 372.482C256.939 372.706 257.233 372.881 257.583 373.007C257.947 373.133 258.458 373.273 259.116 373.427C259.984 373.623 260.684 373.826 261.216 374.036C261.762 374.246 262.224 374.582 262.602 375.044C262.994 375.492 263.19 376.108 263.19 376.892C263.19 377.858 262.819 378.642 262.077 379.244C261.349 379.846 260.362 380.147 259.116 380.147C257.674 380.147 256.505 379.811 255.609 379.139C254.727 378.467 254.195 377.529 254.013 376.325H256.344C256.414 376.955 256.694 377.466 257.184 377.858C257.674 378.25 258.318 378.446 259.116 378.446C259.69 378.446 260.138 378.299 260.46 378.005C260.796 377.697 260.964 377.312 260.964 376.85C260.964 376.444 260.838 376.122 260.586 375.884C260.334 375.646 260.019 375.464 259.641 375.338C259.263 375.198 258.745 375.058 258.087 374.918C257.247 374.722 256.561 374.526 256.029 374.33C255.511 374.134 255.063 373.819 254.685 373.385C254.321 372.937 254.139 372.335 254.139 371.579C254.139 370.599 254.503 369.808 255.231 369.206C255.973 368.59 256.995 368.282 258.297 368.282Z" fill="black"/>
<path fill-rule="evenodd" clip-rule="evenodd" d="M356.022 381.111L365.793 387L363.2 375.9L371.833 368.432L360.465 367.468L356.022 357L351.579 367.468L340.211 368.432L348.844 375.9L346.251 387L356.022 381.111Z" fill="#E9AD09"/>
<path fill-rule="evenodd" clip-rule="evenodd" d="M393.643 381.111L403.414 387L400.821 375.9L409.454 368.432L398.086 367.468L393.643 357L389.2 367.468L377.832 368.432L386.465 375.9L383.872 387L393.643 381.111Z" fill="#E9AD09"/>
<path fill-rule="evenodd" clip-rule="evenodd" d="M430.811 381.111L440.582 387L437.989 375.9L446.622 368.432L435.254 367.468L430.811 357L426.368 367.468L415 368.432L423.633 375.9L421.04 387L430.811 381.111Z" fill="#E9AD09"/>
<path fill-rule="evenodd" clip-rule="evenodd" d="M484.29 368.432L472.937 367.453L468.5 357L464.064 367.468L452.711 368.432L461.332 375.9L458.743 387L468.5 381.111L478.258 387L475.685 375.9L484.29 368.432ZM468.5 378.157L462.564 381.741L464.142 374.983L458.9 370.436L465.816 369.836L468.5 363.473L471.2 369.852L478.116 370.452L472.874 374.999L474.453 381.757L468.5 378.157Z" fill="#595959"/>
<path fill-rule="evenodd" clip-rule="evenodd" d="M521.79 368.432L510.437 367.453L506 357L501.564 367.468L490.211 368.432L498.832 375.9L496.243 387L506 381.111L515.758 387L513.185 375.9L521.79 368.432ZM506 378.157L500.064 381.741L501.642 374.983L496.4 370.436L503.316 369.836L506 363.473L508.7 369.852L515.616 370.452L510.374 374.999L511.953 381.757L506 378.157Z" fill="#595959"/>
<rect x="1" y="1" width="624" height="448" rx="14" stroke="#012C37" stroke-width="2"/>
</svg>
