<svg width="636" height="523" viewBox="0 0 636 523" fill="none" xmlns="http://www.w3.org/2000/svg">
<rect y="7" width="628" height="516" rx="15" fill="#012C37"/>
<rect x="11" y="1" width="624" height="510" rx="14" fill="white"/>
<path d="M76.821 82.405V97H74.406V86.059L70.185 97H68.085L63.843 86.059V97H61.449V82.405H64.347L69.177 94.06L73.923 82.405H76.821ZM90.553 90.658C90.553 91.05 90.525 91.393 90.469 91.687H81.565C81.607 92.877 81.936 93.759 82.552 94.333C83.168 94.907 83.931 95.194 84.841 95.194C85.639 95.194 86.311 94.991 86.857 94.585C87.417 94.179 87.76 93.64 87.886 92.968H90.448C90.294 93.78 89.972 94.501 89.482 95.131C88.992 95.761 88.355 96.258 87.571 96.622C86.787 96.972 85.912 97.147 84.946 97.147C83.826 97.147 82.832 96.909 81.964 96.433C81.11 95.957 80.438 95.271 79.948 94.375C79.458 93.479 79.213 92.422 79.213 91.204C79.213 90 79.458 88.95 79.948 88.054C80.438 87.158 81.11 86.472 81.964 85.996C82.832 85.52 83.826 85.282 84.946 85.282C86.08 85.282 87.067 85.52 87.907 85.996C88.761 86.458 89.412 87.102 89.86 87.928C90.322 88.74 90.553 89.65 90.553 90.658ZM88.138 90.595C88.166 89.839 88.033 89.209 87.739 88.705C87.459 88.187 87.067 87.809 86.563 87.571C86.073 87.319 85.534 87.193 84.946 87.193C84.008 87.193 83.224 87.48 82.594 88.054C81.964 88.628 81.621 89.475 81.565 90.595H88.138ZM97.6054 85.282C98.6554 85.282 99.5514 85.541 100.293 86.059C101.035 86.577 101.553 87.263 101.847 88.117V81.46H104.262V97H101.847V94.312C101.553 95.166 101.035 95.852 100.293 96.37C99.5514 96.888 98.6554 97.147 97.6054 97.147C96.5974 97.147 95.6944 96.909 94.8964 96.433C94.1124 95.957 93.4964 95.271 93.0484 94.375C92.6004 93.479 92.3764 92.422 92.3764 91.204C92.3764 90 92.6004 88.95 93.0484 88.054C93.4964 87.158 94.1124 86.472 94.8964 85.996C95.6944 85.52 96.5974 85.282 97.6054 85.282ZM98.3404 87.382C97.2764 87.382 96.4224 87.725 95.7784 88.411C95.1484 89.083 94.8334 90.014 94.8334 91.204C94.8334 92.394 95.1484 93.332 95.7784 94.018C96.4224 94.69 97.2764 95.026 98.3404 95.026C99.0124 95.026 99.6144 94.872 100.146 94.564C100.678 94.242 101.098 93.794 101.406 93.22C101.714 92.646 101.868 91.974 101.868 91.204C101.868 90.448 101.714 89.783 101.406 89.209C101.098 88.621 100.678 88.173 100.146 87.865C99.6144 87.543 99.0124 87.382 98.3404 87.382ZM106.899 82.069C106.899 81.663 107.039 81.327 107.319 81.061C107.599 80.795 107.97 80.662 108.432 80.662C108.894 80.662 109.265 80.795 109.545 81.061C109.839 81.327 109.986 81.663 109.986 82.069C109.986 82.475 109.839 82.804 109.545 83.056C109.265 83.308 108.894 83.434 108.432 83.434C107.97 83.434 107.599 83.308 107.319 83.056C107.039 82.804 106.899 82.475 106.899 82.069ZM109.629 85.429V97H107.235V85.429H109.629ZM117.771 85.282C119.269 85.282 120.508 85.681 121.488 86.479C122.468 87.263 123.077 88.334 123.315 89.692H120.774C120.634 88.964 120.291 88.397 119.745 87.991C119.213 87.571 118.541 87.361 117.729 87.361C116.805 87.361 116.035 87.69 115.419 88.348C114.803 88.992 114.495 89.944 114.495 91.204C114.495 92.464 114.803 93.423 115.419 94.081C116.035 94.739 116.805 95.068 117.729 95.068C118.541 95.068 119.213 94.858 119.745 94.438C120.291 94.018 120.634 93.444 120.774 92.716H123.315C123.077 94.074 122.468 95.152 121.488 95.95C120.508 96.748 119.269 97.147 117.771 97.147C116.651 97.147 115.657 96.909 114.789 96.433C113.935 95.957 113.263 95.271 112.773 94.375C112.283 93.479 112.038 92.422 112.038 91.204C112.038 90 112.283 88.95 112.773 88.054C113.263 87.158 113.935 86.472 114.789 85.996C115.657 85.52 116.651 85.282 117.771 85.282ZM130.369 85.282C131.419 85.282 132.315 85.541 133.057 86.059C133.799 86.577 134.324 87.263 134.632 88.117V85.429H137.026V97H134.632V94.312C134.324 95.166 133.799 95.852 133.057 96.37C132.315 96.888 131.419 97.147 130.369 97.147C129.361 97.147 128.458 96.909 127.66 96.433C126.876 95.957 126.26 95.271 125.812 94.375C125.364 93.479 125.14 92.422 125.14 91.204C125.14 90 125.364 88.95 125.812 88.054C126.26 87.158 126.876 86.472 127.66 85.996C128.458 85.52 129.361 85.282 130.369 85.282ZM131.104 87.382C130.04 87.382 129.186 87.725 128.542 88.411C127.912 89.083 127.597 90.014 127.597 91.204C127.597 92.394 127.912 93.332 128.542 94.018C129.186 94.69 130.04 95.026 131.104 95.026C131.776 95.026 132.378 94.872 132.91 94.564C133.442 94.242 133.862 93.794 134.17 93.22C134.478 92.646 134.632 91.974 134.632 91.204C134.632 90.448 134.478 89.783 134.17 89.209C133.862 88.621 133.442 88.173 132.91 87.865C132.378 87.543 131.776 87.382 131.104 87.382ZM142.393 81.46V97H139.999V81.46H142.393ZM155.557 85.282C157.055 85.282 158.294 85.681 159.274 86.479C160.254 87.263 160.863 88.334 161.101 89.692H158.56C158.42 88.964 158.077 88.397 157.531 87.991C156.999 87.571 156.327 87.361 155.515 87.361C154.591 87.361 153.821 87.69 153.205 88.348C152.589 88.992 152.281 89.944 152.281 91.204C152.281 92.464 152.589 93.423 153.205 94.081C153.821 94.739 154.591 95.068 155.515 95.068C156.327 95.068 156.999 94.858 157.531 94.438C158.077 94.018 158.42 93.444 158.56 92.716H161.101C160.863 94.074 160.254 95.152 159.274 95.95C158.294 96.748 157.055 97.147 155.557 97.147C154.437 97.147 153.443 96.909 152.575 96.433C151.721 95.957 151.049 95.271 150.559 94.375C150.069 93.479 149.824 92.422 149.824 91.204C149.824 90 150.069 88.95 150.559 88.054C151.049 87.158 151.721 86.472 152.575 85.996C153.443 85.52 154.437 85.282 155.557 85.282ZM168.806 85.282C169.926 85.282 170.934 85.52 171.83 85.996C172.726 86.472 173.426 87.158 173.93 88.054C174.434 88.95 174.686 90 174.686 91.204C174.686 92.422 174.434 93.479 173.93 94.375C173.426 95.271 172.726 95.957 171.83 96.433C170.934 96.909 169.926 97.147 168.806 97.147C167.686 97.147 166.678 96.909 165.782 96.433C164.9 95.957 164.2 95.271 163.682 94.375C163.178 93.465 162.926 92.408 162.926 91.204C162.926 90 163.178 88.95 163.682 88.054C164.2 87.158 164.9 86.472 165.782 85.996C166.678 85.52 167.686 85.282 168.806 85.282ZM168.806 87.361C168.19 87.361 167.623 87.501 167.105 87.781C166.587 88.061 166.167 88.495 165.845 89.083C165.537 89.657 165.383 90.364 165.383 91.204C165.383 92.058 165.537 92.772 165.845 93.346C166.167 93.92 166.587 94.347 167.105 94.627C167.623 94.907 168.19 95.047 168.806 95.047C169.422 95.047 169.989 94.907 170.507 94.627C171.025 94.347 171.438 93.92 171.746 93.346C172.068 92.772 172.229 92.058 172.229 91.204C172.229 90.364 172.068 89.657 171.746 89.083C171.438 88.495 171.025 88.061 170.507 87.781C169.989 87.501 169.422 87.361 168.806 87.361ZM183.556 85.24C184.9 85.24 185.978 85.674 186.79 86.542C187.602 87.41 188.008 88.649 188.008 90.259V97H185.614V90.511C185.614 89.475 185.348 88.677 184.816 88.117C184.284 87.543 183.556 87.256 182.632 87.256C181.68 87.256 180.917 87.564 180.343 88.18C179.769 88.782 179.482 89.671 179.482 90.847V97H177.088V85.429H179.482V87.97C179.79 87.102 180.308 86.43 181.036 85.954C181.764 85.478 182.604 85.24 183.556 85.24ZM195.548 85.282C196.598 85.282 197.494 85.541 198.236 86.059C198.978 86.577 199.496 87.263 199.79 88.117V81.46H202.205V97H199.79V94.312C199.496 95.166 198.978 95.852 198.236 96.37C197.494 96.888 196.598 97.147 195.548 97.147C194.54 97.147 193.637 96.909 192.839 96.433C192.055 95.957 191.439 95.271 190.991 94.375C190.543 93.479 190.319 92.422 190.319 91.204C190.319 90 190.543 88.95 190.991 88.054C191.439 87.158 192.055 86.472 192.839 85.996C193.637 85.52 194.54 85.282 195.548 85.282ZM196.283 87.382C195.219 87.382 194.365 87.725 193.721 88.411C193.091 89.083 192.776 90.014 192.776 91.204C192.776 92.394 193.091 93.332 193.721 94.018C194.365 94.69 195.219 95.026 196.283 95.026C196.955 95.026 197.557 94.872 198.089 94.564C198.621 94.242 199.041 93.794 199.349 93.22C199.657 92.646 199.811 91.974 199.811 91.204C199.811 90.448 199.657 89.783 199.349 89.209C199.041 88.621 198.621 88.173 198.089 87.865C197.557 87.543 196.955 87.382 196.283 87.382ZM204.842 82.069C204.842 81.663 204.982 81.327 205.262 81.061C205.542 80.795 205.913 80.662 206.375 80.662C206.837 80.662 207.208 80.795 207.488 81.061C207.782 81.327 207.929 81.663 207.929 82.069C207.929 82.475 207.782 82.804 207.488 83.056C207.208 83.308 206.837 83.434 206.375 83.434C205.913 83.434 205.542 83.308 205.262 83.056C204.982 82.804 204.842 82.475 204.842 82.069ZM207.572 85.429V97H205.178V85.429H207.572ZM216.386 94.921V97H214.916C213.684 97 212.746 96.706 212.102 96.118C211.472 95.516 211.157 94.522 211.157 93.136V87.466H209.498V85.429H211.157V82.552H213.572V85.429H216.365V87.466H213.572V93.178C213.572 93.836 213.691 94.291 213.929 94.543C214.181 94.795 214.615 94.921 215.231 94.921H216.386ZM218.393 82.069C218.393 81.663 218.533 81.327 218.813 81.061C219.093 80.795 219.464 80.662 219.926 80.662C220.388 80.662 220.759 80.795 221.039 81.061C221.333 81.327 221.48 81.663 221.48 82.069C221.48 82.475 221.333 82.804 221.039 83.056C220.759 83.308 220.388 83.434 219.926 83.434C219.464 83.434 219.093 83.308 218.813 83.056C218.533 82.804 218.393 82.475 218.393 82.069ZM221.123 85.429V97H218.729V85.429H221.123ZM229.412 85.282C230.532 85.282 231.54 85.52 232.436 85.996C233.332 86.472 234.032 87.158 234.536 88.054C235.04 88.95 235.292 90 235.292 91.204C235.292 92.422 235.04 93.479 234.536 94.375C234.032 95.271 233.332 95.957 232.436 96.433C231.54 96.909 230.532 97.147 229.412 97.147C228.292 97.147 227.284 96.909 226.388 96.433C225.506 95.957 224.806 95.271 224.288 94.375C223.784 93.465 223.532 92.408 223.532 91.204C223.532 90 223.784 88.95 224.288 88.054C224.806 87.158 225.506 86.472 226.388 85.996C227.284 85.52 228.292 85.282 229.412 85.282ZM229.412 87.361C228.796 87.361 228.229 87.501 227.711 87.781C227.193 88.061 226.773 88.495 226.451 89.083C226.143 89.657 225.989 90.364 225.989 91.204C225.989 92.058 226.143 92.772 226.451 93.346C226.773 93.92 227.193 94.347 227.711 94.627C228.229 94.907 228.796 95.047 229.412 95.047C230.028 95.047 230.595 94.907 231.113 94.627C231.631 94.347 232.044 93.92 232.352 93.346C232.674 92.772 232.835 92.058 232.835 91.204C232.835 90.364 232.674 89.657 232.352 89.083C232.044 88.495 231.631 88.061 231.113 87.781C230.595 87.501 230.028 87.361 229.412 87.361ZM244.162 85.24C245.506 85.24 246.584 85.674 247.396 86.542C248.208 87.41 248.614 88.649 248.614 90.259V97H246.22V90.511C246.22 89.475 245.954 88.677 245.422 88.117C244.89 87.543 244.162 87.256 243.238 87.256C242.286 87.256 241.523 87.564 240.949 88.18C240.375 88.782 240.088 89.671 240.088 90.847V97H237.694V85.429H240.088V87.97C240.396 87.102 240.914 86.43 241.642 85.954C242.37 85.478 243.21 85.24 244.162 85.24Z" fill="black"/>
<path d="M70.206 154.174V156.106H63.843V160.705H69.093V162.553H63.843V169H61.449V154.174H70.206ZM77.0796 157.282C78.1296 157.282 79.0256 157.541 79.7676 158.059C80.5096 158.577 81.0346 159.263 81.3426 160.117V157.429H83.7366V169H81.3426V166.312C81.0346 167.166 80.5096 167.852 79.7676 168.37C79.0256 168.888 78.1296 169.147 77.0796 169.147C76.0716 169.147 75.1686 168.909 74.3706 168.433C73.5866 167.957 72.9706 167.271 72.5226 166.375C72.0746 165.479 71.8506 164.422 71.8506 163.204C71.8506 162 72.0746 160.95 72.5226 160.054C72.9706 159.158 73.5866 158.472 74.3706 157.996C75.1686 157.52 76.0716 157.282 77.0796 157.282ZM77.8146 159.382C76.7506 159.382 75.8966 159.725 75.2526 160.411C74.6226 161.083 74.3076 162.014 74.3076 163.204C74.3076 164.394 74.6226 165.332 75.2526 166.018C75.8966 166.69 76.7506 167.026 77.8146 167.026C78.4866 167.026 79.0886 166.872 79.6206 166.564C80.1526 166.242 80.5726 165.794 80.8806 165.22C81.1886 164.646 81.3426 163.974 81.3426 163.204C81.3426 162.448 81.1886 161.783 80.8806 161.209C80.5726 160.621 80.1526 160.173 79.6206 159.865C79.0886 159.543 78.4866 159.382 77.8146 159.382ZM91.8545 157.282C93.3525 157.282 94.5915 157.681 95.5715 158.479C96.5515 159.263 97.1605 160.334 97.3985 161.692H94.8575C94.7175 160.964 94.3745 160.397 93.8285 159.991C93.2965 159.571 92.6245 159.361 91.8125 159.361C90.8885 159.361 90.1185 159.69 89.5025 160.348C88.8865 160.992 88.5785 161.944 88.5785 163.204C88.5785 164.464 88.8865 165.423 89.5025 166.081C90.1185 166.739 90.8885 167.068 91.8125 167.068C92.6245 167.068 93.2965 166.858 93.8285 166.438C94.3745 166.018 94.7175 165.444 94.8575 164.716H97.3985C97.1605 166.074 96.5515 167.152 95.5715 167.95C94.5915 168.748 93.3525 169.147 91.8545 169.147C90.7345 169.147 89.7405 168.909 88.8725 168.433C88.0185 167.957 87.3465 167.271 86.8565 166.375C86.3665 165.479 86.1215 164.422 86.1215 163.204C86.1215 162 86.3665 160.95 86.8565 160.054C87.3465 159.158 88.0185 158.472 88.8725 157.996C89.7405 157.52 90.7345 157.282 91.8545 157.282ZM99.4755 154.069C99.4755 153.663 99.6155 153.327 99.8955 153.061C100.175 152.795 100.546 152.662 101.008 152.662C101.47 152.662 101.841 152.795 102.121 153.061C102.415 153.327 102.562 153.663 102.562 154.069C102.562 154.475 102.415 154.804 102.121 155.056C101.841 155.308 101.47 155.434 101.008 155.434C100.546 155.434 100.175 155.308 99.8955 155.056C99.6155 154.804 99.4755 154.475 99.4755 154.069ZM102.205 157.429V169H99.8115V157.429H102.205ZM107.597 153.46V169H105.203V153.46H107.597ZM110.258 154.069C110.258 153.663 110.398 153.327 110.678 153.061C110.958 152.795 111.329 152.662 111.791 152.662C112.253 152.662 112.624 152.795 112.904 153.061C113.198 153.327 113.345 153.663 113.345 154.069C113.345 154.475 113.198 154.804 112.904 155.056C112.624 155.308 112.253 155.434 111.791 155.434C111.329 155.434 110.958 155.308 110.678 155.056C110.398 154.804 110.258 154.475 110.258 154.069ZM112.988 157.429V169H110.594V157.429H112.988ZM121.802 166.921V169H120.332C119.1 169 118.162 168.706 117.518 168.118C116.888 167.516 116.573 166.522 116.573 165.136V159.466H114.914V157.429H116.573V154.552H118.988V157.429H121.781V159.466H118.988V165.178C118.988 165.836 119.107 166.291 119.345 166.543C119.597 166.795 120.031 166.921 120.647 166.921H121.802ZM125.509 157.429L128.974 165.934L132.187 157.429H134.854L127.861 174.502H125.194L127.693 168.727L122.821 157.429H125.509Z" fill="black"/>
<path d="M70.983 234.174V236.106H66.846V249H64.431V236.106H60.315V234.174H70.983ZM78.1613 237.282C79.2813 237.282 80.2893 237.52 81.1853 237.996C82.0813 238.472 82.7813 239.158 83.2853 240.054C83.7893 240.95 84.0413 242 84.0413 243.204C84.0413 244.422 83.7893 245.479 83.2853 246.375C82.7813 247.271 82.0813 247.957 81.1853 248.433C80.2893 248.909 79.2813 249.147 78.1613 249.147C77.0413 249.147 76.0333 248.909 75.1373 248.433C74.2553 247.957 73.5553 247.271 73.0373 246.375C72.5333 245.465 72.2813 244.408 72.2813 243.204C72.2813 242 72.5333 240.95 73.0373 240.054C73.5553 239.158 74.2553 238.472 75.1373 237.996C76.0333 237.52 77.0413 237.282 78.1613 237.282ZM78.1613 239.361C77.5453 239.361 76.9783 239.501 76.4603 239.781C75.9423 240.061 75.5223 240.495 75.2003 241.083C74.8923 241.657 74.7383 242.364 74.7383 243.204C74.7383 244.058 74.8923 244.772 75.2003 245.346C75.5223 245.92 75.9423 246.347 76.4603 246.627C76.9783 246.907 77.5453 247.047 78.1613 247.047C78.7773 247.047 79.3443 246.907 79.8623 246.627C80.3803 246.347 80.7933 245.92 81.1013 245.346C81.4233 244.772 81.5843 244.058 81.5843 243.204C81.5843 242.364 81.4233 241.657 81.1013 241.083C80.7933 240.495 80.3803 240.061 79.8623 239.781C79.3443 239.501 78.7773 239.361 78.1613 239.361ZM92.2599 246.921V249H90.7899C89.5579 249 88.6199 248.706 87.9759 248.118C87.3459 247.516 87.0309 246.522 87.0309 245.136V239.466H85.3719V237.429H87.0309V234.552H89.4459V237.429H92.2389V239.466H89.4459V245.178C89.4459 245.836 89.5649 246.291 89.8029 246.543C90.0549 246.795 90.4889 246.921 91.1049 246.921H92.2599ZM99.2435 237.282C100.294 237.282 101.19 237.541 101.932 238.059C102.674 238.577 103.199 239.263 103.507 240.117V237.429H105.901V249H103.507V246.312C103.199 247.166 102.674 247.852 101.932 248.37C101.19 248.888 100.294 249.147 99.2435 249.147C98.2355 249.147 97.3325 248.909 96.5345 248.433C95.7505 247.957 95.1345 247.271 94.6865 246.375C94.2385 245.479 94.0145 244.422 94.0145 243.204C94.0145 242 94.2385 240.95 94.6865 240.054C95.1345 239.158 95.7505 238.472 96.5345 237.996C97.3325 237.52 98.2355 237.282 99.2435 237.282ZM99.9785 239.382C98.9145 239.382 98.0605 239.725 97.4165 240.411C96.7865 241.083 96.4715 242.014 96.4715 243.204C96.4715 244.394 96.7865 245.332 97.4165 246.018C98.0605 246.69 98.9145 247.026 99.9785 247.026C100.651 247.026 101.253 246.872 101.785 246.564C102.317 246.242 102.737 245.794 103.045 245.22C103.353 244.646 103.507 243.974 103.507 243.204C103.507 242.448 103.353 241.783 103.045 241.209C102.737 240.621 102.317 240.173 101.785 239.865C101.253 239.543 100.651 239.382 99.9785 239.382ZM111.267 233.46V249H108.873V233.46H111.267ZM124.431 237.282C125.929 237.282 127.168 237.681 128.148 238.479C129.128 239.263 129.737 240.334 129.975 241.692H127.434C127.294 240.964 126.951 240.397 126.405 239.991C125.873 239.571 125.201 239.361 124.389 239.361C123.465 239.361 122.695 239.69 122.079 240.348C121.463 240.992 121.155 241.944 121.155 243.204C121.155 244.464 121.463 245.423 122.079 246.081C122.695 246.739 123.465 247.068 124.389 247.068C125.201 247.068 125.873 246.858 126.405 246.438C126.951 246.018 127.294 245.444 127.434 244.716H129.975C129.737 246.074 129.128 247.152 128.148 247.95C127.168 248.748 125.929 249.147 124.431 249.147C123.311 249.147 122.317 248.909 121.449 248.433C120.595 247.957 119.923 247.271 119.433 246.375C118.943 245.479 118.698 244.422 118.698 243.204C118.698 242 118.943 240.95 119.433 240.054C119.923 239.158 120.595 238.472 121.449 237.996C122.317 237.52 123.311 237.282 124.431 237.282ZM137.68 237.282C138.8 237.282 139.808 237.52 140.704 237.996C141.6 238.472 142.3 239.158 142.804 240.054C143.308 240.95 143.56 242 143.56 243.204C143.56 244.422 143.308 245.479 142.804 246.375C142.3 247.271 141.6 247.957 140.704 248.433C139.808 248.909 138.8 249.147 137.68 249.147C136.56 249.147 135.552 248.909 134.656 248.433C133.774 247.957 133.074 247.271 132.556 246.375C132.052 245.465 131.8 244.408 131.8 243.204C131.8 242 132.052 240.95 132.556 240.054C133.074 239.158 133.774 238.472 134.656 237.996C135.552 237.52 136.56 237.282 137.68 237.282ZM137.68 239.361C137.064 239.361 136.497 239.501 135.979 239.781C135.461 240.061 135.041 240.495 134.719 241.083C134.411 241.657 134.257 242.364 134.257 243.204C134.257 244.058 134.411 244.772 134.719 245.346C135.041 245.92 135.461 246.347 135.979 246.627C136.497 246.907 137.064 247.047 137.68 247.047C138.296 247.047 138.863 246.907 139.381 246.627C139.899 246.347 140.312 245.92 140.62 245.346C140.942 244.772 141.103 244.058 141.103 243.204C141.103 242.364 140.942 241.657 140.62 241.083C140.312 240.495 139.899 240.061 139.381 239.781C138.863 239.501 138.296 239.361 137.68 239.361ZM149.763 237.282C151.121 237.282 152.206 237.632 153.018 238.332C153.844 239.018 154.348 239.942 154.53 241.104H152.262C152.164 240.474 151.891 239.97 151.443 239.592C151.009 239.2 150.428 239.004 149.7 239.004C149.098 239.004 148.629 239.151 148.293 239.445C147.971 239.725 147.81 240.11 147.81 240.6C147.81 240.964 147.929 241.258 148.167 241.482C148.405 241.706 148.699 241.881 149.049 242.007C149.413 242.133 149.924 242.273 150.582 242.427C151.45 242.623 152.15 242.826 152.682 243.036C153.228 243.246 153.69 243.582 154.068 244.044C154.46 244.492 154.656 245.108 154.656 245.892C154.656 246.858 154.285 247.642 153.543 248.244C152.815 248.846 151.828 249.147 150.582 249.147C149.14 249.147 147.971 248.811 147.075 248.139C146.193 247.467 145.661 246.529 145.479 245.325H147.81C147.88 245.955 148.16 246.466 148.65 246.858C149.14 247.25 149.784 247.446 150.582 247.446C151.156 247.446 151.604 247.299 151.926 247.005C152.262 246.697 152.43 246.312 152.43 245.85C152.43 245.444 152.304 245.122 152.052 244.884C151.8 244.646 151.485 244.464 151.107 244.338C150.729 244.198 150.211 244.058 149.553 243.918C148.713 243.722 148.027 243.526 147.495 243.33C146.977 243.134 146.529 242.819 146.151 242.385C145.787 241.937 145.605 241.335 145.605 240.579C145.605 239.599 145.969 238.808 146.697 238.206C147.439 237.59 148.461 237.282 149.763 237.282ZM162.974 246.921V249H161.504C160.272 249 159.334 248.706 158.69 248.118C158.06 247.516 157.745 246.522 157.745 245.136V239.466H156.086V237.429H157.745V234.552H160.16V237.429H162.953V239.466H160.16V245.178C160.16 245.836 160.279 246.291 160.517 246.543C160.769 246.795 161.203 246.921 161.819 246.921H162.974Z" fill="black"/>
<path d="M68.316 313.985C69.688 313.985 70.927 314.307 72.033 314.951C73.153 315.595 74.028 316.498 74.658 317.66C75.302 318.808 75.624 320.11 75.624 321.566C75.624 323.022 75.302 324.331 74.658 325.493C74.028 326.641 73.153 327.544 72.033 328.202C70.927 328.846 69.688 329.168 68.316 329.168C66.93 329.168 65.677 328.846 64.557 328.202C63.451 327.544 62.576 326.641 61.932 325.493C61.288 324.331 60.966 323.022 60.966 321.566C60.966 320.11 61.288 318.808 61.932 317.66C62.576 316.498 63.451 315.595 64.557 314.951C65.677 314.307 66.93 313.985 68.316 313.985ZM68.316 316.211C67.364 316.211 66.517 316.428 65.775 316.862C65.033 317.296 64.452 317.919 64.032 318.731C63.626 319.543 63.423 320.488 63.423 321.566C63.423 322.644 63.626 323.589 64.032 324.401C64.452 325.213 65.033 325.836 65.775 326.27C66.517 326.704 67.364 326.921 68.316 326.921C69.254 326.921 70.087 326.704 70.815 326.27C71.557 325.836 72.131 325.213 72.537 324.401C72.957 323.589 73.167 322.644 73.167 321.566C73.167 320.488 72.957 319.543 72.537 318.731C72.131 317.919 71.557 317.296 70.815 316.862C70.087 316.428 69.254 316.211 68.316 316.211ZM88.8078 317.429V329H86.3928V326.48C86.0988 327.334 85.5878 327.999 84.8598 328.475C84.1318 328.937 83.2848 329.168 82.3188 329.168C80.9748 329.168 79.8968 328.734 79.0848 327.866C78.2728 326.998 77.8668 325.759 77.8668 324.149V317.429H80.2608V323.897C80.2608 324.947 80.5268 325.759 81.0588 326.333C81.5908 326.893 82.3188 327.173 83.2428 327.173C84.1948 327.173 84.9578 326.865 85.5318 326.249C86.1058 325.633 86.3928 324.737 86.3928 323.561V317.429H88.8078ZM97.592 326.921V329H96.122C94.89 329 93.952 328.706 93.308 328.118C92.678 327.516 92.363 326.522 92.363 325.136V319.466H90.704V317.429H92.363V314.552H94.778V317.429H97.571V319.466H94.778V325.178C94.778 325.836 94.897 326.291 95.135 326.543C95.387 326.795 95.821 326.921 96.437 326.921H97.592ZM110.248 317.282C111.368 317.282 112.376 317.52 113.272 317.996C114.168 318.472 114.868 319.158 115.372 320.054C115.876 320.95 116.128 322 116.128 323.204C116.128 324.422 115.876 325.479 115.372 326.375C114.868 327.271 114.168 327.957 113.272 328.433C112.376 328.909 111.368 329.147 110.248 329.147C109.128 329.147 108.12 328.909 107.224 328.433C106.342 327.957 105.642 327.271 105.124 326.375C104.62 325.465 104.368 324.408 104.368 323.204C104.368 322 104.62 320.95 105.124 320.054C105.642 319.158 106.342 318.472 107.224 317.996C108.12 317.52 109.128 317.282 110.248 317.282ZM110.248 319.361C109.632 319.361 109.065 319.501 108.547 319.781C108.029 320.061 107.609 320.495 107.287 321.083C106.979 321.657 106.825 322.364 106.825 323.204C106.825 324.058 106.979 324.772 107.287 325.346C107.609 325.92 108.029 326.347 108.547 326.627C109.065 326.907 109.632 327.047 110.248 327.047C110.864 327.047 111.431 326.907 111.949 326.627C112.467 326.347 112.88 325.92 113.188 325.346C113.51 324.772 113.671 324.058 113.671 323.204C113.671 322.364 113.51 321.657 113.188 321.083C112.88 320.495 112.467 320.061 111.949 319.781C111.431 319.501 110.864 319.361 110.248 319.361ZM123.927 315.035C122.989 314.993 122.331 315.147 121.953 315.497C121.575 315.833 121.386 316.414 121.386 317.24V317.429H123.927V319.487H121.386V329H118.971V319.487H117.396V317.429H118.971V317.051C118.971 315.637 119.384 314.58 120.21 313.88C121.036 313.166 122.275 312.851 123.927 312.935V315.035ZM137.609 317.282C138.617 317.282 139.513 317.52 140.297 317.996C141.095 318.472 141.718 319.158 142.166 320.054C142.614 320.95 142.838 322 142.838 323.204C142.838 324.422 142.614 325.479 142.166 326.375C141.718 327.271 141.095 327.957 140.297 328.433C139.513 328.909 138.617 329.147 137.609 329.147C136.559 329.147 135.663 328.888 134.921 328.37C134.179 327.852 133.661 327.166 133.367 326.312V334.502H130.973V317.429H133.367V320.117C133.661 319.263 134.179 318.577 134.921 318.059C135.663 317.541 136.559 317.282 137.609 317.282ZM136.874 319.382C136.202 319.382 135.6 319.543 135.068 319.865C134.536 320.173 134.116 320.621 133.808 321.209C133.5 321.783 133.346 322.448 133.346 323.204C133.346 323.974 133.5 324.646 133.808 325.22C134.116 325.794 134.536 326.242 135.068 326.564C135.6 326.872 136.202 327.026 136.874 327.026C137.938 327.026 138.792 326.69 139.436 326.018C140.08 325.332 140.402 324.394 140.402 323.204C140.402 322.028 140.08 321.097 139.436 320.411C138.792 319.725 137.938 319.382 136.874 319.382ZM150.536 317.282C151.656 317.282 152.664 317.52 153.56 317.996C154.456 318.472 155.156 319.158 155.66 320.054C156.164 320.95 156.416 322 156.416 323.204C156.416 324.422 156.164 325.479 155.66 326.375C155.156 327.271 154.456 327.957 153.56 328.433C152.664 328.909 151.656 329.147 150.536 329.147C149.416 329.147 148.408 328.909 147.512 328.433C146.63 327.957 145.93 327.271 145.412 326.375C144.908 325.465 144.656 324.408 144.656 323.204C144.656 322 144.908 320.95 145.412 320.054C145.93 319.158 146.63 318.472 147.512 317.996C148.408 317.52 149.416 317.282 150.536 317.282ZM150.536 319.361C149.92 319.361 149.353 319.501 148.835 319.781C148.317 320.061 147.897 320.495 147.575 321.083C147.267 321.657 147.113 322.364 147.113 323.204C147.113 324.058 147.267 324.772 147.575 325.346C147.897 325.92 148.317 326.347 148.835 326.627C149.353 326.907 149.92 327.047 150.536 327.047C151.152 327.047 151.719 326.907 152.237 326.627C152.755 326.347 153.168 325.92 153.476 325.346C153.798 324.772 153.959 324.058 153.959 323.204C153.959 322.364 153.798 321.657 153.476 321.083C153.168 320.495 152.755 320.061 152.237 319.781C151.719 319.501 151.152 319.361 150.536 319.361ZM163.963 317.282C165.461 317.282 166.7 317.681 167.68 318.479C168.66 319.263 169.269 320.334 169.507 321.692H166.966C166.826 320.964 166.483 320.397 165.937 319.991C165.405 319.571 164.733 319.361 163.921 319.361C162.997 319.361 162.227 319.69 161.611 320.348C160.995 320.992 160.687 321.944 160.687 323.204C160.687 324.464 160.995 325.423 161.611 326.081C162.227 326.739 162.997 327.068 163.921 327.068C164.733 327.068 165.405 326.858 165.937 326.438C166.483 326.018 166.826 325.444 166.966 324.716H169.507C169.269 326.074 168.66 327.152 167.68 327.95C166.7 328.748 165.461 329.147 163.963 329.147C162.843 329.147 161.849 328.909 160.981 328.433C160.127 327.957 159.455 327.271 158.965 326.375C158.475 325.479 158.23 324.422 158.23 323.204C158.23 322 158.475 320.95 158.965 320.054C159.455 319.158 160.127 318.472 160.981 317.996C161.849 317.52 162.843 317.282 163.963 317.282ZM178.472 329L174.314 323.855V329H171.92V313.46H174.314V322.364L178.43 317.429H181.307L176.267 323.183L181.433 329H178.472ZM193.846 322.658C193.846 323.05 193.818 323.393 193.762 323.687H184.858C184.9 324.877 185.229 325.759 185.845 326.333C186.461 326.907 187.224 327.194 188.134 327.194C188.932 327.194 189.604 326.991 190.15 326.585C190.71 326.179 191.053 325.64 191.179 324.968H193.741C193.587 325.78 193.265 326.501 192.775 327.131C192.285 327.761 191.648 328.258 190.864 328.622C190.08 328.972 189.205 329.147 188.239 329.147C187.119 329.147 186.125 328.909 185.257 328.433C184.403 327.957 183.731 327.271 183.241 326.375C182.751 325.479 182.506 324.422 182.506 323.204C182.506 322 182.751 320.95 183.241 320.054C183.731 319.158 184.403 318.472 185.257 317.996C186.125 317.52 187.119 317.282 188.239 317.282C189.373 317.282 190.36 317.52 191.2 317.996C192.054 318.458 192.705 319.102 193.153 319.928C193.615 320.74 193.846 321.65 193.846 322.658ZM191.431 322.595C191.459 321.839 191.326 321.209 191.032 320.705C190.752 320.187 190.36 319.809 189.856 319.571C189.366 319.319 188.827 319.193 188.239 319.193C187.301 319.193 186.517 319.48 185.887 320.054C185.257 320.628 184.914 321.475 184.858 322.595H191.431ZM202.074 326.921V329H200.604C199.372 329 198.434 328.706 197.79 328.118C197.16 327.516 196.845 326.522 196.845 325.136V319.466H195.186V317.429H196.845V314.552H199.26V317.429H202.053V319.466H199.26V325.178C199.26 325.836 199.379 326.291 199.617 326.543C199.869 326.795 200.303 326.921 200.919 326.921H202.074Z" fill="black"/>
<rect x="286.5" y="65.5" width="299" height="49" rx="4.5" fill="white" stroke="#555555"/>
<path d="M312.28 82.9V97H310.44V90.48H303.28V97H301.46V82.9H303.28V89H310.44V82.9H312.28ZM325.39 90.9C325.39 91.2867 325.364 91.62 325.31 91.9H316.53C316.57 93.1533 316.924 94.0933 317.59 94.72C318.27 95.3467 319.097 95.66 320.07 95.66C320.95 95.66 321.684 95.44 322.27 95C322.87 94.5467 323.237 93.9467 323.37 93.2H325.31C325.177 93.96 324.877 94.64 324.41 95.24C323.957 95.84 323.364 96.3067 322.63 96.64C321.897 96.9733 321.07 97.14 320.15 97.14C319.097 97.14 318.164 96.9133 317.35 96.46C316.537 96.0067 315.897 95.36 315.43 94.52C314.977 93.6667 314.75 92.6667 314.75 91.52C314.75 90.3733 314.977 89.3733 315.43 88.52C315.897 87.6667 316.537 87.0133 317.35 86.56C318.164 86.1067 319.097 85.88 320.15 85.88C321.217 85.88 322.144 86.1067 322.93 86.56C323.73 87.0133 324.337 87.62 324.75 88.38C325.177 89.14 325.39 89.98 325.39 90.9ZM323.55 91.02C323.59 90.2067 323.457 89.5267 323.15 88.98C322.844 88.4333 322.424 88.0267 321.89 87.76C321.357 87.4933 320.777 87.36 320.15 87.36C319.15 87.36 318.31 87.6733 317.63 88.3C316.95 88.9133 316.584 89.82 316.53 91.02H323.55ZM332.371 85.88C333.438 85.88 334.338 86.1467 335.071 86.68C335.818 87.2133 336.338 87.9267 336.631 88.82V86.02H338.451V97H336.631V94.2C336.338 95.0933 335.818 95.8067 335.071 96.34C334.338 96.8733 333.438 97.14 332.371 97.14C331.398 97.14 330.531 96.9133 329.771 96.46C329.011 96.0067 328.411 95.36 327.971 94.52C327.544 93.6667 327.331 92.6667 327.331 91.52C327.331 90.3733 327.544 89.3733 327.971 88.52C328.411 87.6667 329.011 87.0133 329.771 86.56C330.531 86.1067 331.398 85.88 332.371 85.88ZM332.891 87.5C331.771 87.5 330.871 87.86 330.191 88.58C329.524 89.2867 329.191 90.2667 329.191 91.52C329.191 92.7733 329.524 93.76 330.191 94.48C330.871 95.1867 331.771 95.54 332.891 95.54C333.611 95.54 334.251 95.3733 334.811 95.04C335.384 94.7067 335.831 94.24 336.151 93.64C336.471 93.0267 336.631 92.32 336.631 91.52C336.631 90.72 336.471 90.0133 336.151 89.4C335.831 88.7867 335.384 88.32 334.811 88C334.251 87.6667 333.611 87.5 332.891 87.5ZM343.267 88.24C343.627 87.48 344.154 86.8933 344.847 86.48C345.541 86.0533 346.367 85.84 347.327 85.84V87.82H346.767C345.741 87.82 344.901 88.0867 344.247 88.62C343.594 89.14 343.267 90.0067 343.267 91.22V97H341.447V86.02H343.267V88.24ZM354.463 95.4V97H353.103C351.983 97 351.143 96.7333 350.583 96.2C350.037 95.6667 349.763 94.7733 349.763 93.52V87.6H348.123V86.02H349.763V83.28H351.603V86.02H354.443V87.6H351.603V93.56C351.603 94.2667 351.73 94.7533 351.983 95.02C352.25 95.2733 352.703 95.4 353.343 95.4H354.463ZM365.266 85.88C366.506 85.88 367.499 86.2067 368.246 86.86C369.006 87.5 369.466 88.3667 369.626 89.46H367.886C367.806 88.8067 367.532 88.2733 367.066 87.86C366.612 87.4333 365.999 87.22 365.226 87.22C364.572 87.22 364.059 87.38 363.686 87.7C363.326 88.0067 363.146 88.4267 363.146 88.96C363.146 89.36 363.266 89.6867 363.506 89.94C363.759 90.18 364.066 90.3667 364.426 90.5C364.799 90.62 365.306 90.7533 365.946 90.9C366.759 91.0867 367.412 91.28 367.906 91.48C368.412 91.6667 368.839 91.9733 369.186 92.4C369.546 92.8267 369.726 93.4 369.726 94.12C369.726 95.0133 369.386 95.74 368.706 96.3C368.039 96.86 367.146 97.14 366.026 97.14C364.719 97.14 363.652 96.8267 362.826 96.2C361.999 95.5733 361.512 94.7 361.366 93.58H363.126C363.192 94.2467 363.479 94.7867 363.986 95.2C364.506 95.6133 365.186 95.82 366.026 95.82C366.652 95.82 367.139 95.66 367.486 95.34C367.846 95.02 368.026 94.6 368.026 94.08C368.026 93.6533 367.899 93.3133 367.646 93.06C367.392 92.8067 367.079 92.6133 366.706 92.48C366.332 92.3467 365.819 92.2067 365.166 92.06C364.352 91.8733 363.699 91.6867 363.206 91.5C362.726 91.3133 362.312 91.02 361.966 90.62C361.632 90.2067 361.466 89.6533 361.466 88.96C361.466 88.04 361.806 87.3 362.486 86.74C363.166 86.1667 364.092 85.88 365.266 85.88ZM382.018 86.02V97H380.198V94.42C379.918 95.3133 379.418 96 378.698 96.48C377.991 96.9467 377.164 97.18 376.218 97.18C374.951 97.18 373.924 96.7733 373.138 95.96C372.351 95.1333 371.958 93.9533 371.958 92.42V86.02H373.778V92.24C373.778 93.3333 374.058 94.18 374.618 94.78C375.178 95.3667 375.938 95.66 376.898 95.66C377.898 95.66 378.698 95.34 379.298 94.7C379.898 94.0467 380.198 93.1 380.198 91.86V86.02H382.018ZM386.853 88.24C387.213 87.48 387.74 86.8933 388.433 86.48C389.127 86.0533 389.953 85.84 390.913 85.84V87.82H390.353C389.327 87.82 388.487 88.0867 387.833 88.62C387.18 89.14 386.853 90.0067 386.853 91.22V97H385.033V86.02H386.853V88.24ZM397.309 85.88C398.376 85.88 399.276 86.1467 400.009 86.68C400.756 87.2133 401.276 87.9267 401.569 88.82V86.02H403.389V97.18C403.389 98.1933 403.176 99.0933 402.749 99.88C402.323 100.667 401.723 101.28 400.949 101.72C400.176 102.16 399.276 102.38 398.249 102.38C396.769 102.38 395.563 102.02 394.629 101.3C393.696 100.593 393.103 99.6333 392.849 98.42H394.649C394.863 99.1533 395.263 99.7267 395.849 100.14C396.449 100.567 397.216 100.78 398.149 100.78C399.136 100.78 399.949 100.46 400.589 99.82C401.243 99.1933 401.569 98.3133 401.569 97.18V94.2C401.276 95.0933 400.756 95.8067 400.009 96.34C399.276 96.8733 398.376 97.14 397.309 97.14C396.336 97.14 395.469 96.9133 394.709 96.46C393.949 96.0067 393.349 95.36 392.909 94.52C392.483 93.6667 392.269 92.6667 392.269 91.52C392.269 90.3733 392.483 89.3733 392.909 88.52C393.349 87.6667 393.949 87.0133 394.709 86.56C395.469 86.1067 396.336 85.88 397.309 85.88ZM397.829 87.5C396.709 87.5 395.809 87.86 395.129 88.58C394.463 89.2867 394.129 90.2667 394.129 91.52C394.129 92.7733 394.463 93.76 395.129 94.48C395.809 95.1867 396.709 95.54 397.829 95.54C398.549 95.54 399.189 95.3733 399.749 95.04C400.323 94.7067 400.769 94.24 401.089 93.64C401.409 93.0267 401.569 92.32 401.569 91.52C401.569 90.72 401.409 90.0133 401.089 89.4C400.769 88.7867 400.323 88.32 399.749 88C399.189 87.6667 398.549 87.5 397.829 87.5ZM416.486 90.9C416.486 91.2867 416.459 91.62 416.406 91.9H407.626C407.666 93.1533 408.019 94.0933 408.686 94.72C409.366 95.3467 410.192 95.66 411.166 95.66C412.046 95.66 412.779 95.44 413.366 95C413.966 94.5467 414.332 93.9467 414.466 93.2H416.406C416.272 93.96 415.972 94.64 415.506 95.24C415.052 95.84 414.459 96.3067 413.726 96.64C412.992 96.9733 412.166 97.14 411.246 97.14C410.192 97.14 409.259 96.9133 408.446 96.46C407.632 96.0067 406.992 95.36 406.526 94.52C406.072 93.6667 405.846 92.6667 405.846 91.52C405.846 90.3733 406.072 89.3733 406.526 88.52C406.992 87.6667 407.632 87.0133 408.446 86.56C409.259 86.1067 410.192 85.88 411.246 85.88C412.312 85.88 413.239 86.1067 414.026 86.56C414.826 87.0133 415.432 87.62 415.846 88.38C416.272 89.14 416.486 89.98 416.486 90.9ZM414.646 91.02C414.686 90.2067 414.552 89.5267 414.246 88.98C413.939 88.4333 413.519 88.0267 412.986 87.76C412.452 87.4933 411.872 87.36 411.246 87.36C410.246 87.36 409.406 87.6733 408.726 88.3C408.046 88.9133 407.679 89.82 407.626 91.02H414.646ZM420.786 88.24C421.146 87.48 421.673 86.8933 422.366 86.48C423.06 86.0533 423.886 85.84 424.846 85.84V87.82H424.286C423.26 87.82 422.42 88.0867 421.766 88.62C421.113 89.14 420.786 90.0067 420.786 91.22V97H418.966V86.02H420.786V88.24ZM427.502 86.02L431.062 94.66L434.362 86.02H436.382L429.862 102.2H427.802L430.082 96.82L425.462 86.02H427.502Z" fill="black"/>
<rect x="286.5" y="137.5" width="299" height="49" rx="4.5" fill="white" stroke="#555555"/>
<path d="M308.34 161.7C309.207 161.887 309.907 162.3 310.44 162.94C310.987 163.58 311.26 164.333 311.26 165.2C311.26 166.347 310.867 167.267 310.08 167.96C309.307 168.653 308.18 169 306.7 169H301.46V154.9H306.62C308.033 154.9 309.107 155.213 309.84 155.84C310.573 156.467 310.94 157.327 310.94 158.42C310.94 159.327 310.693 160.06 310.2 160.62C309.72 161.18 309.1 161.54 308.34 161.7ZM303.28 161.08H306.32C307.213 161.08 307.893 160.873 308.36 160.46C308.84 160.047 309.08 159.467 309.08 158.72C309.08 158 308.847 157.433 308.38 157.02C307.913 156.607 307.2 156.4 306.24 156.4H303.28V161.08ZM306.36 167.48C307.32 167.48 308.06 167.26 308.58 166.82C309.113 166.38 309.38 165.76 309.38 164.96C309.38 164.173 309.107 163.56 308.56 163.12C308.027 162.667 307.28 162.44 306.32 162.44H303.28V167.48H306.36ZM318.13 157.88C319.197 157.88 320.097 158.147 320.83 158.68C321.577 159.213 322.097 159.927 322.39 160.82V158.02H324.21V169H322.39V166.2C322.097 167.093 321.577 167.807 320.83 168.34C320.097 168.873 319.197 169.14 318.13 169.14C317.157 169.14 316.29 168.913 315.53 168.46C314.77 168.007 314.17 167.36 313.73 166.52C313.304 165.667 313.09 164.667 313.09 163.52C313.09 162.373 313.304 161.373 313.73 160.52C314.17 159.667 314.77 159.013 315.53 158.56C316.29 158.107 317.157 157.88 318.13 157.88ZM318.65 159.5C317.53 159.5 316.63 159.86 315.95 160.58C315.284 161.287 314.95 162.267 314.95 163.52C314.95 164.773 315.284 165.76 315.95 166.48C316.63 167.187 317.53 167.54 318.65 167.54C319.37 167.54 320.01 167.373 320.57 167.04C321.144 166.707 321.59 166.24 321.91 165.64C322.23 165.027 322.39 164.32 322.39 163.52C322.39 162.72 322.23 162.013 321.91 161.4C321.59 160.787 321.144 160.32 320.57 160C320.01 159.667 319.37 159.5 318.65 159.5ZM327.967 158.02L331.527 166.66L334.827 158.02H336.847L330.327 174.2H328.267L330.547 168.82L325.927 158.02H327.967ZM340.435 154.2V169H338.615V154.2H340.435ZM348.442 157.88C349.495 157.88 350.435 158.107 351.262 158.56C352.102 159.013 352.755 159.667 353.222 160.52C353.702 161.373 353.942 162.373 353.942 163.52C353.942 164.667 353.702 165.667 353.222 166.52C352.755 167.36 352.102 168.007 351.262 168.46C350.435 168.913 349.495 169.14 348.442 169.14C347.388 169.14 346.442 168.913 345.602 168.46C344.775 168.007 344.122 167.36 343.642 166.52C343.162 165.667 342.922 164.667 342.922 163.52C342.922 162.373 343.162 161.373 343.642 160.52C344.122 159.667 344.775 159.013 345.602 158.56C346.442 158.107 347.388 157.88 348.442 157.88ZM348.442 159.48C347.788 159.48 347.182 159.627 346.622 159.92C346.075 160.213 345.628 160.667 345.282 161.28C344.948 161.88 344.782 162.627 344.782 163.52C344.782 164.4 344.948 165.147 345.282 165.76C345.628 166.36 346.075 166.807 346.622 167.1C347.182 167.393 347.788 167.54 348.442 167.54C349.095 167.54 349.695 167.393 350.242 167.1C350.802 166.807 351.248 166.36 351.582 165.76C351.928 165.147 352.102 164.4 352.102 163.52C352.102 162.627 351.928 161.88 351.582 161.28C351.248 160.667 350.802 160.213 350.242 159.92C349.695 159.627 349.095 159.48 348.442 159.48ZM358.233 160.24C358.593 159.48 359.12 158.893 359.813 158.48C360.506 158.053 361.333 157.84 362.293 157.84V159.82H361.733C360.706 159.82 359.866 160.087 359.213 160.62C358.56 161.14 358.233 162.007 358.233 163.22V169H356.413V158.02H358.233V160.24ZM380.05 154.9V169H378.21V162.48H371.05V169H369.23V154.9H371.05V161H378.21V154.9H380.05ZM393.161 162.9C393.161 163.287 393.134 163.62 393.081 163.9H384.301C384.341 165.153 384.694 166.093 385.361 166.72C386.041 167.347 386.867 167.66 387.841 167.66C388.721 167.66 389.454 167.44 390.041 167C390.641 166.547 391.007 165.947 391.141 165.2H393.081C392.947 165.96 392.647 166.64 392.181 167.24C391.727 167.84 391.134 168.307 390.401 168.64C389.667 168.973 388.841 169.14 387.921 169.14C386.867 169.14 385.934 168.913 385.121 168.46C384.307 168.007 383.667 167.36 383.201 166.52C382.747 165.667 382.521 164.667 382.521 163.52C382.521 162.373 382.747 161.373 383.201 160.52C383.667 159.667 384.307 159.013 385.121 158.56C385.934 158.107 386.867 157.88 387.921 157.88C388.987 157.88 389.914 158.107 390.701 158.56C391.501 159.013 392.107 159.62 392.521 160.38C392.947 161.14 393.161 161.98 393.161 162.9ZM391.321 163.02C391.361 162.207 391.227 161.527 390.921 160.98C390.614 160.433 390.194 160.027 389.661 159.76C389.127 159.493 388.547 159.36 387.921 159.36C386.921 159.36 386.081 159.673 385.401 160.3C384.721 160.913 384.354 161.82 384.301 163.02H391.321ZM400.141 157.88C401.208 157.88 402.108 158.147 402.841 158.68C403.588 159.213 404.108 159.927 404.401 160.82V158.02H406.221V169H404.401V166.2C404.108 167.093 403.588 167.807 402.841 168.34C402.108 168.873 401.208 169.14 400.141 169.14C399.168 169.14 398.301 168.913 397.541 168.46C396.781 168.007 396.181 167.36 395.741 166.52C395.315 165.667 395.101 164.667 395.101 163.52C395.101 162.373 395.315 161.373 395.741 160.52C396.181 159.667 396.781 159.013 397.541 158.56C398.301 158.107 399.168 157.88 400.141 157.88ZM400.661 159.5C399.541 159.5 398.641 159.86 397.961 160.58C397.295 161.287 396.961 162.267 396.961 163.52C396.961 164.773 397.295 165.76 397.961 166.48C398.641 167.187 399.541 167.54 400.661 167.54C401.381 167.54 402.021 167.373 402.581 167.04C403.155 166.707 403.601 166.24 403.921 165.64C404.241 165.027 404.401 164.32 404.401 163.52C404.401 162.72 404.241 162.013 403.921 161.4C403.601 160.787 403.155 160.32 402.581 160C402.021 159.667 401.381 159.5 400.661 159.5ZM411.038 154.2V169H409.218V154.2H411.038ZM419.304 167.4V169H417.944C416.824 169 415.984 168.733 415.424 168.2C414.877 167.667 414.604 166.773 414.604 165.52V159.6H412.964V158.02H414.604V155.28H416.444V158.02H419.284V159.6H416.444V165.56C416.444 166.267 416.571 166.753 416.824 167.02C417.091 167.273 417.544 167.4 418.184 167.4H419.304ZM427.405 157.84C428.685 157.84 429.718 158.253 430.505 159.08C431.292 159.893 431.685 161.073 431.685 162.62V169H429.865V162.78C429.865 161.687 429.585 160.847 429.025 160.26C428.465 159.673 427.705 159.38 426.745 159.38C425.745 159.38 424.945 159.707 424.345 160.36C423.745 161 423.445 161.94 423.445 163.18V169H421.625V154.2H423.445V160.62C423.725 159.727 424.218 159.04 424.925 158.56C425.645 158.08 426.472 157.84 427.405 157.84Z" fill="black"/>
<rect x="286.5" y="217.5" width="299" height="49" rx="4.5" fill="white" stroke="#555555"/>
<path d="M306.1 241.1C307.14 241.42 307.947 241.707 308.52 241.96C309.093 242.213 309.593 242.613 310.02 243.16C310.447 243.693 310.66 244.42 310.66 245.34C310.66 246.007 310.493 246.627 310.16 247.2C309.84 247.773 309.34 248.24 308.66 248.6C307.98 248.96 307.147 249.14 306.16 249.14H306.1V250.74H305.48V249.1C304.213 248.98 303.18 248.567 302.38 247.86C301.58 247.14 301.133 246.253 301.04 245.2H302.98C303.033 245.76 303.273 246.287 303.7 246.78C304.14 247.26 304.733 247.56 305.48 247.68V242.56C304.453 242.253 303.653 241.98 303.08 241.74C302.52 241.487 302.027 241.093 301.6 240.56C301.187 240.027 300.98 239.313 300.98 238.42C300.98 237.687 301.167 237.04 301.54 236.48C301.913 235.92 302.44 235.487 303.12 235.18C303.8 234.873 304.587 234.72 305.48 234.72V233H306.1V234.74C307.34 234.833 308.327 235.213 309.06 235.88C309.793 236.547 310.227 237.353 310.36 238.3H308.4C308.307 237.793 308.067 237.34 307.68 236.94C307.293 236.54 306.767 236.287 306.1 236.18V241.1ZM302.94 238.34C302.94 239.02 303.153 239.547 303.58 239.92C304.02 240.293 304.653 240.62 305.48 240.9V236.14C304.707 236.14 304.087 236.333 303.62 236.72C303.167 237.093 302.94 237.633 302.94 238.34ZM306.12 247.72C306.947 247.72 307.587 247.5 308.04 247.06C308.493 246.62 308.72 246.06 308.72 245.38C308.72 244.673 308.493 244.127 308.04 243.74C307.587 243.353 306.94 243.027 306.1 242.76V247.72H306.12ZM312.001 236.6V234.9H316.041V249H314.121V236.6H312.001ZM319.003 238.22C319.003 237.527 319.189 236.893 319.563 236.32C319.936 235.747 320.489 235.293 321.223 234.96C321.956 234.627 322.829 234.46 323.843 234.46C324.856 234.46 325.723 234.627 326.443 234.96C327.176 235.293 327.729 235.747 328.103 236.32C328.476 236.893 328.663 237.527 328.663 238.22C328.663 239.007 328.449 239.687 328.023 240.26C327.596 240.833 326.949 241.24 326.083 241.48C327.016 241.733 327.743 242.173 328.263 242.8C328.783 243.427 329.043 244.2 329.043 245.12C329.043 246.453 328.569 247.5 327.623 248.26C326.676 249.02 325.416 249.4 323.843 249.4C322.269 249.4 321.009 249.02 320.063 248.26C319.116 247.5 318.643 246.453 318.643 245.12C318.643 244.2 318.896 243.427 319.403 242.8C319.923 242.173 320.649 241.733 321.583 241.48C320.716 241.24 320.069 240.833 319.643 240.26C319.216 239.687 319.003 239.007 319.003 238.22ZM320.803 238.48C320.803 239.28 321.076 239.9 321.623 240.34C322.169 240.767 322.909 240.98 323.843 240.98C324.776 240.98 325.509 240.767 326.043 240.34C326.589 239.9 326.863 239.28 326.863 238.48C326.863 237.68 326.589 237.067 326.043 236.64C325.496 236.2 324.763 235.98 323.843 235.98C322.923 235.98 322.183 236.2 321.623 236.64C321.076 237.067 320.803 237.68 320.803 238.48ZM320.423 245.02C320.423 245.927 320.729 246.633 321.343 247.14C321.956 247.633 322.789 247.88 323.843 247.88C324.883 247.88 325.709 247.627 326.323 247.12C326.936 246.613 327.243 245.913 327.243 245.02C327.243 244.113 326.923 243.427 326.283 242.96C325.643 242.493 324.829 242.26 323.843 242.26C322.843 242.26 322.023 242.493 321.383 242.96C320.743 243.427 320.423 244.113 320.423 245.02ZM331.323 241.86C331.323 244.127 331.696 245.893 332.443 247.16C333.189 248.427 334.483 249.06 336.323 249.06C338.163 249.06 339.456 248.427 340.203 247.16C340.963 245.893 341.343 244.127 341.343 241.86C341.343 239.62 340.963 237.867 340.203 236.6C339.456 235.333 338.163 234.7 336.323 234.7C334.483 234.7 333.189 235.333 332.443 236.6C331.696 237.853 331.323 239.607 331.323 241.86ZM339.543 241.86C339.543 243.02 339.456 243.993 339.283 244.78C339.123 245.553 338.809 246.173 338.343 246.64C337.876 247.107 337.203 247.34 336.323 247.34C335.456 247.34 334.789 247.107 334.323 246.64C333.856 246.173 333.536 245.553 333.363 244.78C333.203 243.993 333.123 243.02 333.123 241.86C333.123 240.713 333.203 239.753 333.363 238.98C333.536 238.207 333.856 237.593 334.323 237.14C334.789 236.673 335.456 236.44 336.323 236.44C337.203 236.44 337.876 236.673 338.343 237.14C338.809 237.593 339.123 238.207 339.283 238.98C339.456 239.753 339.543 240.713 339.543 241.86ZM345.088 247.66C345.275 248.247 345.368 248.793 345.368 249.3C345.368 249.993 345.195 250.547 344.848 250.96C344.501 251.387 343.981 251.6 343.288 251.6V250.82C343.621 250.82 343.861 250.727 344.008 250.54C344.168 250.367 344.248 250.087 344.248 249.7V249.52H343.228V247.66H345.088ZM347.304 241.86C347.304 244.127 347.677 245.893 348.424 247.16C349.171 248.427 350.464 249.06 352.304 249.06C354.144 249.06 355.437 248.427 356.184 247.16C356.944 245.893 357.324 244.127 357.324 241.86C357.324 239.62 356.944 237.867 356.184 236.6C355.437 235.333 354.144 234.7 352.304 234.7C350.464 234.7 349.171 235.333 348.424 236.6C347.677 237.853 347.304 239.607 347.304 241.86ZM355.524 241.86C355.524 243.02 355.437 243.993 355.264 244.78C355.104 245.553 354.791 246.173 354.324 246.64C353.857 247.107 353.184 247.34 352.304 247.34C351.437 247.34 350.771 247.107 350.304 246.64C349.837 246.173 349.517 245.553 349.344 244.78C349.184 243.993 349.104 243.02 349.104 241.86C349.104 240.713 349.184 239.753 349.344 238.98C349.517 238.207 349.837 237.593 350.304 237.14C350.771 236.673 351.437 236.44 352.304 236.44C353.184 236.44 353.857 236.673 354.324 237.14C354.791 237.593 355.104 238.207 355.264 238.98C355.437 239.753 355.524 240.713 355.524 241.86ZM359.689 241.86C359.689 244.127 360.063 245.893 360.809 247.16C361.556 248.427 362.849 249.06 364.689 249.06C366.529 249.06 367.823 248.427 368.569 247.16C369.329 245.893 369.709 244.127 369.709 241.86C369.709 239.62 369.329 237.867 368.569 236.6C367.823 235.333 366.529 234.7 364.689 234.7C362.849 234.7 361.556 235.333 360.809 236.6C360.063 237.853 359.689 239.607 359.689 241.86ZM367.909 241.86C367.909 243.02 367.823 243.993 367.649 244.78C367.489 245.553 367.176 246.173 366.709 246.64C366.243 247.107 365.569 247.34 364.689 247.34C363.823 247.34 363.156 247.107 362.689 246.64C362.223 246.173 361.903 245.553 361.729 244.78C361.569 243.993 361.489 243.02 361.489 241.86C361.489 240.713 361.569 239.753 361.729 238.98C361.903 238.207 362.223 237.593 362.689 237.14C363.156 236.673 363.823 236.44 364.689 236.44C365.569 236.44 366.243 236.673 366.709 237.14C367.176 237.593 367.489 238.207 367.649 238.98C367.823 239.753 367.909 240.713 367.909 241.86ZM372.074 241.86C372.074 244.127 372.448 245.893 373.194 247.16C373.941 248.427 375.234 249.06 377.074 249.06C378.914 249.06 380.208 248.427 380.954 247.16C381.714 245.893 382.094 244.127 382.094 241.86C382.094 239.62 381.714 237.867 380.954 236.6C380.208 235.333 378.914 234.7 377.074 234.7C375.234 234.7 373.941 235.333 373.194 236.6C372.448 237.853 372.074 239.607 372.074 241.86ZM380.294 241.86C380.294 243.02 380.208 243.993 380.034 244.78C379.874 245.553 379.561 246.173 379.094 246.64C378.628 247.107 377.954 247.34 377.074 247.34C376.208 247.34 375.541 247.107 375.074 246.64C374.608 246.173 374.288 245.553 374.114 244.78C373.954 243.993 373.874 243.02 373.874 241.86C373.874 240.713 373.954 239.753 374.114 238.98C374.288 238.207 374.608 237.593 375.074 237.14C375.541 236.673 376.208 236.44 377.074 236.44C377.954 236.44 378.628 236.673 379.094 237.14C379.561 237.593 379.874 238.207 380.034 238.98C380.208 239.753 380.294 240.713 380.294 241.86Z" fill="black"/>
<rect x="284.5" y="297.5" width="299" height="49" rx="4.5" fill="white" stroke="#555555"/>
<path d="M306.1 321.1C307.14 321.42 307.947 321.707 308.52 321.96C309.093 322.213 309.593 322.613 310.02 323.16C310.447 323.693 310.66 324.42 310.66 325.34C310.66 326.007 310.493 326.627 310.16 327.2C309.84 327.773 309.34 328.24 308.66 328.6C307.98 328.96 307.147 329.14 306.16 329.14H306.1V330.74H305.48V329.1C304.213 328.98 303.18 328.567 302.38 327.86C301.58 327.14 301.133 326.253 301.04 325.2H302.98C303.033 325.76 303.273 326.287 303.7 326.78C304.14 327.26 304.733 327.56 305.48 327.68V322.56C304.453 322.253 303.653 321.98 303.08 321.74C302.52 321.487 302.027 321.093 301.6 320.56C301.187 320.027 300.98 319.313 300.98 318.42C300.98 317.687 301.167 317.04 301.54 316.48C301.913 315.92 302.44 315.487 303.12 315.18C303.8 314.873 304.587 314.72 305.48 314.72V313H306.1V314.74C307.34 314.833 308.327 315.213 309.06 315.88C309.793 316.547 310.227 317.353 310.36 318.3H308.4C308.307 317.793 308.067 317.34 307.68 316.94C307.293 316.54 306.767 316.287 306.1 316.18V321.1ZM302.94 318.34C302.94 319.02 303.153 319.547 303.58 319.92C304.02 320.293 304.653 320.62 305.48 320.9V316.14C304.707 316.14 304.087 316.333 303.62 316.72C303.167 317.093 302.94 317.633 302.94 318.34ZM306.12 327.72C306.947 327.72 307.587 327.5 308.04 327.06C308.493 326.62 308.72 326.06 308.72 325.38C308.72 324.673 308.493 324.127 308.04 323.74C307.587 323.353 306.94 323.027 306.1 322.76V327.72H306.12ZM312.001 316.6V314.9H316.041V329H314.121V316.6H312.001ZM318.423 327.6C320.689 326.08 322.503 324.573 323.863 323.08C325.223 321.573 325.903 320.173 325.903 318.88C325.903 318.08 325.696 317.44 325.283 316.96C324.883 316.467 324.229 316.22 323.323 316.22C322.389 316.22 321.683 316.52 321.203 317.12C320.723 317.707 320.456 318.52 320.403 319.56H318.603C318.696 317.987 319.183 316.78 320.063 315.94C320.943 315.087 322.076 314.66 323.463 314.66C324.783 314.66 325.829 315.013 326.603 315.72C327.376 316.427 327.763 317.427 327.763 318.72C327.763 319.787 327.416 320.873 326.723 321.98C326.043 323.073 325.183 324.093 324.143 325.04C323.116 325.973 322.056 326.767 320.963 327.42H328.123V328.92H318.423V327.6ZM331.55 327.66C331.737 328.247 331.83 328.793 331.83 329.3C331.83 329.993 331.657 330.547 331.31 330.96C330.964 331.387 330.444 331.6 329.75 331.6V330.82C330.084 330.82 330.324 330.727 330.47 330.54C330.63 330.367 330.71 330.087 330.71 329.7V329.52H329.69V327.66H331.55ZM333.767 321.86C333.767 324.127 334.14 325.893 334.887 327.16C335.633 328.427 336.927 329.06 338.767 329.06C340.607 329.06 341.9 328.427 342.647 327.16C343.407 325.893 343.787 324.127 343.787 321.86C343.787 319.62 343.407 317.867 342.647 316.6C341.9 315.333 340.607 314.7 338.767 314.7C336.927 314.7 335.633 315.333 334.887 316.6C334.14 317.853 333.767 319.607 333.767 321.86ZM341.987 321.86C341.987 323.02 341.9 323.993 341.727 324.78C341.567 325.553 341.253 326.173 340.787 326.64C340.32 327.107 339.647 327.34 338.767 327.34C337.9 327.34 337.233 327.107 336.767 326.64C336.3 326.173 335.98 325.553 335.807 324.78C335.647 323.993 335.567 323.02 335.567 321.86C335.567 320.713 335.647 319.753 335.807 318.98C335.98 318.207 336.3 317.593 336.767 317.14C337.233 316.673 337.9 316.44 338.767 316.44C339.647 316.44 340.32 316.673 340.787 317.14C341.253 317.593 341.567 318.207 341.727 318.98C341.9 319.753 341.987 320.713 341.987 321.86ZM346.152 321.86C346.152 324.127 346.525 325.893 347.272 327.16C348.018 328.427 349.312 329.06 351.152 329.06C352.992 329.06 354.285 328.427 355.032 327.16C355.792 325.893 356.172 324.127 356.172 321.86C356.172 319.62 355.792 317.867 355.032 316.6C354.285 315.333 352.992 314.7 351.152 314.7C349.312 314.7 348.018 315.333 347.272 316.6C346.525 317.853 346.152 319.607 346.152 321.86ZM354.372 321.86C354.372 323.02 354.285 323.993 354.112 324.78C353.952 325.553 353.638 326.173 353.172 326.64C352.705 327.107 352.032 327.34 351.152 327.34C350.285 327.34 349.618 327.107 349.152 326.64C348.685 326.173 348.365 325.553 348.192 324.78C348.032 323.993 347.952 323.02 347.952 321.86C347.952 320.713 348.032 319.753 348.192 318.98C348.365 318.207 348.685 317.593 349.152 317.14C349.618 316.673 350.285 316.44 351.152 316.44C352.032 316.44 352.705 316.673 353.172 317.14C353.638 317.593 353.952 318.207 354.112 318.98C354.285 319.753 354.372 320.713 354.372 321.86ZM358.537 321.86C358.537 324.127 358.91 325.893 359.657 327.16C360.404 328.427 361.697 329.06 363.537 329.06C365.377 329.06 366.67 328.427 367.417 327.16C368.177 325.893 368.557 324.127 368.557 321.86C368.557 319.62 368.177 317.867 367.417 316.6C366.67 315.333 365.377 314.7 363.537 314.7C361.697 314.7 360.404 315.333 359.657 316.6C358.91 317.853 358.537 319.607 358.537 321.86ZM366.757 321.86C366.757 323.02 366.67 323.993 366.497 324.78C366.337 325.553 366.024 326.173 365.557 326.64C365.09 327.107 364.417 327.34 363.537 327.34C362.67 327.34 362.004 327.107 361.537 326.64C361.07 326.173 360.75 325.553 360.577 324.78C360.417 323.993 360.337 323.02 360.337 321.86C360.337 320.713 360.417 319.753 360.577 318.98C360.75 318.207 361.07 317.593 361.537 317.14C362.004 316.673 362.67 316.44 363.537 316.44C364.417 316.44 365.09 316.673 365.557 317.14C366.024 317.593 366.337 318.207 366.497 318.98C366.67 319.753 366.757 320.713 366.757 321.86Z" fill="black"/>
<rect x="132" y="397" width="382" height="50" rx="25" fill="#B03390"/>
<path d="M270.008 423.52V429H267.728V414.88H272.528C274.155 414.88 275.375 415.267 276.188 416.04C277.015 416.813 277.428 417.873 277.428 419.22C277.428 420.553 277.008 421.607 276.168 422.38C275.328 423.14 274.115 423.52 272.528 423.52H270.008ZM272.288 421.66C274.168 421.66 275.108 420.847 275.108 419.22C275.108 418.42 274.882 417.813 274.428 417.4C273.988 416.973 273.275 416.76 272.288 416.76H270.008V421.66H272.288ZM284.568 417.84C285.634 417.84 286.594 418.067 287.448 418.52C288.301 418.973 288.968 419.627 289.448 420.48C289.928 421.333 290.168 422.333 290.168 423.48C290.168 424.64 289.928 425.647 289.448 426.5C288.968 427.353 288.301 428.007 287.448 428.46C286.594 428.913 285.634 429.14 284.568 429.14C283.501 429.14 282.541 428.913 281.688 428.46C280.848 428.007 280.181 427.353 279.688 426.5C279.208 425.633 278.968 424.627 278.968 423.48C278.968 422.333 279.208 421.333 279.688 420.48C280.181 419.627 280.848 418.973 281.688 418.52C282.541 418.067 283.501 417.84 284.568 417.84ZM284.568 419.82C283.981 419.82 283.441 419.953 282.948 420.22C282.454 420.487 282.054 420.9 281.748 421.46C281.454 422.007 281.308 422.68 281.308 423.48C281.308 424.293 281.454 424.973 281.748 425.52C282.054 426.067 282.454 426.473 282.948 426.74C283.441 427.007 283.981 427.14 284.568 427.14C285.154 427.14 285.694 427.007 286.188 426.74C286.681 426.473 287.074 426.067 287.368 425.52C287.674 424.973 287.828 424.293 287.828 423.48C287.828 422.68 287.674 422.007 287.368 421.46C287.074 420.9 286.681 420.487 286.188 420.22C285.694 419.953 285.154 419.82 284.568 419.82ZM296.08 417.84C297.373 417.84 298.406 418.173 299.18 418.84C299.966 419.493 300.446 420.373 300.62 421.48H298.46C298.366 420.88 298.106 420.4 297.68 420.04C297.266 419.667 296.713 419.48 296.02 419.48C295.446 419.48 295 419.62 294.68 419.9C294.373 420.167 294.22 420.533 294.22 421C294.22 421.347 294.333 421.627 294.56 421.84C294.786 422.053 295.066 422.22 295.4 422.34C295.746 422.46 296.233 422.593 296.86 422.74C297.686 422.927 298.353 423.12 298.86 423.32C299.38 423.52 299.82 423.84 300.18 424.28C300.553 424.707 300.74 425.293 300.74 426.04C300.74 426.96 300.386 427.707 299.68 428.28C298.986 428.853 298.046 429.14 296.86 429.14C295.486 429.14 294.373 428.82 293.52 428.18C292.68 427.54 292.173 426.647 292 425.5H294.22C294.286 426.1 294.553 426.587 295.02 426.96C295.486 427.333 296.1 427.52 296.86 427.52C297.406 427.52 297.833 427.38 298.14 427.1C298.46 426.807 298.62 426.44 298.62 426C298.62 425.613 298.5 425.307 298.26 425.08C298.02 424.853 297.72 424.68 297.36 424.56C297 424.427 296.506 424.293 295.88 424.16C295.08 423.973 294.426 423.787 293.92 423.6C293.426 423.413 293 423.113 292.64 422.7C292.293 422.273 292.12 421.7 292.12 420.98C292.12 420.047 292.466 419.293 293.16 418.72C293.866 418.133 294.84 417.84 296.08 417.84ZM308.666 427.02V429H307.266C306.093 429 305.199 428.72 304.586 428.16C303.986 427.587 303.686 426.64 303.686 425.32V419.92H302.106V417.98H303.686V415.24H305.986V417.98H308.646V419.92H305.986V425.36C305.986 425.987 306.099 426.42 306.326 426.66C306.566 426.9 306.979 427.02 307.566 427.02H308.666ZM329.469 417.8C330.776 417.8 331.816 418.213 332.589 419.04C333.376 419.867 333.769 421.047 333.769 422.58V429H331.489V422.82C331.489 421.86 331.249 421.12 330.769 420.6C330.289 420.067 329.629 419.8 328.789 419.8C327.896 419.8 327.183 420.087 326.649 420.66C326.129 421.22 325.869 422.047 325.869 423.14V429H323.589V422.82C323.589 421.86 323.349 421.12 322.869 420.6C322.389 420.067 321.729 419.8 320.889 419.8C319.996 419.8 319.283 420.087 318.749 420.66C318.229 421.22 317.969 422.047 317.969 423.14V429H315.689V417.98H317.969V420.28C318.249 419.48 318.716 418.867 319.369 418.44C320.023 418.013 320.789 417.8 321.669 417.8C322.589 417.8 323.383 418.027 324.049 418.48C324.729 418.933 325.223 419.587 325.529 420.44C325.849 419.613 326.363 418.967 327.069 418.5C327.776 418.033 328.576 417.8 329.469 417.8ZM337.832 417.98L341.132 426.08L344.192 417.98H346.732L340.072 434.24H337.532L339.912 428.74L335.272 417.98H337.832ZM359.438 417.84C360.398 417.84 361.252 418.067 361.998 418.52C362.758 418.973 363.352 419.627 363.778 420.48C364.205 421.333 364.418 422.333 364.418 423.48C364.418 424.64 364.205 425.647 363.778 426.5C363.352 427.353 362.758 428.007 361.998 428.46C361.252 428.913 360.398 429.14 359.438 429.14C358.438 429.14 357.585 428.893 356.878 428.4C356.172 427.907 355.678 427.253 355.398 426.44V429H353.118V414.2H355.398V420.54C355.678 419.727 356.172 419.073 356.878 418.58C357.585 418.087 358.438 417.84 359.438 417.84ZM358.738 419.84C358.098 419.84 357.525 419.993 357.018 420.3C356.512 420.593 356.112 421.02 355.818 421.58C355.525 422.127 355.378 422.76 355.378 423.48C355.378 424.213 355.525 424.853 355.818 425.4C356.112 425.947 356.512 426.373 357.018 426.68C357.525 426.973 358.098 427.12 358.738 427.12C359.752 427.12 360.565 426.8 361.178 426.16C361.792 425.507 362.098 424.613 362.098 423.48C362.098 422.36 361.792 421.473 361.178 420.82C360.565 420.167 359.752 419.84 358.738 419.84ZM366.394 414.78C366.394 414.393 366.528 414.073 366.794 413.82C367.061 413.567 367.414 413.44 367.854 413.44C368.294 413.44 368.648 413.567 368.914 413.82C369.194 414.073 369.334 414.393 369.334 414.78C369.334 415.167 369.194 415.48 368.914 415.72C368.648 415.96 368.294 416.08 367.854 416.08C367.414 416.08 367.061 415.96 366.794 415.72C366.528 415.48 366.394 415.167 366.394 414.78ZM368.994 417.98V429H366.714V417.98H368.994ZM374.133 414.2V429H371.853V414.2H374.133ZM379.273 414.2V429H376.993V414.2H379.273Z" fill="white"/>
<rect x="11" y="1" width="624" height="510" rx="14" stroke="#012C37" stroke-width="2"/>
</svg>
