<?xml version="1.0" encoding="utf-8"?>
<!-- Generator: Adobe Illustrator 24.1.1, SVG Export Plug-In . SVG Version: 6.00 Build 0)  -->
<svg version="1.1" xmlns="http://www.w3.org/2000/svg" xmlns:xlink="http://www.w3.org/1999/xlink" x="0px" y="0px"
	 viewBox="0 0 205.95 48" style="enable-background:new 0 0 205.95 48;" xml:space="preserve">
<style type="text/css">
	.st0{fill:#231F20;}
	.st1{fill:none;stroke:#231F20;stroke-width:16;stroke-miterlimit:10;}
	.st2{fill:#B03390;}
	.st3{fill:#012C37;}
	.st4{fill:none;stroke:#231F20;stroke-miterlimit:10;}
	.st5{fill:none;stroke:#012C37;stroke-width:0.5;stroke-miterlimit:10;}
	.st6{fill:#FFFFFF;}
</style>
<g id="Layer_1">
</g>
<g id="Layer_2">
</g>
<g id="Layer_3">
	<g>
		<g>
			<path class="st3" d="M58.05,16.14h4.64v2.56c0.83-1.57,2.62-2.94,5.12-2.94c2.21,0,3.87,0.93,4.67,2.91
				c1.34-2.02,3.52-2.91,5.63-2.91c3.1,0,5.5,1.95,5.5,6.4v10.72h-4.61V22.66c0-2.14-0.96-3.1-2.62-3.1c-1.79,0-3.23,1.15-3.23,3.42
				v9.89h-4.61V22.66c0-2.14-0.99-3.1-2.62-3.1c-1.79,0-3.23,1.15-3.23,3.42v9.89h-4.64V16.14z"/>
			<path class="st3" d="M86.56,24.71v-0.26c0-5.28,3.74-8.7,8.61-8.7c4.32,0,8.16,2.53,8.16,8.51v1.28H91.26
				c0.13,2.78,1.63,4.38,4.16,4.38c2.14,0,3.2-0.93,3.49-2.34h4.38c-0.54,3.62-3.42,5.63-8,5.63
				C90.24,33.22,86.56,30.06,86.56,24.71z M98.81,22.7c-0.16-2.53-1.44-3.74-3.65-3.74c-2.08,0-3.49,1.38-3.84,3.74H98.81z"/>
			<path class="st3" d="M105.38,24.74v-0.26c0-5.5,3.17-8.74,7.36-8.74c2.69,0,4.35,1.18,5.28,2.88V8.55h4.61v24.32h-4.61v-2.78
				c-0.86,1.7-2.91,3.14-5.38,3.14C108.58,33.22,105.38,30.31,105.38,24.74z M118.14,24.58v-0.26c0-3.33-1.47-5.02-4-5.02
				c-2.59,0-4.03,1.76-4.03,5.09v0.26c0,3.33,1.6,4.96,3.9,4.96C116.45,29.61,118.14,27.98,118.14,24.58z"/>
			<path class="st3" d="M125.73,24.71v-0.26c0-5.41,3.87-8.7,8.64-8.7c3.87,0,7.46,1.7,7.87,6.5h-4.38
				c-0.32-1.95-1.5-2.85-3.39-2.85c-2.4,0-4,1.79-4,4.99v0.26c0,3.36,1.5,5.09,4.1,5.09c1.86,0,3.36-1.09,3.58-3.23h4.19
				c-0.26,3.97-3.14,6.72-8,6.72C129.44,33.22,125.73,30.18,125.73,24.71z"/>
			<path class="st3" d="M145.38,8.55h4.61v24.32h-4.61V8.55z"/>
			<path class="st3" d="M153.12,28.23c0-3.9,3.58-5.38,8.7-5.38h1.89v-0.67c0-1.98-0.61-3.07-2.72-3.07c-1.82,0-2.66,0.93-2.85,2.37
				h-4.38c0.29-3.97,3.42-5.73,7.52-5.73s7.01,1.66,7.01,6.21v10.91h-4.51v-2.02c-0.96,1.34-2.43,2.37-5.06,2.37
				C155.68,33.22,153.12,31.75,153.12,28.23z M163.71,27.02v-1.41h-1.79c-2.69,0-4.26,0.58-4.26,2.37c0,1.22,0.74,2.02,2.43,2.02
				C162.14,29.99,163.71,28.87,163.71,27.02z"/>
			<path class="st3" d="M172.26,16.14h4.64v2.66c0.83-1.66,2.66-3.04,5.44-3.04c3.3,0,5.63,1.98,5.63,6.46v10.66h-4.64v-9.98
				c0-2.27-0.9-3.36-2.94-3.36c-1.98,0-3.49,1.22-3.49,3.68v9.66h-4.64V16.14z"/>
			<path class="st3" d="M190.72,27.62h4.32c0.19,1.5,0.93,2.37,2.94,2.37c1.79,0,2.62-0.67,2.62-1.82c0-1.15-0.99-1.63-3.39-1.98
				c-4.45-0.67-6.17-1.95-6.17-5.22c0-3.49,3.2-5.22,6.62-5.22c3.71,0,6.5,1.34,6.91,5.18h-4.25c-0.26-1.38-1.02-2.02-2.62-2.02
				c-1.5,0-2.37,0.7-2.37,1.73c0,1.06,0.8,1.47,3.23,1.82c4.19,0.61,6.5,1.66,6.5,5.25c0,3.62-2.62,5.5-7.04,5.5
				C193.5,33.22,190.88,31.24,190.72,27.62z"/>
		</g>
		<g>
			<path class="st2" d="M23.74,40.37c-0.81-0.13-1.36-0.89-1.36-1.71l0-7.6c0-0.45,0.18-0.86,0.48-1.16c0.3-0.3,0.71-0.48,1.16-0.48
				h15.27c1.5,0,2.87-0.61,3.86-1.61c1.21-1.21,1.86-2.97,1.52-4.86c-0.47-2.63-2.9-4.47-5.57-4.47l-2.28,0c-1,0-1.8-0.81-1.8-1.8v0
				c0-1,0.81-1.8,1.8-1.8l1.81,0c4.81,0,9,3.61,9.36,8.4c0.2,2.76-0.85,5.3-2.64,7.09c-1.65,1.65-3.92,2.67-6.41,2.67H25.66
				c0,0-0.01,0-0.01,0.01v5.72C25.65,39.75,24.76,40.54,23.74,40.37z"/>
			<circle class="st3" cx="39.61" cy="8.35" r="3.45"/>
			<path class="st2" d="M24.26,7.63c0.81,0.13,1.37,0.89,1.37,1.71l0,7.6c0,0.45-0.18,0.86-0.48,1.16c-0.3,0.3-0.71,0.48-1.16,0.48
				H8.72c-1.5,0-2.87,0.61-3.86,1.61c-1.84,1.84-2.39,4.98-0.09,7.89c0.72,0.92,1.84,1.44,3.01,1.44l3.42,0c1,0,1.8,0.81,1.8,1.8v0
				c0,1-0.81,1.8-1.8,1.8l-3.11,0c-2.47,0-4.81-1.2-6.19-3.25c-3.07-4.57-2.1-9.37,0.77-12.24c1.65-1.65,3.92-2.67,6.41-2.67h13.27
				V9.24C22.35,8.25,23.24,7.46,24.26,7.63z"/>
			<circle class="st3" cx="8.39" cy="39.65" r="3.45"/>
			<path class="st3" d="M40.37,24.26c-0.13,0.81-0.89,1.36-1.71,1.36l-7.6,0c-0.45,0-0.86-0.18-1.16-0.48
				c-0.3-0.3-0.48-0.71-0.48-1.16V8.72c0-1.5-0.61-2.87-1.61-3.86C26.61,3.65,24.84,3,22.95,3.34c-2.63,0.47-4.47,2.9-4.47,5.57
				l0,2.28c0,1-0.81,1.8-1.8,1.8h0c-1,0-1.8-0.81-1.8-1.8l0-1.81c0-4.81,3.61-9,8.4-9.36c2.76-0.2,5.3,0.85,7.09,2.64
				c1.65,1.65,2.67,3.92,2.67,6.41v13.27h5.73C39.75,22.35,40.54,23.24,40.37,24.26z"/>
			<circle class="st2" cx="8.35" cy="8.39" r="3.45"/>
			<path class="st3" d="M7.62,23.76c0.12-0.83,0.91-1.39,1.74-1.39l7.57,0c0.45,0,0.86,0.18,1.16,0.48c0.3,0.3,0.48,0.71,0.48,1.16
				v15.27c0,1.5,0.61,2.87,1.61,3.86c1.19,1.18,2.91,1.83,4.76,1.52c2.69-0.45,4.58-2.93,4.58-5.66l0-2.2c0-1,0.81-1.8,1.8-1.8h0
				c1,0,1.8,0.81,1.8,1.8v1.65c0,4.58-3.21,8.69-7.73,9.41c-3.02,0.48-5.82-0.59-7.76-2.53c-1.65-1.65-2.67-3.92-2.67-6.41V25.69
				c0-0.02-0.02-0.04-0.04-0.04H9.24C8.26,25.65,7.47,24.78,7.62,23.76z"/>
			<circle class="st2" cx="39.65" cy="39.61" r="3.45"/>
		</g>
	</g>
</g>
</svg>
